<svg width="200" height="56" viewBox="0 0 200 56" fill="none" xmlns="http://www.w3.org/2000/svg">
<path d="M64.6795 30.904C63.0062 37.5486 56.2082 41.5925 49.4957 39.9355C42.7858 38.2789 38.7011 31.5485 40.3753 24.9043C42.0478 18.2588 48.8457 14.2146 55.5564 15.8712C62.2685 17.5278 66.3529 24.2589 64.6795 30.904Z" fill="#F7931A"/>
<path d="M58.0491 26.1362C58.2985 24.4858 57.0292 23.5986 55.2936 23.0067L55.8566 20.771L54.482 20.4319L53.9338 22.6086C53.5725 22.5195 53.2013 22.4354 52.8325 22.352L53.3845 20.1609L52.0107 19.8218L51.4473 22.0567C51.1482 21.9893 50.8546 21.9226 50.5695 21.8524L50.5711 21.8455L48.6754 21.3768L48.3097 22.8304C48.3097 22.8304 49.3296 23.0618 49.3081 23.0761C49.8648 23.2137 49.9654 23.5784 49.9486 23.8676L49.3073 26.4145C49.3456 26.4242 49.3954 26.4382 49.4502 26.4599C49.4044 26.4486 49.3554 26.4362 49.3049 26.4242L48.406 29.9921C48.3379 30.1595 48.1652 30.4107 47.7761 30.3154C47.7898 30.3351 46.7769 30.0685 46.7769 30.0685L46.0945 31.6262L47.8833 32.0677C48.2161 32.1503 48.5422 32.2367 48.8633 32.3181L48.2944 34.5794L49.6675 34.9185L50.2309 32.6813C50.6059 32.7821 50.9701 32.8751 51.3263 32.9627L50.7649 35.1895L52.1395 35.5286L52.7084 33.2716C55.0524 33.7108 56.815 33.5336 57.557 31.4348C58.1548 29.7448 57.5272 28.77 56.2939 28.1343C57.1921 27.9293 57.8686 27.3444 58.0491 26.1362V26.1362ZM54.9083 30.4964C54.4835 32.1863 51.6094 31.2727 50.6776 31.0437L51.4324 28.0479C52.3642 28.2781 55.3523 28.7339 54.9083 30.4964V30.4964ZM55.3335 26.1118C54.9459 27.649 52.5537 26.868 51.7778 26.6765L52.4621 23.9594C53.2381 24.1509 55.7372 24.5083 55.3335 26.1118V26.1118Z" fill="white"/>
<path d="M76.7133 23.0063C77.7293 23.0063 78.607 23.1865 79.3447 23.5404C80.0858 23.8978 80.6974 24.3792 81.1879 24.9846C81.6719 25.5931 82.032 26.3044 82.2646 27.1195C82.4956 27.937 82.6115 28.8157 82.6115 29.7564C82.6115 31.2014 82.3441 32.5665 81.8042 33.8533C81.2643 35.1421 80.5318 36.26 79.5999 37.2135C78.6689 38.1658 77.5695 38.9166 76.3018 39.4712C75.036 40.0263 73.6598 40.3038 72.1822 40.3038C71.9912 40.3038 71.6553 40.2984 71.1807 40.2887C70.7062 40.279 70.1608 40.2306 69.5501 40.1488C68.9354 40.0639 68.2855 39.9383 67.5991 39.7701C66.9132 39.605 66.2617 39.3736 65.6482 39.0798L71.1341 16.2593L76.0477 15.5054L74.0835 23.6036C74.5039 23.416 74.9276 23.2706 75.3504 23.1648C75.7736 23.0605 76.2278 23.0063 76.7133 23.0063V23.0063ZM72.5918 36.4448C73.3317 36.4448 74.029 36.2646 74.684 35.9107C75.341 35.5565 75.9079 35.0782 76.3828 34.4824C76.8577 33.884 77.2336 33.2099 77.5077 32.4568C77.7817 31.7037 77.9203 30.918 77.9203 30.1006C77.9203 29.0963 77.7508 28.3129 77.4129 27.7466C77.075 27.1827 76.4498 26.899 75.5418 26.899C75.2443 26.899 74.861 26.9552 74.3857 27.0555C73.9088 27.1621 73.4821 27.3835 73.0996 27.7164L71.0081 36.3165C71.1341 36.3386 71.2457 36.3596 71.3409 36.3793C71.434 36.4007 71.537 36.4158 71.6396 36.4262C71.748 36.4383 71.8722 36.4445 72.0221 36.4445C72.1721 36.4445 72.3596 36.4448 72.5918 36.4448V36.4448Z" fill="#4D4D4D"/>
<path d="M87.7083 39.8651H83.0151L86.9785 23.3543H91.7037L87.7083 39.8651ZM89.992 21.3427C89.337 21.3427 88.743 21.1497 88.2161 20.7628C87.6848 20.3783 87.4217 19.7865 87.4217 18.9888C87.4217 18.55 87.5117 18.1384 87.6903 17.75C87.8715 17.3624 88.1084 17.0287 88.4052 16.7449C88.7015 16.4635 89.0449 16.2387 89.4349 16.0693C89.8272 15.9027 90.2445 15.8193 90.6893 15.8193C91.3439 15.8193 91.9347 16.0124 92.4636 16.3992C92.9906 16.788 93.2557 17.3798 93.2557 18.1732C93.2557 18.6136 93.166 19.0268 92.9859 19.4144C92.807 19.802 92.5701 20.1357 92.2734 20.4194C91.9793 20.7012 91.6328 20.9252 91.2437 21.0931C90.851 21.2624 90.4352 21.3427 89.992 21.3427V21.3427Z" fill="#4D4D4D"/>
<path d="M95.8159 19.2417L100.731 18.4878L99.5243 23.3545H104.789L103.838 27.1833H98.6054L97.2116 32.9586C97.0832 33.44 97.0104 33.8896 96.99 34.3074C96.9669 34.7272 97.0206 35.0877 97.1474 35.3912C97.2735 35.6954 97.5002 35.9299 97.829 36.0958C98.1563 36.2644 98.625 36.3493 99.2397 36.3493C99.7459 36.3493 100.239 36.3016 100.716 36.2071C101.19 36.114 101.671 35.9846 102.157 35.8152L102.507 39.3951C101.873 39.6253 101.186 39.8234 100.446 39.9901C99.7048 40.1591 98.8274 40.2405 97.8134 40.2405C96.3554 40.2405 95.225 40.0261 94.4197 39.5994C93.6155 39.1695 93.047 38.5823 92.7068 37.8389C92.3713 37.0982 92.2213 36.2443 92.2632 35.2822C92.3067 34.3179 92.4535 33.3043 92.7068 32.2368L95.8159 19.2417Z" fill="#4D4D4D"/>
<path d="M104.582 33.2741C104.582 31.852 104.814 30.5109 105.279 29.2554C105.743 27.9988 106.411 26.9 107.278 25.9569C108.142 25.0185 109.195 24.2751 110.434 23.7294C111.668 23.1867 113.049 22.9131 114.57 22.9131C115.523 22.9131 116.374 23.0022 117.122 23.1809C117.874 23.3612 118.554 23.5941 119.169 23.8864L117.551 27.5298C117.128 27.3601 116.689 27.2104 116.235 27.0748C115.781 26.9364 115.227 26.8697 114.571 26.8697C113.004 26.8697 111.766 27.4042 110.844 28.4698C109.926 29.5361 109.464 30.9714 109.464 32.7718C109.464 33.8388 109.696 34.7016 110.163 35.3617C110.627 36.0218 111.485 36.3501 112.731 36.3501C113.345 36.3501 113.938 36.2866 114.507 36.1625C115.079 36.0369 115.584 35.8788 116.03 35.692L116.38 39.4269C115.786 39.6548 115.132 39.8606 114.414 40.0409C113.694 40.2149 112.837 40.3052 111.844 40.3052C110.533 40.3052 109.423 40.1153 108.515 39.7413C107.607 39.3614 106.856 38.8571 106.265 38.2184C105.671 37.578 105.244 36.8304 104.98 35.9722C104.716 35.1148 104.582 34.214 104.582 33.2741V33.2741Z" fill="#4D4D4D"/>
<path d="M125.429 40.3042C124.309 40.3042 123.336 40.1353 122.511 39.8007C121.688 39.4662 121.006 38.9969 120.467 38.3883C119.927 37.7829 119.523 37.0654 119.246 36.2387C118.969 35.4123 118.836 34.4972 118.836 33.4944C118.836 32.2367 119.04 30.9793 119.452 29.7254C119.863 28.4688 120.472 27.3397 121.277 26.3362C122.077 25.3311 123.063 24.5094 124.224 23.8687C125.384 23.2323 126.719 22.9121 128.217 22.9121C129.317 22.9121 130.285 23.0815 131.122 23.416C131.954 23.7497 132.64 24.223 133.183 24.8284C133.719 25.437 134.127 26.1513 134.401 26.9792C134.677 27.804 134.813 28.7215 134.813 29.725C134.813 30.9789 134.612 32.2363 134.212 33.4941C133.813 34.7456 133.219 35.8774 132.436 36.8833C131.655 37.8868 130.678 38.7081 129.504 39.3461C128.332 39.9841 126.972 40.3042 125.429 40.3042V40.3042ZM127.775 26.8691C127.079 26.8691 126.464 27.0692 125.937 27.4641C125.409 27.8637 124.965 28.3661 124.607 28.9719C124.245 29.5804 123.977 30.244 123.796 30.9653C123.616 31.6882 123.528 32.3716 123.528 33.0208C123.528 34.0685 123.698 34.8844 124.034 35.4716C124.374 36.0557 124.985 36.3495 125.874 36.3495C126.572 36.3495 127.184 36.1511 127.713 35.7518C128.239 35.3553 128.683 34.8526 129.044 34.2456C129.403 33.6402 129.674 32.9747 129.855 32.2522C130.032 31.5316 130.123 30.8444 130.123 30.1963C130.123 29.1514 129.953 28.3335 129.614 27.7471C129.276 27.163 128.662 26.8691 127.775 26.8691V26.8691Z" fill="#4D4D4D"/>
<path d="M139.928 39.8651H135.231L139.195 23.3543H143.922L139.928 39.8651ZM142.209 21.3427C141.554 21.3427 140.961 21.1497 140.434 20.7628C139.906 20.3783 139.64 19.7865 139.64 18.9888C139.64 18.55 139.732 18.1384 139.91 17.75C140.089 17.3624 140.328 17.0287 140.625 16.7449C140.919 16.4635 141.266 16.2387 141.655 16.0693C142.045 15.9027 142.462 15.8193 142.906 15.8193C143.562 15.8193 144.155 16.0124 144.682 16.3992C145.21 16.788 145.477 17.3798 145.477 18.1732C145.477 18.6136 145.382 19.0268 145.205 19.4144C145.028 19.802 144.789 20.1357 144.494 20.4194C144.196 20.7012 143.854 20.9252 143.464 21.0931C143.071 21.2624 142.654 21.3427 142.209 21.3427V21.3427Z" fill="#4D4D4D"/>
<path d="M147.303 24.1065C147.659 24.0034 148.057 23.8794 148.489 23.7445C148.924 23.6096 149.409 23.484 149.951 23.3708C150.487 23.2542 151.091 23.1596 151.757 23.0863C152.422 23.0115 153.18 22.9751 154.022 22.9751C156.497 22.9751 158.203 23.6887 159.145 25.1116C160.087 26.5345 160.249 28.4818 159.639 30.95L157.48 39.8649H152.756L154.848 31.1376C154.976 30.5927 155.076 30.0659 155.15 29.5512C155.225 29.0411 155.22 28.5915 155.133 28.2023C155.05 27.8178 154.853 27.5031 154.548 27.2593C154.238 27.0193 153.771 26.8988 153.136 26.8988C152.524 26.8988 151.901 26.9639 151.266 27.0895L148.19 39.8645H143.464L147.303 24.1065Z" fill="#4D4D4D"/>
</svg>
