<svg xmlns="http://www.w3.org/2000/svg" width="228" height="72" fill="none" xmlns:v="https://vecta.io/nano"><rect x=".5" y=".5" width="227" height="71" rx="15.5" stroke="#fff" stroke-opacity=".12"/><rect x="14" y="14" width="44" height="44" rx="22" fill="#f7931a"/><path d="M69.435 33V18.455h5.568c3.153 0 4.716 1.605 4.716 3.771 0 1.768-1.122 2.763-2.543 3.096v.142c1.548.078 3.111 1.371 3.111 3.572 0 2.266-1.633 3.963-4.965 3.963h-5.888zm2.635-2.202h2.834c1.91 0 2.706-.81 2.706-1.967 0-1.3-1.008-2.294-2.635-2.294H72.07v4.261zm0-6.158h2.607c1.371 0 2.408-.795 2.408-2.074 0-1.122-.803-1.939-2.351-1.939H72.07v4.013zM82.466 33V22.091h2.571V33h-2.571zm1.293-12.457c-.824 0-1.492-.625-1.492-1.392 0-.774.668-1.399 1.492-1.399.817 0 1.484.625 1.484 1.399 0 .767-.668 1.392-1.484 1.392zm9.37 1.548v1.989h-2.152v5.639c0 1.037.518 1.264 1.165 1.264.32 0 .611-.064.753-.099l.433 2.01c-.277.092-.781.234-1.513.256-1.932.057-3.423-.952-3.409-3.004V24.08h-1.548v-1.989h1.548v-2.614h2.571v2.614h2.152zm6.792 11.122c-3.26 0-5.227-2.322-5.227-5.625 0-3.331 2.017-5.639 5.213-5.639 2.664 0 4.51 1.555 4.688 3.92h-2.458c-.199-1.051-.959-1.847-2.194-1.847-1.584 0-2.642 1.321-2.642 3.523 0 2.23 1.037 3.572 2.642 3.572 1.129 0 1.974-.675 2.194-1.847h2.458c-.185 2.315-1.932 3.942-4.674 3.942zm11.543 0c-3.196 0-5.227-2.251-5.227-5.625 0-3.381 2.031-5.639 5.227-5.639s5.228 2.259 5.228 5.639c0 3.374-2.032 5.625-5.228 5.625zm.015-2.06c1.74 0 2.606-1.577 2.606-3.572s-.866-3.594-2.606-3.594c-1.769 0-2.635 1.598-2.635 3.594s.866 3.572 2.635 3.572zM118.872 33V22.091h2.571V33h-2.571zm1.292-12.457c-.823 0-1.491-.625-1.491-1.392 0-.774.668-1.399 1.491-1.399.817 0 1.485.625 1.485 1.399 0 .767-.668 1.392-1.485 1.392zm6.494 6.065V33h-2.571V22.091h2.457v1.854h.128c.497-1.215 1.619-1.996 3.253-1.996 2.251 0 3.743 1.491 3.736 4.105V33h-2.572v-6.548c0-1.456-.795-2.329-2.123-2.329-1.357 0-2.308.909-2.308 2.486z" fill="#fff"/><path d="M78.943 46.148H77.17c-.29-1.506-1.534-2.341-3.017-2.341-2.006 0-3.506 1.551-3.506 4.375 0 2.847 1.506 4.375 3.5 4.375 1.472 0 2.722-.818 3.023-2.307l1.773.006c-.381 2.301-2.25 3.903-4.807 3.903-3.023 0-5.233-2.256-5.233-5.977s2.222-5.977 5.233-5.977c2.46 0 4.409 1.455 4.807 3.943zM80.908 54v-8.727h1.642v1.386h.091c.318-.937 1.193-1.517 2.216-1.517a6.84 6.84 0 0 1 .722.04v1.625a4 4 0 0 0-.886-.102c-1.205 0-2.085.824-2.085 1.966V54h-1.699zm7.48 3.273c-.511 0-.955-.097-1.159-.187l.409-1.392c.932.256 1.54.159 1.972-1l.21-.58-3.193-8.841h1.818l2.21 6.773h.091l2.21-6.773h1.824l-3.597 9.892c-.506 1.375-1.392 2.108-2.795 2.108zm7.989 0v-12h1.659v1.415h.142c.301-.54.886-1.528 2.505-1.528 2.108 0 3.665 1.665 3.665 4.494 0 2.824-1.534 4.517-3.648 4.517-1.591 0-2.216-.972-2.522-1.528h-.102v4.631h-1.699zm1.665-7.636c0 1.835.818 3.085 2.279 3.085 1.517 0 2.312-1.335 2.312-3.085 0-1.733-.773-3.034-2.312-3.034-1.483 0-2.279 1.21-2.279 3.034zm12.284-4.364v1.364h-1.789v4.801c0 .983.494 1.165 1.045 1.165.273 0 .483-.051.597-.074l.306 1.403c-.198.074-.562.176-1.102.182-1.341.028-2.551-.739-2.545-2.324v-5.153h-1.279v-1.364h1.279v-2.091h1.699v2.091h1.789zm5.462 8.903c-2.46 0-4.068-1.801-4.068-4.5 0-2.716 1.608-4.517 4.068-4.517s4.068 1.801 4.068 4.517c0 2.699-1.608 4.5-4.068 4.5zm.006-1.426c1.596 0 2.346-1.403 2.346-3.08 0-1.67-.75-3.091-2.346-3.091-1.608 0-2.358 1.42-2.358 3.091 0 1.676.75 3.08 2.358 3.08z" fill="#8f8f8f"/><rect x="155" y="16" width="51" height="20" rx="10" fill="#5cd16c" fill-opacity=".2"/><path d="M164.422 28.534v-2.31h-2.306v-1.146h2.306v-2.305h1.146v2.305h2.31v1.146h-2.31v2.31h-1.146zm8.103 2.557v-.955c-1.756-.111-2.838-1.061-2.919-2.548h1.321c.068.844.741 1.295 1.598 1.385v-2.898l-.413-.111c-1.402-.379-2.272-1.091-2.272-2.305 0-1.385 1.138-2.344 2.685-2.489v-.989h.699v.98c1.615.107 2.718 1.082 2.757 2.403h-1.27c-.085-.716-.656-1.168-1.487-1.257v2.732l.366.094c1.108.273 2.51.882 2.51 2.455 0 1.393-1.044 2.429-2.876 2.544v.959h-.699zm.699-2.122c.929-.107 1.572-.635 1.572-1.394s-.677-1.065-1.572-1.308v2.702zm-.699-4.117v-2.535c-.852.115-1.372.614-1.372 1.266-.005.75.728 1.087 1.372 1.27zm4.846 3.443V27.23l3.771-5.957h1.624v5.906h1.155v1.117h-1.155V30h-1.257v-1.704h-4.138zm4.146-1.117V22.84h-.068l-2.697 4.27v.068h2.765zm3.706 1.117V27.23l3.771-5.957h1.624v5.906h1.154v1.117h-1.154V30h-1.258v-1.704h-4.137zm4.146-1.117V22.84h-.068l-2.698 4.27v.068h2.766zm6.769 2.94c-1.602 0-2.808-1.006-2.859-2.395h1.278c.068.75.737 1.287 1.581 1.287 1.002 0 1.73-.759 1.73-1.807 0-1.065-.75-1.841-1.785-1.849-.529 0-1.117.2-1.445.494l-1.206-.179.49-4.398h4.799V22.4h-3.704l-.277 2.442h.052c.34-.332.941-.58 1.589-.58 1.59 0 2.766 1.227 2.761 2.915.005 1.7-1.248 2.94-3.004 2.94z" fill="#44f28a"/><path d="M45.423 32.297c.448-2.995-1.832-4.604-4.949-5.678l1.011-4.056-2.469-.615-.984 3.95-1.978-.466.992-3.976-2.468-.615-1.012 4.055-1.577-.371.003-.013-3.405-.85-.657 2.637 1.793.446c1 .25 1.181.912 1.151 1.436l-1.152 4.621a2.21 2.21 0 0 1 .257.082l-.261-.064-1.615 6.474c-.122.304-.432.76-1.132.587.025.036-1.795-.448-1.795-.448L23.95 42.26l3.213.801 1.761.454-1.022 4.103 2.466.615 1.012-4.059 1.968.511-1.009 4.04 2.469.615 1.022-4.095c4.211.797 7.377.476 8.709-3.333 1.074-3.066-.053-4.835-2.269-5.988 1.614-.372 2.829-1.433 3.153-3.625l-.001-.001h0zm-5.642 7.911c-.763 3.066-5.926 1.409-7.6.993l1.356-5.436c1.674.418 7.041 1.245 6.244 4.443h0zm.764-7.956c-.696 2.789-4.993 1.372-6.387 1.025l1.229-4.93c1.394.347 5.883.996 5.158 3.905h0z" fill="#fff"/></svg>