<svg width="30" height="23" viewBox="0 0 30 23" fill="none" xmlns="http://www.w3.org/2000/svg">
<path fill-rule="evenodd" clip-rule="evenodd" d="M28.5546 19.4668V21.6542V22.8678H28.0189V22.5732C27.8491 22.7915 27.5916 22.9287 27.2414 22.9287C26.5512 22.9287 26.0101 22.3954 26.0101 21.6548C26.0101 20.9142 26.5515 20.3809 27.2414 20.3809C27.5916 20.3809 27.8491 20.5179 28.0189 20.7364V19.4668H28.5546ZM8.47456 20.4408V21.6542H8.47396V22.8678H7.93927V22.5732C7.7695 22.7915 7.51183 22.9287 7.16177 22.9287C6.47156 22.9287 5.93043 22.3954 5.93043 21.6548C5.93043 20.9142 6.47186 20.3809 7.16177 20.3809C7.51198 20.3809 7.7695 20.5179 7.93927 20.7364V20.4408H8.47456ZM6.48161 21.6542C6.48161 21.2278 6.76507 20.8775 7.22836 20.8775C7.67111 20.8775 7.96987 21.2128 7.96987 21.6542C7.96987 22.0957 7.67111 22.4309 7.22836 22.4309C6.76507 22.4309 6.48161 22.0806 6.48161 21.6542ZM29.623 22.5888C29.5759 22.5432 29.5127 22.5178 29.4467 22.5178L29.4475 22.5153C29.4137 22.5151 29.3802 22.5216 29.3491 22.5345C29.3193 22.5463 29.2922 22.5639 29.2695 22.5863C29.2468 22.6081 29.2287 22.6342 29.2164 22.663C29.1905 22.7227 29.1905 22.7902 29.2164 22.8499C29.2285 22.8794 29.2463 22.9063 29.2687 22.9292C29.2917 22.9512 29.3188 22.9687 29.3483 22.9809C29.3795 22.9938 29.413 23.0003 29.4467 23.0001C29.4801 23.0003 29.5132 22.9937 29.5439 22.9809C29.5732 22.9684 29.6 22.9509 29.623 22.9292C29.6454 22.9071 29.6634 22.8811 29.6761 22.8524C29.702 22.7927 29.702 22.7252 29.6761 22.6655C29.6637 22.6367 29.6456 22.6106 29.623 22.5888ZM29.4467 22.945C29.4721 22.9452 29.4972 22.9402 29.5204 22.9302C29.5428 22.9207 29.5631 22.9071 29.5804 22.8901C29.5977 22.8732 29.6115 22.8531 29.621 22.831C29.6407 22.7842 29.6407 22.7315 29.621 22.6847C29.6113 22.6627 29.5975 22.6426 29.5804 22.6256C29.5631 22.6086 29.5428 22.595 29.5204 22.5855C29.497 22.5761 29.472 22.5714 29.4467 22.5716C29.4211 22.5714 29.3956 22.5761 29.3717 22.5855C29.3489 22.5948 29.328 22.6084 29.3104 22.6256C29.2562 22.6804 29.2404 22.7618 29.2704 22.8325C29.2795 22.8547 29.2931 22.8748 29.3104 22.8916C29.328 22.9087 29.3489 22.9223 29.3717 22.9317C29.3954 22.9416 29.421 22.9467 29.4467 22.9464V22.945ZM29.5289 22.6633C29.5095 22.6494 29.4857 22.6426 29.4617 22.644L29.4625 22.6442H29.3575V22.8678H29.4058V22.7852H29.429L29.4971 22.8678H29.5549L29.4799 22.7836C29.4997 22.7821 29.5186 22.7744 29.5336 22.7615C29.5463 22.7496 29.5532 22.7329 29.5525 22.7156C29.5535 22.6954 29.5448 22.676 29.5289 22.6633ZM29.429 22.7852L29.4281 22.7842H29.4058V22.7852H29.4052V22.6863V22.6853H29.4633C29.4743 22.6846 29.4851 22.689 29.4945 22.6979C29.5021 22.7062 29.5066 22.7201 29.5062 22.7348C29.5066 22.7497 29.5022 22.764 29.4945 22.7726C29.485 22.7811 29.4742 22.7855 29.4633 22.7852H29.429ZM26.5611 21.6542C26.5611 21.2278 26.8446 20.8775 27.308 20.8775C27.7512 20.8775 28.0495 21.2128 28.0495 21.6542C28.0495 22.0957 27.7512 22.4309 27.308 22.4309C26.8447 22.4309 26.5611 22.0806 26.5611 21.6542ZM15.1183 20.8526C15.4632 20.8526 15.6846 21.0657 15.7411 21.441H14.4639C14.5211 21.0907 14.7369 20.8526 15.1183 20.8526ZM13.9028 21.6535C13.9028 20.8969 14.4075 20.3796 15.1289 20.3796L15.1286 20.3795C15.8176 20.3795 16.2922 20.8971 16.2976 21.6533C16.2976 21.7231 16.2924 21.7882 16.2872 21.8527L16.2869 21.8561H14.4591C14.5364 22.2929 14.8504 22.4503 15.1954 22.4503C15.4424 22.4503 15.7052 22.3591 15.9115 22.1965L16.1738 22.5874C15.8751 22.8362 15.5355 22.9274 15.1648 22.9274C14.4278 22.9274 13.9028 22.4249 13.9028 21.6535ZM21.5913 21.6533C21.5913 21.2269 21.8748 20.8767 22.3381 20.8767C22.7808 20.8767 23.0796 21.2119 23.0796 21.6533C23.0796 22.0948 22.7808 22.43 22.3381 22.43C21.8748 22.43 21.5912 22.0797 21.5912 21.6533H21.5913ZM23.5841 20.4408V21.6533L23.5843 21.6542V22.8678H23.0491V22.5732C22.8788 22.7915 22.6218 22.9287 22.2716 22.9287C21.5814 22.9287 21.0403 22.3954 21.0403 21.6548C21.0403 20.9142 21.5817 20.3809 22.2716 20.3809C22.6218 20.3809 22.8788 20.5179 23.0491 20.7364V20.4408H23.5841ZM18.5684 21.6533C18.5684 22.3892 19.0883 22.9272 19.8817 22.9272C20.2524 22.9272 20.4995 22.8459 20.7666 22.638L20.5095 22.2116C20.3085 22.3539 20.0975 22.43 19.8646 22.43C19.4373 22.4249 19.1231 22.1204 19.1231 21.6533C19.1231 21.1863 19.4373 20.882 19.8646 20.8767C20.0969 20.8767 20.3079 20.9528 20.5095 21.0951L20.7666 20.6687C20.499 20.4607 20.252 20.3795 19.8817 20.3795C19.0883 20.3795 18.5684 20.9173 18.5684 21.6533ZM24.8201 20.7349C24.9591 20.5218 25.1603 20.3795 25.4691 20.3795L25.4688 20.3799C25.5772 20.3799 25.7317 20.4002 25.8502 20.4461L25.6852 20.9433C25.5788 20.9014 25.465 20.8806 25.3504 20.8823C25.0005 20.8823 24.8255 21.1053 24.8255 21.5067V22.8665H24.2896V20.4408H24.8201V20.7349ZM11.121 20.6337C10.8635 20.4664 10.5086 20.3799 10.1172 20.3799C9.49353 20.3799 9.09203 20.6745 9.09203 21.1564C9.09203 21.552 9.39094 21.796 9.94137 21.8721L10.1942 21.9076C10.4878 21.9482 10.6263 22.0243 10.6263 22.1613C10.6263 22.3489 10.4314 22.4559 10.0653 22.4559C9.6945 22.4559 9.42694 22.3391 9.24651 22.2021L8.99499 22.6135C9.28851 22.8266 9.65926 22.9283 10.0608 22.9283C10.7717 22.9283 11.1837 22.5984 11.1837 22.1365C11.1837 21.7101 10.8594 21.4871 10.3237 21.411L10.0714 21.3749C9.83969 21.3453 9.65401 21.2994 9.65401 21.1368C9.65401 20.9594 9.82904 20.8527 10.1227 20.8527C10.4369 20.8527 10.7411 20.9695 10.8902 21.0607L11.1219 20.6343L11.121 20.6337ZM17.3794 20.7358C17.5178 20.5227 17.719 20.3803 18.0278 20.3803L18.0275 20.3799C18.1359 20.3799 18.2904 20.4002 18.4089 20.4461L18.2439 20.9433C18.1375 20.9014 18.0237 20.8806 17.9091 20.8823C17.5592 20.8823 17.3842 21.1053 17.3842 21.5067V22.8665H16.8489V20.4408H17.3794V20.7358ZM13.4599 20.4408H12.5846V19.7049H12.0435V20.4408H11.5442V20.9229H12.0435V22.0295C12.0435 22.5923 12.2652 22.9275 12.8984 22.9275C13.1307 22.9275 13.3983 22.8566 13.5681 22.74L13.4134 22.2883C13.2537 22.3795 13.0787 22.4254 12.9395 22.4254C12.6719 22.4254 12.5846 22.2629 12.5846 22.0194V20.9234H13.4599V20.4408ZM5.45708 21.3447V22.8671L4.91475 22.8659V21.5159C4.91475 21.1047 4.74032 20.8764 4.37482 20.8764C4.01951 20.8764 3.7725 21.1001 3.7725 21.5212V22.8662H3.23136V21.5162C3.23136 21.105 3.05154 20.8767 2.69608 20.8767C2.33013 20.8767 2.09316 21.1004 2.09316 21.5215V22.8665H1.55322V20.4408H2.08896V20.7407C2.29008 20.4566 2.547 20.3805 2.80992 20.3805C3.18607 20.3805 3.45363 20.5431 3.62341 20.8121C3.85034 20.4717 4.17445 20.3753 4.48866 20.3805C5.08633 20.3857 5.45708 20.7714 5.45708 21.3447Z" fill="white"/>
<path fill-rule="evenodd" clip-rule="evenodd" d="M29.7132 14.4434V14.8042H29.6472V14.5318L29.5455 14.767H29.4762L29.3745 14.5324V14.8042H29.3077V14.4434H29.402L29.5103 14.691L29.6191 14.4434H29.7132ZM29.1163 14.5052V14.8042H29.1157H29.0495V14.5052H28.9291V14.4443H29.2368V14.5052H29.1163Z" fill="#F79410"/>
<path d="M19.0562 16.3192H10.9443V1.95312H19.0564L19.0562 16.3192Z" fill="#FF5F00"/>
<path d="M11.4586 9.13654C11.4586 6.22237 12.8432 3.62642 14.9993 1.95348C13.3672 0.685279 11.3486 -0.0030164 9.27019 9.93726e-06C4.15028 9.93726e-06 0 4.09051 0 9.13654C0 14.1826 4.15028 18.2731 9.27019 18.2731C11.3487 18.2761 13.3674 17.5878 14.9995 16.3196C12.8435 14.647 11.4586 12.0509 11.4586 9.13654Z" fill="#EB001B"/>
<path d="M30 9.13654C30 14.1826 25.8497 18.2731 20.7298 18.2731C18.6511 18.2761 16.6322 17.5878 14.9998 16.3196C17.1565 14.6467 18.5411 12.0508 18.5411 9.13654C18.5411 6.22223 17.1565 3.62642 14.9998 1.95348C16.6321 0.685317 18.651 -0.00296335 20.7296 9.59065e-06C25.8496 9.59065e-06 29.9998 4.09051 29.9998 9.13654" fill="#F79E1B"/>
</svg>
