<svg width="80" height="54" viewBox="0 0 80 54" fill="none" xmlns="http://www.w3.org/2000/svg">
<g clip-path="url(#clip0_2009_13949)">
<path d="M32.9167 39.4734V23.2139C32.9167 20.2221 35.342 17.7969 38.3336 17.7969L43.1344 17.8041C46.1174 17.81 48.5325 20.2299 48.5325 23.2131V26.6739C48.5325 29.6657 46.1072 32.0909 43.1155 32.0909H36.3318" stroke="#939598" stroke-width="1.00145" stroke-miterlimit="10" stroke-linecap="round" stroke-linejoin="round"/>
<path d="M49.8738 17.7947H51.9562C53.184 17.7947 54.1792 18.79 54.1792 20.0178V32.1637" stroke="#939598" stroke-width="1.00145" stroke-miterlimit="10" stroke-linecap="round" stroke-linejoin="round"/>
<path d="M53.7335 15.9129L52.7891 14.9685C52.5547 14.7341 52.5547 14.3542 52.7891 14.1199L53.7329 13.176C53.9677 12.9413 54.3481 12.9413 54.5826 13.176L55.5264 14.1199C55.7608 14.3542 55.7608 14.7341 55.5264 14.9685L54.582 15.9129C54.3477 16.1472 53.9679 16.1472 53.7335 15.9129Z" fill="#32BCAD"/>
<path d="M58.175 17.7839H60.2403C61.3027 17.7839 62.3216 18.206 63.0728 18.9571L67.9033 23.7877C68.5289 24.4134 69.5434 24.4134 70.1692 23.7877L74.9821 18.9748C75.7333 18.2237 76.7521 17.8016 77.8146 17.8016H79.4937" stroke="#939598" stroke-width="1.00145" stroke-miterlimit="10" stroke-linecap="round" stroke-linejoin="round"/>
<path d="M58.175 32.0573H60.2403C61.3027 32.0573 62.3216 31.6352 63.0728 30.8841L67.9033 26.0536C68.5289 25.4278 69.5434 25.4278 70.1692 26.0536L74.9821 30.8664C75.7333 31.6175 76.7521 32.0396 77.8146 32.0396H79.4937" stroke="#939598" stroke-width="1.00145" stroke-miterlimit="10" stroke-linecap="round" stroke-linejoin="round"/>
<path d="M20.6039 35.1434C19.5675 35.1434 18.5926 34.7398 17.8596 34.0072L13.8971 30.0446C13.6189 29.7656 13.134 29.7665 12.8559 30.0446L8.87896 34.0217C8.146 34.7543 7.17112 35.1579 6.13465 35.1579H5.35376L10.3724 40.1764C11.9397 41.7437 14.4809 41.7437 16.0483 40.1764L21.0812 35.1434H20.6039Z" fill="#32BCAD"/>
<path d="M6.13443 21.1273C7.1709 21.1273 8.14577 21.5309 8.87873 22.2635L12.8557 26.2412C13.1421 26.5277 13.6098 26.5288 13.8969 26.2408L17.8594 22.278C18.5924 21.5454 19.5672 21.1418 20.6037 21.1418H21.081L16.0482 16.1089C14.4807 14.5415 11.9395 14.5415 10.3722 16.1089L5.35376 21.1273L6.13443 21.1273Z" fill="#32BCAD"/>
<path d="M25.2444 25.3045L22.203 22.2631C22.1361 22.2899 22.0636 22.3066 21.987 22.3066H20.6042C19.8892 22.3066 19.1894 22.5966 18.6842 23.1022L14.7219 27.0647C14.351 27.4355 13.8638 27.621 13.377 27.621C12.8898 27.621 12.4029 27.4355 12.0322 27.065L8.05483 23.0877C7.54965 22.582 6.84981 22.2922 6.13489 22.2922H4.43455C4.36202 22.2922 4.29425 22.2751 4.23027 22.251L1.17677 25.3045C-0.390631 26.8719 -0.390631 29.413 1.17677 30.9804L4.23015 34.0338C4.29425 34.0097 4.36202 33.9926 4.43455 33.9926H6.13489C6.84981 33.9926 7.54965 33.7027 8.05483 33.1972L12.0318 29.2202C12.7506 28.502 14.0037 28.5017 14.7219 29.2205L18.6842 33.1827C19.1894 33.6882 19.8892 33.9782 20.6042 33.9782H21.987C22.0636 33.9782 22.1361 33.9949 22.203 34.0218L25.2444 30.9804C26.8117 29.413 26.8117 26.8719 25.2444 25.3045Z" fill="#32BCAD"/>
<path d="M37.0445 38.0912C36.8201 38.0912 36.5588 38.1452 36.3004 38.2048V39.1955C36.4794 39.2609 36.6838 39.2924 36.8798 39.2924C37.3766 39.2924 37.6123 39.1248 37.6123 38.6872C37.6123 38.2758 37.4193 38.0912 37.0445 38.0912ZM36.1328 39.9312V37.9718H36.2692L36.2834 38.0571C36.5133 38.0031 36.8313 37.9321 37.0585 37.9321C37.2433 37.9321 37.4193 37.9603 37.5668 38.0797C37.7374 38.219 37.7913 38.4431 37.7913 38.6872C37.7913 38.9432 37.7059 39.1844 37.4731 39.3177C37.3113 39.4086 37.0927 39.4455 36.8967 39.4455C36.6951 39.4455 36.5021 39.4142 36.3004 39.3547V39.9312H36.1328Z" fill="#939598"/>
<path d="M39.0396 38.0854C38.5426 38.0854 38.3211 38.2417 38.3211 38.679C38.3211 39.102 38.5397 39.2924 39.0396 39.2924C39.5336 39.2924 39.7551 39.1389 39.7551 38.7016C39.7551 38.2786 39.5366 38.0854 39.0396 38.0854ZM39.6784 39.2924C39.5137 39.4115 39.2923 39.4456 39.0396 39.4456C38.7812 39.4456 38.5595 39.4087 38.3978 39.2924C38.216 39.1647 38.1421 38.9544 38.1421 38.6905C38.1421 38.429 38.216 38.2163 38.3978 38.0854C38.5595 37.9692 38.7812 37.9321 39.0396 37.9321C39.295 37.9321 39.5137 37.9692 39.6784 38.0854C39.8631 38.2163 39.934 38.429 39.934 38.6873C39.934 38.9516 39.8601 39.1647 39.6784 39.2924Z" fill="#939598"/>
<path d="M42.0297 39.4058L41.476 38.2162H41.4644L40.9194 39.4058H40.7689L40.1782 37.9717H40.3628L40.8541 39.1756H40.8655L41.3992 37.9717H41.5525L42.1007 39.1756H42.1121L42.592 37.9717H42.7707L42.1802 39.4058H42.0297Z" fill="#939598"/>
<path d="M43.8432 38.0825C43.3833 38.0825 43.2271 38.2869 43.1986 38.5825H44.4879C44.4737 38.2559 44.306 38.0825 43.8432 38.0825ZM43.8376 39.4455C43.562 39.4455 43.3833 39.4059 43.2413 39.2865C43.0737 39.1417 43.0168 38.9317 43.0168 38.6904C43.0168 38.4603 43.0936 38.2162 43.2839 38.0769C43.4429 37.9663 43.6388 37.9321 43.8432 37.9321C44.0279 37.9321 44.2409 37.9519 44.4168 38.0714C44.6241 38.2104 44.664 38.4548 44.664 38.7329H43.193C43.1986 39.0281 43.2952 39.2896 43.8516 39.2896C44.1159 39.2896 44.3629 39.2468 44.5929 39.2071V39.3575C44.3543 39.4003 44.0902 39.4455 43.8376 39.4455Z" fill="#939598"/>
<path d="M45.1443 39.4059V37.9718H45.2805L45.2949 38.0571C45.5987 37.9806 45.7406 37.9321 46.0076 37.9321H46.0275V38.0912H45.9877C45.7634 38.0912 45.6272 38.1223 45.312 38.2048V39.4059H45.1443Z" fill="#939598"/>
<path d="M47.0002 38.0825C46.5403 38.0825 46.3841 38.2869 46.3556 38.5825H47.6449C47.6307 38.2559 47.463 38.0825 47.0002 38.0825ZM46.9946 39.4455C46.719 39.4455 46.5403 39.4059 46.3983 39.2865C46.2306 39.1417 46.1738 38.9317 46.1738 38.6904C46.1738 38.4603 46.2506 38.2162 46.4409 38.0769C46.5998 37.9663 46.7958 37.9321 47.0002 37.9321C47.1849 37.9321 47.3978 37.9519 47.5737 38.0714C47.7811 38.2104 47.821 38.4548 47.821 38.7329H46.35C46.3556 39.0281 46.4522 39.2896 47.0086 39.2896C47.2727 39.2896 47.5197 39.2468 47.7499 39.2071V39.3575C47.5113 39.4003 47.2472 39.4455 46.9946 39.4455Z" fill="#939598"/>
<path d="M49.6561 38.1822C49.4773 38.1168 49.2729 38.0854 49.0769 38.0854C48.58 38.0854 48.3442 38.2533 48.3442 38.6904C48.3442 39.1048 48.5373 39.2865 48.912 39.2865C49.1365 39.2865 49.3977 39.2325 49.6561 39.1758V38.1822ZM49.6875 39.4059L49.6732 39.3206C49.4432 39.3746 49.1251 39.4457 48.8979 39.4457C48.7136 39.4457 48.5373 39.4202 48.3896 39.298C48.2193 39.1588 48.1653 38.9345 48.1653 38.6904C48.1653 38.4349 48.2505 38.1933 48.4833 38.0628C48.6452 37.9691 48.8638 37.9322 49.0626 37.9322C49.2615 37.9322 49.4546 37.9664 49.6561 38.0231V37.3672H49.8237V39.4059H49.6875Z" fill="#939598"/>
<path d="M52.2811 38.0911C52.0567 38.0911 51.7954 38.1451 51.537 38.2047V39.1928C51.7188 39.2609 51.9204 39.2923 52.1164 39.2923C52.6132 39.2923 52.8488 39.1247 52.8488 38.6871C52.8488 38.2757 52.6558 38.0911 52.2811 38.0911ZM52.7098 39.3176C52.5479 39.4085 52.3293 39.4455 52.1333 39.4455C51.9204 39.4455 51.7075 39.4085 51.4917 39.3376L51.4831 39.4058H51.3694V37.3669H51.537V38.0511C51.767 38.0003 52.0765 37.9321 52.2951 37.9321C52.4799 37.9321 52.6558 37.9602 52.8034 38.0796C52.9739 38.219 53.0278 38.4431 53.0278 38.6871C53.0278 38.9431 52.9425 39.1843 52.7098 39.3176Z" fill="#939598"/>
<path d="M53.2491 39.9566V39.8006C53.3313 39.8089 53.4082 39.8148 53.4621 39.8148C53.6695 39.8148 53.7942 39.755 53.9107 39.5193L53.9647 39.4058L53.2151 37.9717H53.4082L54.05 39.2097H54.0613L54.6717 37.9717H54.862L54.0556 39.5819C53.9079 39.8744 53.7489 39.9708 53.4564 39.9708C53.391 39.9708 53.3202 39.9652 53.2491 39.9566Z" fill="#939598"/>
<path d="M57.1719 38.588H56.6155V39.0908H57.1746C57.558 39.0908 57.703 39.0479 57.703 38.8379C57.703 38.6134 57.5043 38.588 57.1719 38.588ZM57.0698 37.773H56.6155V38.284H57.0726C57.4502 38.284 57.6006 38.2388 57.6006 38.0257C57.6006 37.7987 57.4105 37.773 57.0698 37.773ZM57.933 39.2696C57.7284 39.4002 57.4813 39.4058 57.0299 39.4058H56.1809V37.4607H57.0101C57.3991 37.4607 57.6376 37.4663 57.8364 37.5857C57.9785 37.6709 58.0351 37.8015 58.0351 37.9718C58.0351 38.1761 57.9501 38.3126 57.7284 38.4035V38.4147C57.9785 38.4718 58.1403 38.5995 58.1403 38.8749C58.1403 39.0622 58.0721 39.1843 57.933 39.2696Z" fill="#939598"/>
<path d="M59.8394 38.804C59.6716 38.7896 59.5014 38.7813 59.3225 38.7813C59.0301 38.7813 58.9276 38.8409 58.9276 38.9742C58.9276 39.0992 59.013 39.1674 59.2372 39.1674C59.4246 39.1674 59.649 39.1249 59.8394 39.0821V38.804ZM59.9245 39.4059L59.9131 39.3207C59.6688 39.3805 59.385 39.4457 59.135 39.4457C58.9815 39.4457 58.817 39.4257 58.7004 39.3405C58.5928 39.2639 58.5415 39.1389 58.5415 38.9941C58.5415 38.8321 58.6126 38.6817 58.7828 38.6052C58.9333 38.5342 59.135 38.5286 59.3197 38.5286C59.4701 38.5286 59.6716 38.5369 59.8393 38.5484V38.5227C59.8393 38.2985 59.6916 38.2246 59.2883 38.2246C59.1321 38.2246 58.9419 38.2329 58.7601 38.25V37.9604C58.9617 37.9437 59.189 37.9321 59.3764 37.9321C59.6262 37.9321 59.8848 37.9521 60.0437 38.0655C60.2082 38.1821 60.2397 38.344 60.2397 38.5567V39.4059L59.9245 39.4059Z" fill="#939598"/>
<path d="M62.1117 39.4059V38.6135C62.1117 38.3524 61.9784 38.2587 61.7397 38.2587C61.5638 38.2587 61.3423 38.304 61.1548 38.3496V39.4059H60.7544V37.9718H61.0809L61.0952 38.0627C61.3478 37.9975 61.6291 37.9321 61.862 37.9321C62.0379 37.9321 62.2169 37.9575 62.3531 38.0798C62.4666 38.1821 62.5093 38.3238 62.5093 38.5285V39.4059H62.1117Z" fill="#939598"/>
<path d="M63.6405 39.4455C63.4559 39.4455 63.2541 39.4201 63.1066 39.2951C62.9306 39.1531 62.8794 38.9288 62.8794 38.6872C62.8794 38.4602 62.9532 38.2131 63.1719 38.0741C63.3509 37.9575 63.5722 37.9321 63.8023 37.9321C63.967 37.9321 64.1289 37.9435 64.3077 37.9603V38.267C64.1628 38.2531 63.9896 38.2416 63.8506 38.2416C63.4699 38.2416 63.2912 38.361 63.2912 38.6904C63.2912 38.9999 63.4246 39.1332 63.7369 39.1332C63.9186 39.1332 64.1318 39.0992 64.339 39.0594V39.3546C64.1146 39.4003 63.8704 39.4455 63.6405 39.4455Z" fill="#939598"/>
<path d="M65.5212 38.2329C65.1407 38.2329 64.9731 38.3523 64.9731 38.6789C64.9731 39.0055 65.1378 39.1447 65.5212 39.1447C65.8988 39.1447 66.0634 39.0281 66.0634 38.7015C66.0634 38.375 65.9018 38.2329 65.5212 38.2329ZM66.2083 39.2951C66.0323 39.4142 65.8023 39.4455 65.5212 39.4455C65.2343 39.4455 65.0044 39.4115 64.8312 39.2951C64.6324 39.1646 64.5613 38.9488 64.5613 38.6904C64.5613 38.4317 64.6324 38.2131 64.8312 38.0825C65.0044 37.9662 65.2343 37.9321 65.5212 37.9321C65.8052 37.9321 66.0323 37.9662 66.2083 38.0825C66.4071 38.2131 66.4753 38.4317 66.4753 38.6873C66.4753 38.9459 66.4043 39.1646 66.2083 39.2951Z" fill="#939598"/>
<path d="M68.7877 39.4457C68.5465 39.4457 68.2852 39.406 68.0892 39.2441C67.8564 39.0509 67.7854 38.7528 67.7854 38.4317C67.7854 38.1452 67.8762 37.8044 68.1801 37.6057C68.4157 37.4525 68.7081 37.4211 69.0035 37.4211C69.2195 37.4211 69.4409 37.4354 69.6823 37.4552V37.8044C69.475 37.7873 69.2195 37.7731 69.0207 37.7731C68.4668 37.7731 68.2312 37.9834 68.2312 38.4317C68.2312 38.8893 68.4498 39.0937 68.8588 39.0937C69.1256 39.0937 69.4238 39.0397 69.7248 38.977V39.3234C69.4238 39.3833 69.1085 39.4457 68.7877 39.4457Z" fill="#939598"/>
<path d="M70.9014 38.1877C70.569 38.1877 70.4412 38.3071 70.4157 38.5257H71.3813C71.3698 38.2929 71.2335 38.1877 70.9014 38.1877ZM70.8416 39.4456C70.6059 39.4456 70.393 39.4174 70.2339 39.2865C70.0636 39.1447 70.0039 38.9317 70.0039 38.6873C70.0039 38.4686 70.075 38.2246 70.2738 38.0825C70.4497 37.9576 70.6742 37.9321 70.9014 37.9321C71.1058 37.9321 71.3472 37.9548 71.5231 38.0769C71.7533 38.2388 71.7731 38.4888 71.7758 38.784H70.4129C70.4213 39.0028 70.5378 39.1447 70.941 39.1447C71.1909 39.1447 71.4691 39.1078 71.705 39.0709V39.352C71.4295 39.3976 71.1285 39.4456 70.8416 39.4456Z" fill="#939598"/>
<path d="M73.5568 39.4059V38.6135C73.5568 38.3524 73.4235 38.2587 73.1848 38.2587C73.0087 38.2587 72.7874 38.304 72.5998 38.3496V39.4059H72.1995V37.9718H72.526L72.5402 38.0627C72.7928 37.9975 73.0741 37.9321 73.307 37.9321C73.4829 37.9321 73.6619 37.9575 73.7982 38.0798C73.9117 38.1821 73.9544 38.3238 73.9544 38.5285V39.4059H73.5568Z" fill="#939598"/>
<path d="M75.0931 39.4457C74.9001 39.4457 74.724 39.3917 74.6275 39.2413C74.5565 39.1389 74.5223 39.0001 74.5223 38.8068V38.27H74.2327V37.9719H74.5223L74.565 37.5374H74.9199V37.9719H75.4849V38.27H74.9199V38.7301C74.9199 38.8409 74.9284 38.9345 74.9596 39.0028C75.0022 39.0993 75.0958 39.1361 75.2208 39.1361C75.3145 39.1361 75.4282 39.1219 75.5076 39.108V39.3945C75.3771 39.4203 75.2264 39.4457 75.0931 39.4457Z" fill="#939598"/>
<path d="M75.8772 39.4059V37.9718H76.2038L76.2181 38.0627C76.4822 37.9889 76.678 37.9321 76.928 37.9321C76.9393 37.9321 76.9564 37.9321 76.9789 37.9348V38.2757C76.9335 38.273 76.8796 38.273 76.8398 38.273C76.6439 38.273 76.4963 38.2956 76.2776 38.3469V39.4059L75.8772 39.4059Z" fill="#939598"/>
<path d="M78.4343 38.804C78.2667 38.7896 78.0964 38.7813 77.9175 38.7813C77.625 38.7813 77.5226 38.8409 77.5226 38.9742C77.5226 39.0992 77.6079 39.1674 77.8322 39.1674C78.0197 39.1674 78.2439 39.1249 78.4343 39.0821V38.804ZM78.5194 39.4059L78.5082 39.3207C78.2639 39.3805 77.98 39.4457 77.73 39.4457C77.5766 39.4457 77.412 39.4257 77.2954 39.3405C77.1877 39.2639 77.1365 39.1389 77.1365 38.9941C77.1365 38.8321 77.2076 38.6817 77.3779 38.6052C77.5284 38.5342 77.73 38.5286 77.9147 38.5286C78.0652 38.5286 78.2667 38.5369 78.4343 38.5484V38.5227C78.4343 38.2985 78.2865 38.2246 77.8833 38.2246C77.7272 38.2246 77.5368 38.2329 77.3551 38.25V37.9604C77.5567 37.9437 77.784 37.9321 77.9715 37.9321C78.2213 37.9321 78.4798 37.9521 78.6387 38.0655C78.8034 38.1821 78.8347 38.344 78.8347 38.5567V39.4059L78.5194 39.4059Z" fill="#939598"/>
<path d="M79.3499 37.3672H79.7502V39.4059H79.3499V37.3672Z" fill="#939598"/>
</g>
<defs>
<clipPath id="clip0_2009_13949">
<rect width="80" height="28.3518" fill="white" transform="translate(0 13)"/>
</clipPath>
</defs>
</svg>
