<svg width="200" height="56" viewBox="0 0 200 56" fill="none" xmlns="http://www.w3.org/2000/svg">
<path d="M33.3753 43.4046C42.1978 43.4046 49.3498 36.5077 49.3498 27.9999C49.3498 19.4921 42.1978 12.5952 33.3753 12.5952C24.5529 12.5952 17.4009 19.4921 17.4009 27.9999C17.4009 36.5077 24.5529 43.4046 33.3753 43.4046Z" fill="#26A17B"/>
<path d="M35.0782 29.4217V29.4192C34.9677 29.4266 34.3975 29.4588 33.1289 29.4588C32.1144 29.4588 31.403 29.4315 31.1513 29.4192V29.4217C27.2501 29.2557 24.3403 28.6019 24.3403 27.8168C24.3403 27.0342 27.2527 26.3778 31.1513 26.2119V28.7703C31.4056 28.7876 32.1375 28.8297 33.1468 28.8297C34.359 28.8297 34.9651 28.7802 35.0782 28.7703V26.2144C38.9716 26.3828 41.8737 27.0366 41.8737 27.8193C41.8737 28.6019 38.969 29.2557 35.0782 29.4241V29.4217ZM35.0782 25.9494V23.661H40.51V20.1714H25.722V23.661H31.1539V25.9494C26.7391 26.145 23.4209 26.9871 23.4209 27.9976C23.4209 29.008 26.7416 29.8501 31.1539 30.0482V37.384H35.0807V30.0482C39.4878 29.8526 42.8008 29.0105 42.8008 28C42.8008 26.9921 39.4878 26.1475 35.0807 25.9519" fill="white"/>
<path d="M62.9192 21.1249V24.825H66.6482V27.6013H62.8936V33.2307C62.8936 34.4739 63.6048 35.0807 64.6476 35.0807C65.169 35.0807 65.7725 34.9222 66.2655 34.6845L67.1978 37.4335C66.2399 37.8026 65.4438 37.961 64.4294 37.9883C61.4965 38.0948 59.578 36.4825 59.578 33.2307V27.6013H57.0559V24.825H59.578V21.4691L62.9192 21.1249ZM127.21 24.6516L127.457 26.1574C128.499 24.5451 129.896 24.3073 131.268 24.3073C132.665 24.3073 134.008 24.8349 134.748 25.5481L133.24 28.3492C132.554 27.7944 131.925 27.5022 130.828 27.5022C129.074 27.5022 127.457 28.4012 127.457 30.806V37.6787H124.112V24.6466L127.21 24.6516ZM119.015 29.647C118.796 27.9554 117.425 27.1084 115.506 27.1084C113.698 27.1084 112.217 27.9554 111.723 29.647H119.015ZM111.669 32.3168C111.888 33.9291 113.342 35.0931 115.699 35.0931C116.932 35.0931 118.55 34.6423 119.318 33.8771L121.454 35.9129C120.029 37.3394 117.7 38.0279 115.642 38.0279C110.984 38.0279 108.213 35.2516 108.213 31.076C108.213 27.1109 111.01 24.2553 115.396 24.2553C119.919 24.2553 122.744 26.9524 122.222 32.3168H111.669ZM96.9227 19.1782V26.4199C98.1297 24.9141 99.6089 24.4634 101.145 24.4634C104.982 24.4634 106.682 26.9747 106.682 30.8085V37.6812H103.338V30.8358C103.338 28.4557 102.049 27.4527 100.266 27.4527C98.2914 27.4527 96.9227 29.065 96.9227 31.0215V37.6837H93.5789V19.1807L96.9227 19.1782ZM88.0415 20.9763V24.6764H91.7709V27.4527H88.016V33.0821C88.016 34.3253 88.73 34.9321 89.77 34.9321C90.2914 34.9321 90.8949 34.7736 91.3882 34.5359L92.3204 37.2849C91.3623 37.6539 90.5661 37.8124 89.5518 37.8397C86.6188 37.9462 84.7003 36.3314 84.7003 33.0821V27.4527H82.1783V24.6764H84.7003V21.3205L88.0415 20.9763ZM78.8038 29.647C78.5853 27.9554 77.2141 27.1084 75.2955 27.1084C73.4875 27.1084 72.0057 27.9554 71.5125 29.647H78.8038ZM71.4585 32.3168C71.677 33.9291 73.1303 35.0931 75.4882 35.0931C76.7208 35.0931 78.339 34.6423 79.1067 33.8771L81.2435 35.9129C79.8182 37.3394 77.4888 38.0279 75.4316 38.0279C70.7703 38.0279 68.0016 35.2516 68.0016 31.076C68.0016 27.1109 70.7984 24.2553 75.1824 24.2553C79.7051 24.2553 82.5278 26.9524 82.0089 32.3168H71.4585Z" fill="#5B5A5D"/>
<path d="M179.219 17.1846L156.869 13.2114L168.629 41.8007L185.018 22.5134L179.219 17.1846ZM178.858 18.9372L182.278 22.0753L172.925 23.7117L178.858 18.9372ZM170.895 23.3822L161.039 15.4864L177.148 18.3492L170.895 23.3822ZM170.193 24.7808L168.586 37.6141L159.92 16.5499L170.193 24.7808ZM171.68 25.4605L182.035 23.6499L170.159 37.6291L171.68 25.4605Z" fill="#EB0029"/>
<g opacity="0.4">
<path d="M150.439 26.5018C150.283 26.3516 150.032 26.3516 149.876 26.5018L147.923 28.3811L145.97 26.4979C145.815 26.3477 145.563 26.3477 145.407 26.4979C145.252 26.6481 145.252 26.8907 145.407 27.0409L147.36 28.9241L145.407 30.8074C145.252 30.9576 145.252 31.2002 145.407 31.3504C145.563 31.5006 145.815 31.5006 145.97 31.3504L147.923 29.4672L149.876 31.3504C150.032 31.5006 150.283 31.5006 150.439 31.3504C150.595 31.2002 150.595 30.9576 150.439 30.8074L148.486 28.9241L150.439 27.0409C150.591 26.8946 150.591 26.6481 150.439 26.5018Z" fill="black"/>
</g>
</svg>
