<svg width="200" height="56" viewBox="0 0 200 56" fill="none" xmlns="http://www.w3.org/2000/svg">
<path d="M39.7652 43.4046C48.6178 43.4046 55.7397 36.5367 55.7397 27.9999C55.7397 19.4631 48.6178 12.5952 39.7652 12.5952C30.9126 12.5952 23.7908 19.4631 23.7908 27.9999C23.7908 36.5367 30.9126 43.4046 39.7652 43.4046Z" fill="#2775CA"/>
<path d="M44.1583 30.4388C44.1583 28.1924 42.7605 27.4221 39.965 27.1012C37.9682 26.8445 37.5688 26.331 37.5688 25.4323C37.5688 24.5336 38.2345 23.9561 39.5656 23.9561C40.7637 23.9561 41.4294 24.3412 41.7621 25.304C41.8287 25.4965 42.0284 25.6249 42.2281 25.6249H43.2929C43.5592 25.6249 43.7589 25.4323 43.7589 25.1757V25.1114C43.4926 23.6993 42.2945 22.6082 40.7637 22.4798V20.9394C40.7637 20.6826 40.564 20.49 40.2313 20.4258H39.2329C38.9666 20.4258 38.7669 20.6183 38.7003 20.9394V22.4156C36.7035 22.6724 35.4389 23.9561 35.4389 25.5608C35.4389 27.6789 36.7701 28.5132 39.5656 28.8343C41.4294 29.1552 42.0284 29.5403 42.0284 30.5673C42.0284 31.5943 41.0964 32.3003 39.8319 32.3003C38.1012 32.3003 37.5022 31.5942 37.3025 30.6314C37.2361 30.3747 37.0364 30.2463 36.8367 30.2463H35.7051C35.4389 30.2463 35.2393 30.4388 35.2393 30.6956V30.7599C35.5054 32.3644 36.5704 33.5198 38.7669 33.8408V35.3813C38.7669 35.6379 38.9666 35.8305 39.2993 35.8947H40.2977C40.564 35.8947 40.7637 35.7021 40.8303 35.3813V33.8408C42.8271 33.5198 44.1583 32.1719 44.1583 30.4388Z" fill="white"/>
<path d="M36.3707 37.1786C31.179 35.3815 28.5166 29.7972 30.4469 24.8548C31.4453 22.159 33.6418 20.1051 36.3707 19.1423C36.637 19.014 36.7701 18.8214 36.7701 18.5004V17.6018C36.7701 17.345 36.637 17.1525 36.3707 17.0884C36.3041 17.0884 36.1711 17.0884 36.1044 17.1525C29.7813 19.078 26.3201 25.561 28.3169 31.6586C29.515 35.253 32.3771 38.0131 36.1044 39.1684C36.3707 39.2967 36.637 39.1684 36.7035 38.9116C36.7701 38.8475 36.7701 38.7833 36.7701 38.655V37.7563C36.7701 37.5637 36.5704 37.3071 36.3707 37.1786ZM43.4262 17.1525C43.1599 17.0241 42.8936 17.1525 42.8271 17.4093C42.7605 17.4735 42.7605 17.5376 42.7605 17.6661V18.5646C42.7605 18.8214 42.9602 19.078 43.1599 19.2065C48.3516 21.0036 51.014 26.5878 49.0837 31.5303C48.0853 34.2261 45.8888 36.28 43.1599 37.2428C42.8936 37.3711 42.7605 37.5637 42.7605 37.8847V38.7833C42.7605 39.0401 42.8936 39.2326 43.1599 39.2967C43.2265 39.2967 43.3596 39.2967 43.4262 39.2326C49.7493 37.3071 53.2105 30.8241 51.2137 24.7265C50.0156 21.0679 47.0869 18.3078 43.4262 17.1525Z" fill="white"/>
<path d="M73.891 22.4609V31.2258C73.6686 32.7001 72.1954 33.8526 70.4165 33.8526C68.6376 33.8526 67.3868 32.5124 67.3868 30.6361V22.4609H64.1069V31.2794C64.1069 34.4155 66.3028 36.6403 69.4437 36.6403C71.3338 36.6403 73.0015 35.7557 73.891 34.4691V36.3186H77.282V22.4609H73.891ZM86.328 36.6403C89.6913 36.6403 91.9705 34.9248 91.9705 32.2712C91.9705 29.3763 89.3577 28.5722 86.9395 27.9289C84.7437 27.3124 83.9932 27.0444 83.9932 26.1598C83.9932 25.3825 84.9105 24.9269 86.1057 24.9269C87.3565 24.9269 88.8296 25.3557 90.1916 26.1867L91.6092 23.8011C90.0526 22.8093 88.0791 22.1392 86.1057 22.1392C82.9092 22.1392 80.6855 23.9083 80.6855 26.5083C80.7133 28.9743 82.6868 29.832 85.7999 30.6093C87.4398 31.0382 88.6906 31.3867 88.6906 32.4588C88.6906 33.3166 87.7456 33.8794 86.3836 33.8794C84.5769 33.8794 82.9648 33.2361 81.575 32.2712L80.0462 34.5496C81.7696 35.8898 84.1322 36.6403 86.328 36.6403ZM105.84 17.5825V24.6052C104.701 23.0506 102.978 22.1392 100.865 22.1392C97.0571 22.1392 94.2775 25.1413 94.2775 29.3763C94.2775 33.6382 97.0571 36.6403 100.865 36.6403C102.978 36.6403 104.701 35.7289 105.84 34.1743V36.3186H109.232V17.5825H105.84ZM101.782 33.8526C99.3641 33.8526 97.6408 31.9764 97.6408 29.3763C97.6408 26.7763 99.3641 24.9269 101.782 24.9269C104.173 24.9269 105.84 26.7763 105.84 29.3763C105.84 31.9764 104.173 33.8526 101.782 33.8526ZM119.97 36.6403C122.249 36.6403 124.167 35.7289 125.557 34.3083L123.278 32.4052C122.472 33.2898 121.249 33.8526 119.998 33.8526C117.635 33.8526 115.662 31.8155 115.662 29.3763C115.662 26.964 117.635 24.9269 119.998 24.9269C121.221 24.9269 122.416 25.4897 123.194 26.3207L125.474 24.3908C124.112 23.0238 122.194 22.1392 120.026 22.1392C115.829 22.1392 112.299 25.4361 112.299 29.3763C112.299 33.3166 115.829 36.6403 119.97 36.6403Z" fill="#5B5A5D"/>
<path d="M170.593 17.1846L148.243 13.2114L160.003 41.8007L176.392 22.5134L170.593 17.1846ZM170.232 18.9372L173.652 22.0753L164.299 23.7117L170.232 18.9372ZM162.269 23.3822L152.413 15.4864L168.522 18.3492L162.269 23.3822ZM161.568 24.7808L159.96 37.6141L151.294 16.5499L161.568 24.7808ZM163.054 25.4605L173.409 23.6499L161.533 37.6291L163.054 25.4605Z" fill="#EB0029"/>
<g opacity="0.4">
<path d="M141.813 26.5018C141.658 26.3516 141.406 26.3516 141.25 26.5018L139.297 28.3811L137.345 26.4979C137.189 26.3477 136.937 26.3477 136.781 26.4979C136.626 26.6481 136.626 26.8907 136.781 27.0409L138.734 28.9241L136.781 30.8074C136.626 30.9576 136.626 31.2002 136.781 31.3504C136.937 31.5006 137.189 31.5006 137.345 31.3504L139.297 29.4672L141.25 31.3504C141.406 31.5006 141.658 31.5006 141.813 31.3504C141.969 31.2002 141.969 30.9576 141.813 30.8074L139.86 28.9241L141.813 27.0409C141.965 26.8946 141.965 26.6481 141.813 26.5018Z" fill="#5B5A5D"/>
</g>
</svg>
