<svg width="200" height="56" viewBox="0 0 200 56" fill="none" xmlns="http://www.w3.org/2000/svg">
<path fill-rule="evenodd" clip-rule="evenodd" d="M149.237 11.707C151.821 11.707 154.268 12.3032 156.448 13.3603C156.79 13.5209 157.131 13.698 157.473 13.8938L155.959 15.2358L153.682 12.906L149.841 16.2984L147.559 13.8333L140.403 20.2188L144.99 25.2238L143.188 26.7946L147.707 31.8073L145.913 33.3737L152.371 40.4907L156.204 36.996L159.518 40.7404C158.859 41.2464 158.141 41.7249 157.351 42.166C154.88 43.563 152.082 44.2964 149.237 44.2934C140.172 44.2934 132.779 36.9729 132.779 28.0002C132.779 19.0264 140.172 11.707 149.237 11.707" fill="#1D70BF"/>
<path fill-rule="evenodd" clip-rule="evenodd" d="M146.237 26.9708L150.15 23.4816L153.674 27.3569L149.761 30.845L146.237 26.9708ZM149.02 33.6654L152.933 30.1784L156.458 34.0515L152.544 37.5407L149.02 33.6654M143.437 20.3554L147.351 16.8662L150.873 20.7404L146.96 24.2285L143.438 20.3543M150.618 18.4766L153.553 15.8608L156.195 18.767L153.261 21.3839L150.618 18.4766M155.833 30.4611L158.77 27.8431L161.412 30.7504L158.477 33.3662L155.833 30.4611M158.415 36.3296L161.349 33.7127L163.993 36.6189L161.058 39.2347L158.415 36.3307M159.598 22.8777L161.553 21.1342L163.315 23.0702L161.36 24.8148L159.598 22.8788M157.098 17.1214L159.054 15.3779L160.817 17.315L158.859 19.0596L157.098 17.1225M162.1 28.6329L164.055 26.8894L165.818 28.8254L163.862 30.57L162.099 28.634M153.323 24.3209L156.259 21.7029L158.901 24.6091L155.968 27.226L153.323 24.3209" fill="#1D70BF"/>
<path d="M41.8621 25.1918H41.731L39.2521 34.4681H37.2244L34.1821 21.2879H36.2855L38.3888 31.1219H38.5199L40.961 21.2879H42.6321L45.2432 31.1219H45.3732L47.2888 21.2879H49.4855L46.4444 34.4681H44.4166L41.8632 25.1918M57.8066 32.4221V33.8356C56.9621 34.3196 55.8355 34.6914 54.4832 34.6914C51.3288 34.6914 50.0332 32.7587 50.0332 29.8206C50.0332 26.9947 51.4788 24.9498 54.2955 24.9498C56.6421 24.9498 58.0888 26.4568 58.0888 29.4862V30.1737H51.9666C51.9666 32.4045 52.8877 33.3901 54.8221 33.3901C55.8355 33.3901 56.7744 33.037 57.8066 32.4221V32.4221ZM52.0055 28.9285H56.3044C56.211 26.976 55.2532 26.1961 54.2388 26.1961C53.0944 26.1961 52.211 27.0695 52.0055 28.9285ZM61.7488 25.6384C62.3121 25.3414 63.271 24.9498 64.2844 24.9498C66.6121 24.9498 67.8699 26.5492 67.8699 29.5236C67.8699 32.9996 66.181 34.6914 63.4588 34.6914C62.4632 34.6914 60.9232 34.3757 59.7966 33.7795V20.8061L61.7488 20.3408V25.6395V25.6384ZM61.731 33.092C62.331 33.3527 62.9888 33.389 63.4588 33.389C64.8477 33.389 65.8999 32.5343 65.8999 29.5236C65.8999 27.163 65.0355 26.3996 63.7777 26.3996C63.0266 26.3996 62.4821 26.6053 61.731 27.0134V33.092M76.4144 31.6796H76.5088L80.5266 21.2879H82.8555V34.4681H80.8277V24.9135H80.6577L76.8277 34.4681H75.6255L71.7944 25.1368H71.6266V34.4681H69.9366V21.2879H72.2088L76.4144 31.6796ZM84.9199 29.8206C84.9199 26.5668 86.7232 24.9498 89.201 24.9498C91.681 24.9498 93.4832 26.5668 93.4832 29.8206C93.4832 32.9996 91.7744 34.6914 89.201 34.6914C86.6288 34.6914 84.9199 32.9996 84.9199 29.8206ZM91.511 29.8206C91.511 27.3115 90.4777 26.2522 89.201 26.2522C87.9621 26.2522 86.8921 27.3115 86.8921 29.8206C86.8921 32.3682 87.8688 33.3901 89.201 33.3901C90.5344 33.3901 91.5121 32.3671 91.5121 29.8206M95.2666 26.3259C96.111 25.8243 97.8955 24.9509 100.055 24.9509C102.309 24.9509 103.153 25.8243 103.153 27.7383V34.4681H101.2V28.1662C101.2 26.6977 100.469 26.437 99.511 26.437C98.7599 26.437 97.8021 26.7725 97.2199 27.1069V34.4681H95.2666V26.3259ZM112.672 32.4221V33.8356C111.828 34.3196 110.702 34.6914 109.35 34.6914C106.194 34.6914 104.899 32.7587 104.899 29.8206C104.899 26.9947 106.345 24.9498 109.162 24.9498C111.51 24.9498 112.955 26.4568 112.955 29.4862V30.1737H106.834C106.834 32.4045 107.754 33.3901 109.688 33.3901C110.702 33.3901 111.641 33.037 112.672 32.4221V32.4221ZM106.872 28.9285H111.171C111.078 26.976 110.119 26.1961 109.105 26.1961C107.96 26.1961 107.078 27.0695 106.872 28.9285ZM120.26 25.2666H122.269L118.87 34.5616C117.931 37.1268 116.785 38.4644 114.627 38.4644V36.9409C115.904 36.9409 116.691 35.9366 117.143 34.5605L113.537 25.2655H115.603L118.007 32.1075H118.118L120.26 25.2655" fill="#1D70BF"/>
</svg>
