<svg width="200" height="56" viewBox="0 0 200 56" fill="none" xmlns="http://www.w3.org/2000/svg">
<path d="M145.857 28.2584H135.399V23.4184H144.597V20.1173H135.399V16.1914H145.412V12.8881H131.531V31.5727H145.857V28.2584ZM95.6267 42.6948V42.9258H93.55C93.4256 42.5078 93.3534 42.0513 93.3534 41.1328C93.3534 39.9173 93.2756 39.4498 91.8867 39.4498H89.95V42.9258H88.1078V34.0356H92.6511C95.04 34.0356 95.4756 35.7857 95.4756 36.5491C95.4756 37.5303 94.9756 38.3685 94.0867 38.6699C94.8256 38.9878 95.2267 39.2584 95.2267 40.9205C95.2289 42.2262 95.2289 42.5474 95.6267 42.6948ZM93.6 36.7372C93.6 36.2664 93.3856 35.5734 92.2878 35.5734H89.95V37.9571H92.1478C93.1256 37.9571 93.6 37.6183 93.6 36.7361V36.7372ZM101.567 34.0378L104.73 42.928H102.689L102.111 41.0954H98.8L98.1756 42.928H96.1978L99.3989 34.0378H101.567ZM101.591 39.5642L100.471 36.0486H100.457L99.3034 39.5642H101.591ZM79.6856 35.6119H82.3989V42.9269H84.27V35.6119H86.9878V34.0367H79.6834L79.6856 35.6119V35.6119ZM108.863 12.876H104.922V31.5606H108.863V12.876ZM90.8189 16.9944C91.4467 20.5815 91.7934 22.4064 93.7378 31.5694H97.5211L102.834 12.8848H98.8367C96.3878 23.1588 96.0756 24.7758 95.76 26.5468H95.7078C95.29 24.1301 95.1011 23.1401 92.8967 12.8848H88.7167C86.7167 22.6935 86.43 24.5932 86.0878 26.5468H86.0356C85.6945 24.4139 85.4534 23.1115 83.0356 12.8848H78.8345L84.1689 31.5694H87.85C89.8756 21.94 90.1867 20.5859 90.7689 16.9944H90.8189ZM123.559 27.7931C123.559 25.2389 123.401 24.2489 120.487 24.2489H116.414V31.5672H112.546V12.8837H122.084C127.107 12.8837 128.029 16.5489 128.029 18.1648C128.029 20.2163 126.979 21.9906 125.11 22.6121C126.662 23.2886 127.499 23.865 127.499 27.3531C127.499 30.0844 127.499 30.7631 128.343 31.0744V31.5694H123.983C123.719 30.6795 123.559 29.7137 123.559 27.7942V27.7931ZM124.087 18.552C124.087 17.562 123.642 16.1056 121.324 16.1056H116.414V21.1062H121.033C123.087 21.104 124.087 20.4 124.087 18.552ZM123.333 42.9324H125.209V39.1924H129.159V37.6161H125.209V35.6119H129.72V34.0345H123.331L123.333 42.9335V42.9324ZM132.822 39.0549H137.198V37.4797H132.821V35.6097H137.588V34.0356H130.983V42.9258H137.8V41.3517H132.822V39.0549ZM111.419 40.233H111.397L107.828 34.04H105.856V42.9302H107.603V36.592H107.63L111.293 42.9302H113.172V34.04H111.42L111.419 40.233ZM119.541 37.868L117.358 37.3345C116.981 37.2509 116.402 37.1013 116.402 36.4072C116.402 35.5998 117.259 35.3424 117.966 35.3424C119.607 35.3424 119.751 36.2884 119.81 36.6789H121.602C121.59 35.591 120.854 33.8057 118.099 33.8057C115.188 33.8057 114.653 35.5569 114.653 36.5469C114.653 38.5027 116.051 38.8239 117.504 39.1572L118.462 39.3816C119.419 39.6071 120.091 39.7886 120.091 40.4816C120.091 41.4276 119.099 41.6333 118.218 41.6333C116.577 41.6333 116.324 40.6906 116.311 40.1989H114.522C114.522 41.2989 115.082 43.1689 118.36 43.1689C119.143 43.1689 121.898 42.9324 121.898 40.2594C121.898 38.6633 120.773 38.165 119.542 37.868H119.541ZM146.848 42.6948V42.9258H144.776C144.651 42.5078 144.579 42.0513 144.579 41.1328C144.579 39.9173 144.498 39.4498 143.112 39.4498H141.177V42.9258H139.333V34.0356H143.872C146.261 34.0356 146.701 35.7857 146.701 36.5491C146.701 37.5303 146.198 38.3685 145.308 38.6699C146.042 38.9878 146.448 39.2584 146.448 40.9205C146.45 42.2262 146.45 42.5474 146.848 42.6948V42.6948ZM144.826 36.7372C144.826 36.2664 144.611 35.5734 143.509 35.5734H141.176V37.9571H143.373C144.351 37.9571 144.826 37.6183 144.826 36.7361V36.7372Z" fill="white"/>
<path d="M53.191 32.4254L53.1566 31.2946C53.1288 30.8535 53.2444 30.3706 53.2922 29.8272C53.3477 29.2816 53.4233 28.6898 53.6299 28.0881C53.8077 27.4798 53.9588 26.8121 54.2966 26.1884C54.4455 25.8683 54.5966 25.5394 54.7544 25.2094C54.921 24.8827 55.1488 24.5879 55.3488 24.2689C55.7388 23.6144 56.2455 23.0402 56.7622 22.4638C57.2633 21.8621 57.881 21.4012 58.4466 20.8732C59.0644 20.4398 59.6533 19.9382 60.2855 19.5862C60.8777 19.2098 61.4917 18.8683 62.1244 18.5632C62.7188 18.2442 63.3099 18.0275 63.8499 17.791C64.5671 17.5112 65.2959 17.2616 66.0344 17.043C65.7707 16.4088 65.5575 15.7553 65.3966 15.0883C65.2299 14.3788 65.0833 13.655 65.0677 12.8311C65.8677 13.0533 66.5422 13.3745 67.1933 13.7122C67.8217 14.0429 68.4228 14.4221 68.991 14.8463C70.1066 15.6625 71.061 16.6074 71.9266 17.6172C72.5822 18.3817 72.6399 19.4509 72.151 20.2682L72.051 20.431C71.2545 21.7613 70.2851 22.9824 69.1677 24.0632C68.5999 24.6132 67.9766 25.1269 67.2844 25.5988C66.9344 25.8298 66.5677 26.0542 66.1922 26.2698C65.8033 26.4799 65.3955 26.6746 64.9477 26.844C64.9166 26.3699 64.9233 25.92 64.9577 25.4844C65.001 25.0565 65.0577 24.6352 65.1233 24.2216C65.2733 23.4043 65.4833 22.6288 65.7544 21.8907C65.7877 21.8126 65.8166 21.7367 65.8477 21.6597C65.5866 21.6916 65.3077 21.7268 65.0077 21.7697C64.5388 21.8687 64.0055 21.9347 63.4733 22.0898C62.9255 22.213 62.3655 22.3857 61.7955 22.5903C61.1999 22.7619 60.6666 23.0633 60.0622 23.3042C59.5288 23.6298 58.9133 23.8982 58.4088 24.2942C57.8799 24.6715 57.3455 25.0554 56.9099 25.5273C56.6866 25.7561 56.4299 25.964 56.2288 26.2093L55.6566 26.9562C55.2377 27.4336 54.9833 27.9825 54.701 28.494C54.3899 28.9945 54.2033 29.5148 54.041 30.0065C53.8877 30.4949 53.671 30.9382 53.6055 31.3562C53.5266 31.7753 53.4555 32.1383 53.3988 32.4386L53.2177 33.3967C53.2177 33.3967 53.211 33.0447 53.191 32.4254V32.4254ZM70.6177 30.7633C70.1288 31.1758 69.5122 31.4607 68.9955 31.8017C68.3988 32.0591 67.8744 32.3759 67.2855 32.5662C66.7244 32.7884 66.1699 32.9776 65.6244 33.1162C65.0966 33.2867 64.5688 33.3681 64.1022 33.4803C63.8033 33.5331 63.5277 33.5782 63.2644 33.6167C63.291 33.5364 63.3233 33.4627 63.351 33.3813C63.601 32.6344 63.7888 31.8545 63.9122 31.0339C63.9654 30.613 64.0069 30.1908 64.0366 29.7678C64.0607 29.3152 64.0507 28.8615 64.0066 28.4104C63.584 28.5856 63.1738 28.7888 62.7788 29.0187C62.411 29.2453 62.0566 29.4807 61.7099 29.7249C61.0543 30.2017 60.441 30.7331 59.8766 31.3133C58.791 32.4244 57.8595 33.6736 57.1066 35.028L57.0099 35.193C56.7765 35.6106 56.6804 36.0899 56.7352 36.5641C56.79 37.0383 56.9928 37.4838 57.3155 37.8385C58.2099 38.8219 59.1922 39.7371 60.3322 40.5203C60.8988 40.9141 61.5044 41.2771 62.1644 41.5983C62.8244 41.9173 63.5044 42.2209 64.3133 42.4156C64.2722 41.5939 64.1033 40.8723 63.9177 40.1705C63.7382 39.508 63.506 38.8606 63.2233 38.2345C63.9546 37.9948 64.6752 37.7243 65.3833 37.4238C65.9155 37.1708 66.4988 36.9365 67.0844 36.5999C67.7073 36.2765 68.3106 35.9173 68.891 35.5241C69.5133 35.1545 70.0855 34.6342 70.6944 34.1821C71.241 33.6387 71.8444 33.1591 72.3277 32.5442C72.8288 31.9535 73.3144 31.3628 73.6866 30.6984C73.8755 30.3739 74.0933 30.0725 74.2522 29.7403C74.3966 29.4037 74.541 29.0737 74.6788 28.7459C74.9955 28.1156 75.1299 27.4424 75.2888 26.8286C75.4766 26.2214 75.5377 25.6263 75.5744 25.0796C75.6099 24.5351 75.7055 24.0489 75.6688 23.6089C75.6377 23.1744 75.6222 22.7927 75.5999 22.4803C75.581 22.1572 75.5614 21.8341 75.541 21.5112C75.541 21.5112 75.4877 21.8599 75.3855 22.4726C75.3433 22.774 75.2799 23.1403 75.211 23.5616C75.161 23.9807 74.9555 24.4295 74.8166 24.9234C74.6722 25.4184 74.4966 25.9431 74.2066 26.4546C73.9399 26.9727 73.7022 27.5293 73.2977 28.0177C73.1188 28.2685 72.9344 28.5237 72.7522 28.7833C72.5566 29.033 72.3055 29.2486 72.0855 29.484C71.6599 29.9724 71.1366 30.3706 70.6188 30.7633H70.6177Z" fill="#FF7700"/>
</svg>
