<svg xmlns="http://www.w3.org/2000/svg" width="20" height="20" fill="none" xmlns:v="https://vecta.io/nano"><g clip-path="url(#A)"><path d="M0 5L10 3.75L20 5V15L10 16.25L0 15V5Z" fill="#ffda44"/><path d="M0 0h20v5H0V0zm0 15h20v5H0v-5z" fill="#d80027"/><g fill="#eee"><path d="M5.625 11.875H5V8.75h.625v3.125zm5 0h.625V8.75h-.625v3.125zm-2.5.938c1.036 0 1.875-.56 1.875-1.25s-.839-1.25-1.875-1.25-1.875.56-1.875 1.25.839 1.25 1.875 1.25z"/></g><g fill="#d80027"><path d="M5.625 7.813c0-.173-.14-.312-.312-.312S5 7.64 5 7.813v.313c0 .173.14.313.313.313s.313-.14.313-.312v-.312zm5.625 0c0-.173-.14-.312-.312-.312s-.312.14-.312.313v.313c0 .173.14.313.313.313s.313-.14.313-.312v-.312zm-3.125 2.812v.938a.94.94 0 0 0 .938.938.94.94 0 0 0 .938-.937v-.937h-.937-.937z"/></g><g fill="#ff9811"><use href="#B"/><use href="#C"/><path d="M5.625 11.875H5c-.173 0-.312.14-.312.313s.14.313.313.313h.625c.173 0 .313-.14.313-.312s-.14-.312-.312-.312zm5.625 0h-.625c-.173 0-.312.14-.312.313s.14.313.313.313h.625c.173 0 .313-.14.313-.312s-.14-.312-.312-.312zm-5-1.25v.938c0 .313.156.547.352.742l.195-.234.195.391a.82.82 0 0 0 .391 0l.195-.391.195.234c.234-.195.352-.43.352-.742v-.937h-.352l-.195.313-.195-.312h-.391l-.195.313-.195-.312H6.25z"/></g><path d="M4.766 9.844h6.719-6.719zm0 .937h1.094-1.094zm5.625 0h1.094z" fill="#000"/><path d="M4.766 9.688c-.041 0-.081.016-.11.046s-.046.069-.046.11.016.081.046.11.069.046.11.046h6.719c.041 0 .081-.016.111-.046s.046-.069.046-.11-.016-.081-.046-.11-.069-.046-.111-.046H4.766zm0 .938c-.041 0-.081.017-.11.046s-.046.069-.046.11.016.081.046.111.069.046.11.046h1.094c.041 0 .081-.017.11-.046s.046-.069.046-.111-.016-.081-.046-.11-.069-.046-.11-.046H4.766zm5.625 0c-.041 0-.081.017-.111.046s-.046.069-.046.11.016.081.046.111.069.046.111.046h1.094c.041 0 .081-.017.111-.046s.046-.069.046-.111-.016-.081-.046-.11-.069-.046-.111-.046h-1.094z" fill="#d80027"/><path d="M7.656 6.563c-.273 0-.508.195-.586.43l-.195-.039c-.352 0-.625.273-.625.625s.273.625.625.625c.273 0 .508-.156.586-.43.114.041.237.048.355.02s.225-.089.309-.177c.084.088.191.149.309.177s.241.021.355-.02c.038.118.11.223.208.3s.216.123.34.133.248-.018.356-.079.196-.153.251-.264.077-.236.061-.359-.068-.239-.15-.332-.19-.16-.31-.192-.247-.027-.364.014c-.038-.101-.101-.191-.184-.261s-.182-.116-.288-.136-.216-.011-.318.024-.193.096-.265.178c-.117-.156-.273-.234-.469-.234zm0 .313c.195 0 .313.156.313.313 0 .195-.117.313-.312.313-.156 0-.312-.117-.312-.312 0-.156.156-.312.313-.312zm.938 0c.195 0 .313.156.313.313 0 .195-.117.313-.312.313-.156 0-.312-.117-.312-.312 0-.156.156-.312.313-.312zm-1.719.391l.156.039.156.313c0 .156-.156.273-.312.273s-.312-.117-.312-.312c0-.156.156-.312.313-.312zm2.5 0c.195 0 .313.156.313.313 0 .195-.117.313-.312.313-.156 0-.312-.117-.312-.273l.156-.312.156-.039z" fill="#eee"/><path d="M7.813 6.25h.625V7.5h-.625V6.25z" fill="#ff9811"/><path d="M8.125 8.75H10v1.875H8.125V8.75z" fill="#eee"/><g fill="#d80027"><path d="M9.688 8.125l-.312.313h-2.5l-.312-.312c0-.508.703-.937 1.563-.937s1.563.43 1.563.938zM6.25 8.75h1.875v1.875H6.25V8.75zm3.203.703a.391.391 0 1 0-.781 0v.469a.391.391 0 1 0 .781 0v-.469z"/></g><path d="M6.563 9.063v.313h.313V10h-.312v.313h1.25V10H7.5v-.625h.313v-.312h-1.25zm.313-.625h2.5v.313h-2.5v-.312z" fill="#ff9811"/><g fill="#ffda44"><use href="#D"/><path d="M8.125 8.125c.129 0 .234-.105.234-.234s-.105-.234-.234-.234-.234.105-.234.234.105.234.234.234zm.859 0c.129 0 .234-.105.234-.234s-.105-.234-.234-.234-.234.105-.234.234.105.234.234.234z"/></g><path d="M6.602 10.625v1.68c.117.081.25.134.391.156v-1.836h-.391zm.781 0v1.836c.14-.022.274-.075.391-.156v-1.68h-.391z" fill="#d80027"/><g fill="#338af3"><path d="M8.125 11.25c.345 0 .625-.28.625-.625S8.47 10 8.125 10s-.625.28-.625.625.28.625.625.625zm3.125 1.25h-.625c-.173 0-.312.14-.312.313s.14.313.313.313h.625c.173 0 .313-.14.313-.312s-.14-.312-.312-.312zm-5.625 0H5c-.173 0-.312.14-.312.313s.14.313.313.313h.625c.173 0 .313-.14.313-.312s-.14-.312-.312-.312z"/></g></g><defs><clipPath id="A"><rect width="20" height="20" rx="10" fill="#fff"/></clipPath><path id="B" d="M5.625 8.125H5c-.173 0-.312.14-.312.313s.14.313.313.313h.625c.173 0 .313-.14.313-.312s-.14-.312-.312-.312z"/><path id="C" d="M11.25 8.125h-.625c-.173 0-.312.14-.312.313s.14.313.313.313h.625c.173 0 .313-.14.313-.312s-.14-.312-.312-.312z"/><path id="D" d="M7.266 8.125c.129 0 .234-.105.234-.234s-.105-.234-.234-.234-.234.105-.234.234.105.234.234.234z"/></defs></svg>