<svg xmlns="http://www.w3.org/2000/svg" width="40" height="40" fill="none" xmlns:v="https://vecta.io/nano"><g fill="#ebb341"><path d="M20.209 36.762c-9.114 0-16.553-7.447-16.553-16.553 0-9.114 7.447-16.553 16.553-16.553 9.114 0 16.553 7.447 16.553 16.553 0 9.114-7.439 16.553-16.553 16.553z"/><path d="M20 40C9 40 0 31 0 20S9 0 20 0s20 9 20 20-9 20-20 20zm0-35.553c-8.553 0-15.553 7-15.553 15.553s7 15.553 15.553 15.553 15.553-7 15.553-15.553S28.553 4.447 20 4.447z"/></g><path d="M19.537 25.417h8.667v4.334H23.09v3.666h-4.447v-3.553H13.31c0-1.447-.22-2.886.114-4.22.114-.667.886-1.333 1.447-2l5.114-6 2.114-2.333h-8.333v-4.333h4.886V7.312h4.333v3.552h5.333c0 1.447.22 2.886-.114 4.22-.114.667-.886 1.333-1.447 2l-5.114 6-2.106 2.334z" fill="#fff"/></svg>