<svg xmlns="http://www.w3.org/2000/svg" width="40" height="40" viewBox="0 0 48 48" fill="none">
  <path d="M47.2813 29.8098C44.0756 42.6685 31.0518 50.4941 18.1915 47.2875C5.33666 44.0818 -2.48891 31.0572 0.718236 18.1995C3.92256 5.33939 16.9464 -2.48676 29.8026 0.718976C42.6619 3.92471 50.487 16.9507 47.2809 29.8101L47.2812 29.8098H47.2813Z" fill="#F7931A"/>
  <path d="M34.5836 20.5838C35.0613 17.3895 32.6294 15.6725 29.304 14.5271L30.3828 10.2002L27.7489 9.54389L26.6988 13.7568C26.0063 13.5841 25.2952 13.4214 24.5885 13.2601L25.6463 9.01934L23.014 8.36304L21.9346 12.6885C21.3616 12.558 20.7988 12.4291 20.2528 12.2932L20.2558 12.2796L16.6236 11.3726L15.923 14.1858C15.923 14.1858 17.8771 14.6337 17.8359 14.6613C18.9025 14.9275 19.0954 15.6335 19.0634 16.1932L17.8345 21.1225C17.908 21.1412 18.0032 21.1681 18.1084 21.2104C18.0205 21.1886 17.927 21.1647 17.83 21.1415L16.1075 28.0468C15.9772 28.3708 15.6463 28.8571 14.9006 28.6725C14.927 28.7107 12.9863 28.1947 12.9863 28.1947L11.6786 31.2097L15.1062 32.0642C15.7438 32.2241 16.3687 32.3914 16.9841 32.5487L15.8941 36.9252L18.525 37.5815L19.6043 33.2515C20.3231 33.4466 21.0206 33.6266 21.7034 33.7962L20.6276 38.1058L23.2617 38.7621L24.3515 34.3939C28.8428 35.2439 32.22 34.9012 33.6415 30.8387C34.7869 27.568 33.5844 25.6814 31.2216 24.4512C32.9426 24.0543 34.2389 22.9224 34.5845 20.5841L34.5837 20.5835L34.5836 20.5838ZM28.5657 29.0223C27.7517 32.2931 22.2448 30.525 20.4594 30.0816L21.9058 24.2835C23.6911 24.7293 29.4164 25.6113 28.5658 29.0223H28.5657ZM29.3803 20.5364C28.6378 23.5114 24.0543 22 22.5675 21.6293L23.8788 16.3708C25.3656 16.7414 30.1538 17.4332 29.3805 20.5364H29.3803Z" fill="white"/>
</svg>