
<svg width="40" height="40" viewBox="0 0 40 40" fill="none" xmlns="http://www.w3.org/2000/svg">
<path d="M20.2088 36.7618C11.0952 36.7618 3.65567 29.3149 3.65567 20.2088C3.65567 11.0952 11.1027 3.65568 20.2088 3.65568C29.3224 3.65568 36.7618 11.1027 36.7618 20.2088C36.7618 29.3224 29.3224 36.7618 20.2088 36.7618Z" fill="#EBB341"/>
<path d="M20 40C9 40 0 31 0 20C0 9 9 0 20 0C31 0 40 9 40 20C40 31 31 40 20 40ZM20 4.44704C11.447 4.44704 4.44704 11.447 4.44704 20C4.44704 28.553 11.447 35.553 20 35.553C28.553 35.553 35.553 28.553 35.553 20C35.553 11.447 28.553 4.44704 20 4.44704Z" fill="#EBB341"/>
<path d="M19.5368 25.4174H28.2035V29.7509H23.0899V33.4174H18.6429V29.8645H13.3096C13.3096 28.4174 13.0899 26.9781 13.4232 25.6448C13.5368 24.9781 14.3096 24.3114 14.8701 23.6448C16.5368 21.6448 18.2035 19.6448 19.9838 17.6448C20.6504 16.8645 21.3171 16.1978 22.0974 15.3115H13.7642V10.9781H18.6504V7.312H22.9838V10.864H28.3171C28.3171 12.3109 28.5368 13.7504 28.2035 15.0837C28.0899 15.7504 27.3171 16.417 26.7565 17.0837C25.0899 19.0837 23.4232 21.0837 21.6429 23.0837C20.976 23.8645 20.3096 24.6371 19.5368 25.4174Z" fill="white"/>
</svg>
