
<svg width="40" height="40" viewBox="0 0 40 40" fill="none" xmlns="http://www.w3.org/2000/svg">
<g clip-path="url(#clip0_342_4341)">
<rect width="40" height="40" rx="20" fill="#FF4500"/>
<mask id="mask0_342_4341" style="mask-type:luminance" maskUnits="userSpaceOnUse" x="0" y="0" width="40" height="40">
<path d="M0 0H40V40H0V0Z" fill="white"/>
</mask>
<g mask="url(#mask0_342_4341)">
<path d="M31.3365 24.482C32.5748 24.4813 33.7623 23.9891 34.6379 23.1134C35.5135 22.2378 36.0058 21.0504 36.0065 19.812C36.0058 18.5737 35.5135 17.3863 34.6379 16.5106C33.7623 15.635 32.5748 15.1428 31.3365 15.142C30.0982 15.1428 28.9108 15.635 28.0351 16.5106C27.1595 17.3863 26.6672 18.5737 26.6665 19.812C26.6672 21.0504 27.1595 22.2378 28.0351 23.1134C28.9108 23.9891 30.0982 24.4813 31.3365 24.482Z" fill="url(#paint0_radial_342_4341)"/>
<path d="M8.66268 24.482C9.90101 24.4813 11.0884 23.9891 11.9641 23.1134C12.8397 22.2378 13.332 21.0504 13.3327 19.812C13.332 18.5737 12.8397 17.3863 11.9641 16.5106C11.0884 15.635 9.90101 15.1428 8.66268 15.142C7.42434 15.1428 6.23692 15.635 5.36129 16.5106C4.48565 17.3863 3.9934 18.5737 3.99268 19.812C3.9934 21.0504 4.48565 22.2378 5.36129 23.1134C6.23692 23.9891 7.42434 24.4813 8.66268 24.482Z" fill="url(#paint1_radial_342_4341)"/>
<path d="M20.0109 33.8227C27.3745 33.8227 33.3445 29.3454 33.3445 23.8227C33.3445 18.3 27.3745 13.8227 20.0109 13.8227C12.6472 13.8227 6.67725 18.3 6.67725 23.8227C6.67725 29.3454 12.6463 33.8227 20.0109 33.8227Z" fill="url(#paint2_radial_342_4341)"/>
<path d="M16.0698 22.867C15.9925 24.5488 14.868 25.1597 13.5589 25.1597C12.2498 25.1597 11.2516 24.247 11.3289 22.5652C11.4062 20.8834 12.5307 19.7834 13.8398 19.7834C15.1489 19.7834 16.1471 21.187 16.0698 22.8688V22.867Z" fill="url(#paint3_radial_342_4341)"/>
<path d="M23.9534 22.867C24.0316 24.5488 25.1552 25.1597 26.4643 25.1597C27.7734 25.1597 28.7716 24.247 28.6943 22.5652C28.6171 20.8834 27.4925 19.7834 26.1834 19.7834C24.8743 19.7834 23.8761 21.187 23.9534 22.8688V22.867Z" fill="url(#paint4_radial_342_4341)"/>
<path d="M14.7462 22.1154C15.0326 22.1154 15.2644 21.8627 15.2644 21.5509C15.2644 21.2391 15.0326 20.9863 14.7462 20.9863C14.4598 20.9863 14.228 21.2391 14.228 21.5509C14.228 21.8627 14.4598 22.1154 14.7462 22.1154Z" fill="#FFC49C"/>
<path d="M27.0753 22.1154C27.3617 22.1154 27.5935 21.8627 27.5935 21.5509C27.5935 21.2391 27.3617 20.9863 27.0753 20.9863C26.7889 20.9863 26.5571 21.2391 26.5571 21.5509C26.5571 21.8627 26.7889 22.1154 27.0753 22.1154Z" fill="#FFC49C"/>
<path d="M20.0109 26.4675L15.3964 26.693C15.15 26.7166 14.9946 26.973 15.0909 27.2003C15.8964 29.1239 17.7964 30.4766 20.0109 30.4766C22.2255 30.4766 24.1273 29.1248 24.9309 27.2003C25.0273 26.9721 24.87 26.7166 24.6255 26.693C23.092 26.5404 21.5519 26.4651 20.0109 26.4675Z" fill="url(#paint5_radial_342_4341)"/>
<path d="M27.313 12.4633C28.1906 12.4633 29.0323 12.1147 29.6529 11.4941C30.2735 10.8736 30.6221 10.0319 30.6221 9.15424C30.6221 8.27662 30.2735 7.43494 29.6529 6.81436C29.0323 6.19379 28.1906 5.84515 27.313 5.84515C26.4354 5.84515 25.5937 6.19379 24.9731 6.81436C24.3525 7.43494 24.0039 8.27662 24.0039 9.15424C24.0039 10.0319 24.3525 10.8736 24.9731 11.4941C25.5937 12.1147 26.4354 12.4633 27.313 12.4633Z" fill="url(#paint6_radial_342_4341)"/>
<path d="M19.9625 14.2445C19.5661 14.2445 19.2461 14.08 19.2461 13.8245C19.2461 10.86 21.6588 8.44635 24.6243 8.44635C24.8141 8.44683 24.9961 8.52246 25.1303 8.6567C25.2645 8.79094 25.3402 8.97287 25.3406 9.16271C25.3402 9.35256 25.2645 9.53449 25.1303 9.66873C24.9961 9.80297 24.8141 9.8786 24.6243 9.87908C22.4497 9.87908 20.6815 11.6473 20.6815 13.8218C20.6815 14.0773 20.3615 14.2418 19.9652 14.2418L19.9634 14.2436L19.9625 14.2445Z" fill="url(#paint7_radial_342_4341)"/>
<path d="M11.6335 22.7133C11.7053 21.1279 12.759 20.0915 13.9835 20.0915C15.1426 20.0915 16.039 21.2751 16.0726 22.7451C16.1044 21.1006 15.1226 19.7842 13.8408 19.7842C12.559 19.7842 11.4072 20.9042 11.3299 22.5988C11.2526 24.2933 12.2499 25.1597 13.5599 25.1597H13.6563C12.4635 25.1297 11.5635 24.2724 11.6363 22.7151L11.6344 22.7133H11.6335ZM28.3881 22.7133C28.3153 21.1279 27.2617 20.0915 26.0381 20.0915C24.879 20.0915 23.9826 21.2751 23.949 22.7451C23.9172 21.1006 24.899 19.7842 26.1808 19.7842C27.4899 19.7842 28.6144 20.9042 28.6917 22.5988C28.769 24.2933 27.7717 25.1597 26.4617 25.1597H26.3653C27.5581 25.1297 28.4581 24.2724 28.3853 22.7151L28.3881 22.7133Z" fill="#842123"/>
</g>
</g>
<defs>
<radialGradient id="paint0_radial_342_4341" cx="0" cy="0" r="1" gradientUnits="userSpaceOnUse" gradientTransform="translate(442.919 269.433) scale(96.9941 84.3849)">
<stop stop-color="#FEFFFF"/>
<stop offset="0.4" stop-color="#FEFFFF"/>
<stop offset="0.51" stop-color="#F9FCFC"/>
<stop offset="0.62" stop-color="#EDF3F5"/>
<stop offset="0.7" stop-color="#DEE9EC"/>
<stop offset="0.72" stop-color="#D8E4E8"/>
<stop offset="0.76" stop-color="#CCD8DF"/>
<stop offset="0.8" stop-color="#C8D5DD"/>
<stop offset="0.83" stop-color="#CCD6DE"/>
<stop offset="0.85" stop-color="#D8DBE2"/>
<stop offset="0.88" stop-color="#EDE3E9"/>
<stop offset="0.9" stop-color="#FFEBEF"/>
</radialGradient>
<radialGradient id="paint1_radial_342_4341" cx="0" cy="0" r="1" gradientUnits="userSpaceOnUse" gradientTransform="translate(184.783 254.66) scale(96.994 84.3849)">
<stop stop-color="#FEFFFF"/>
<stop offset="0.4" stop-color="#FEFFFF"/>
<stop offset="0.51" stop-color="#F9FCFC"/>
<stop offset="0.62" stop-color="#EDF3F5"/>
<stop offset="0.7" stop-color="#DEE9EC"/>
<stop offset="0.72" stop-color="#D8E4E8"/>
<stop offset="0.76" stop-color="#CCD8DF"/>
<stop offset="0.8" stop-color="#C8D5DD"/>
<stop offset="0.83" stop-color="#CCD6DE"/>
<stop offset="0.85" stop-color="#D8DBE2"/>
<stop offset="0.88" stop-color="#EDE3E9"/>
<stop offset="0.9" stop-color="#FFEBEF"/>
</radialGradient>
<radialGradient id="paint2_radial_342_4341" cx="0" cy="0" r="1" gradientUnits="userSpaceOnUse" gradientTransform="translate(635.362 599.549) scale(835.368 438.558)">
<stop stop-color="#FEFFFF"/>
<stop offset="0.4" stop-color="#FEFFFF"/>
<stop offset="0.51" stop-color="#F9FCFC"/>
<stop offset="0.62" stop-color="#EDF3F5"/>
<stop offset="0.7" stop-color="#DEE9EC"/>
<stop offset="0.72" stop-color="#D8E4E8"/>
<stop offset="0.76" stop-color="#CCD8DF"/>
<stop offset="0.8" stop-color="#C8D5DD"/>
<stop offset="0.83" stop-color="#CCD6DE"/>
<stop offset="0.85" stop-color="#D8DBE2"/>
<stop offset="0.88" stop-color="#EDE3E9"/>
<stop offset="0.9" stop-color="#FFEBEF"/>
</radialGradient>
<radialGradient id="paint3_radial_342_4341" cx="0" cy="0" r="1" gradientUnits="userSpaceOnUse" gradientTransform="translate(81.8338 155.803) scale(13.302 21.8133)">
<stop stop-color="#FF6600"/>
<stop offset="0.5" stop-color="#FF4500"/>
<stop offset="0.7" stop-color="#FC4301"/>
<stop offset="0.82" stop-color="#F43F07"/>
<stop offset="0.92" stop-color="#E53812"/>
<stop offset="1" stop-color="#D4301F"/>
</radialGradient>
<radialGradient id="paint4_radial_342_4341" cx="0" cy="0" r="1" gradientUnits="userSpaceOnUse" gradientTransform="translate(-77.1526 -108.576) rotate(180) scale(13.302 21.8133)">
<stop stop-color="#FF6600"/>
<stop offset="0.5" stop-color="#FF4500"/>
<stop offset="0.7" stop-color="#FC4301"/>
<stop offset="0.82" stop-color="#F43F07"/>
<stop offset="0.92" stop-color="#E53812"/>
<stop offset="1" stop-color="#D4301F"/>
</radialGradient>
<radialGradient id="paint5_radial_342_4341" cx="0" cy="0" r="1" gradientUnits="userSpaceOnUse" gradientTransform="translate(278.543 270.171) scale(91.3331 24.4171)">
<stop stop-color="#172E35"/>
<stop offset="0.29" stop-color="#0E1C21"/>
<stop offset="0.73" stop-color="#030708"/>
<stop offset="1"/>
</radialGradient>
<radialGradient id="paint6_radial_342_4341" cx="0" cy="0" r="1" gradientUnits="userSpaceOnUse" gradientTransform="translate(326.817 154.088) scale(53.6159 52.5435)">
<stop stop-color="#FEFFFF"/>
<stop offset="0.4" stop-color="#FEFFFF"/>
<stop offset="0.51" stop-color="#F9FCFC"/>
<stop offset="0.62" stop-color="#EDF3F5"/>
<stop offset="0.7" stop-color="#DEE9EC"/>
<stop offset="0.72" stop-color="#D8E4E8"/>
<stop offset="0.76" stop-color="#CCD8DF"/>
<stop offset="0.8" stop-color="#C8D5DD"/>
<stop offset="0.83" stop-color="#CCD6DE"/>
<stop offset="0.85" stop-color="#D8DBE2"/>
<stop offset="0.88" stop-color="#EDE3E9"/>
<stop offset="0.9" stop-color="#FFEBEF"/>
</radialGradient>
<radialGradient id="paint7_radial_342_4341" cx="0" cy="0" r="1" gradientUnits="userSpaceOnUse" gradientTransform="translate(238.172 154.607) scale(40.4723 38.5042)">
<stop offset="0.48" stop-color="#7A9299"/>
<stop offset="0.67" stop-color="#172E35"/>
<stop offset="0.75"/>
<stop offset="0.82" stop-color="#172E35"/>
</radialGradient>
<clipPath id="clip0_342_4341">
<rect width="40" height="40" rx="20" fill="white"/>
</clipPath>
</defs>
</svg>
