<svg xmlns="http://www.w3.org/2000/svg" width="256" height="73" fill="none" xmlns:v="https://vecta.io/nano"><rect x="1.152" y="1.475" width="254" height="71" rx="15.5" stroke="#fff" stroke-opacity=".12"/><rect x="14.652" y="14.975" width="44" height="44" rx="22" fill="#cfcfcf"/><g clip-path="url(#A)"><path d="M36.705 19.375l-.236.802v23.27l.236.235 10.802-6.385-10.802-17.922z" fill="#343434"/><path d="M36.706 19.375L25.904 37.298l10.802 6.385V32.388 19.375z" fill="#8c8c8c"/><path d="M36.705 45.728l-.133.162v8.289l.133.388 10.808-15.221-10.808 6.382z" fill="#3c3c3b"/><path d="M36.706 54.567v-8.84l-10.802-6.382 10.802 15.221z" fill="#8c8c8c"/><path d="M36.706 43.683l10.801-6.385-10.801-4.91v11.294z" fill="#141414"/><path d="M25.904 37.298l10.801 6.385V32.388l-10.801 4.91z" fill="#393939"/></g><path d="M70.087 33.975V19.43h9.46v2.209h-6.825v3.949h6.335v2.209h-6.335v3.97h6.882v2.209h-9.517zm17.482-10.909v1.989h-2.152v5.639c0 1.037.518 1.264 1.165 1.264.32 0 .611-.064.753-.099l.433 2.01c-.277.092-.781.234-1.513.256-1.932.057-3.423-.952-3.409-3.004v-6.065h-1.548v-1.989h1.548v-2.614h2.571v2.614h2.152zm4.956 4.517v6.392h-2.571V19.43h2.514v5.49h.128c.504-1.236 1.57-1.996 3.246-1.996 2.266 0 3.757 1.47 3.757 4.105v6.946h-2.571v-6.548c0-1.47-.795-2.329-2.145-2.329-1.378 0-2.358.909-2.358 2.486zm14.524 6.605c-3.288 0-5.298-2.18-5.298-5.604 0-3.367 2.038-5.661 5.163-5.661 2.685 0 4.986 1.683 4.986 5.511v.788h-7.6c.022 1.868 1.123 2.962 2.785 2.962 1.107 0 1.96-.483 2.308-1.406l2.4.27c-.454 1.896-2.201 3.139-4.744 3.139zm-2.741-6.697h5.127c-.014-1.484-1.008-2.564-2.485-2.564-1.535 0-2.564 1.172-2.642 2.564zm9.767 6.484V23.066h2.493v1.818h.113a2.72 2.72 0 0 1 2.692-1.974c.284 0 .689.028.924.071v2.365c-.221-.071-.76-.149-1.194-.149-1.413 0-2.457.98-2.457 2.365v6.413h-2.571zm12.31.213c-3.288 0-5.298-2.18-5.298-5.604 0-3.367 2.038-5.661 5.163-5.661 2.685 0 4.986 1.683 4.986 5.511v.788h-7.6c.022 1.868 1.123 2.962 2.784 2.962 1.108 0 1.961-.483 2.309-1.406l2.4.27c-.454 1.896-2.201 3.139-4.744 3.139zm-2.742-6.697h5.128c-.014-1.484-1.008-2.564-2.485-2.564-1.535 0-2.564 1.172-2.643 2.564zm16.721 1.896v-6.321h2.571v10.909h-2.493v-1.939h-.114c-.497 1.222-1.647 2.081-3.281 2.081-2.145 0-3.636-1.484-3.636-4.105v-6.946h2.571v6.548c0 1.385.824 2.259 2.06 2.259 1.136 0 2.322-.824 2.322-2.486zm5.215 4.588V23.066h2.457v1.854h.128c.455-1.243 1.548-1.996 3.011-1.996 1.471 0 2.529.76 2.948 1.996h.114c.482-1.214 1.69-1.996 3.274-1.996 2.002 0 3.409 1.293 3.409 3.729v7.322h-2.578v-6.925c0-1.349-.824-1.96-1.861-1.96-1.243 0-1.975.852-1.975 2.081v6.804h-2.521v-7.031c0-1.122-.746-1.854-1.832-1.854-1.108 0-2.003.909-2.003 2.251v6.633h-2.571z" fill="#fff"/><path d="M79.596 47.123h-1.773c-.29-1.506-1.534-2.341-3.017-2.341-2.006 0-3.506 1.551-3.506 4.375 0 2.847 1.506 4.375 3.5 4.375 1.472 0 2.722-.818 3.023-2.307l1.773.006c-.381 2.301-2.25 3.903-4.807 3.903-3.023 0-5.233-2.256-5.233-5.977s2.221-5.977 5.233-5.977c2.46 0 4.409 1.454 4.807 3.943zm1.965 7.852v-8.727h1.642v1.386h.091c.318-.937 1.193-1.517 2.216-1.517a6.88 6.88 0 0 1 .722.04v1.625c-.136-.04-.534-.102-.886-.102-1.204 0-2.085.824-2.085 1.966v5.329H81.56zm7.48 3.273c-.511 0-.954-.097-1.159-.187l.409-1.392c.932.256 1.54.159 1.972-1l.21-.58-3.193-8.841h1.818l2.21 6.773h.091l2.21-6.773h1.824l-3.597 9.892c-.506 1.375-1.392 2.108-2.796 2.108zm7.989 0v-12h1.659v1.415h.142c.301-.54.886-1.528 2.506-1.528 2.108 0 3.664 1.665 3.664 4.494 0 2.824-1.534 4.517-3.647 4.517-1.591 0-2.216-.972-2.523-1.528h-.102v4.631h-1.699zm1.665-7.636c0 1.835.818 3.085 2.278 3.085 1.517 0 2.312-1.335 2.312-3.085 0-1.733-.772-3.034-2.312-3.034-1.483 0-2.278 1.21-2.278 3.034zm12.284-4.364v1.364h-1.79v4.801c0 .983.494 1.165 1.045 1.165.273 0 .483-.051.597-.074l.307 1.403c-.199.074-.563.176-1.103.182-1.34.028-2.551-.739-2.545-2.324v-5.153h-1.278v-1.364h1.278v-2.091h1.699v2.091h1.79zm5.461 8.903c-2.46 0-4.068-1.801-4.068-4.5 0-2.716 1.608-4.517 4.068-4.517s4.068 1.801 4.068 4.517c0 2.699-1.607 4.5-4.068 4.5zm.006-1.426c1.597 0 2.347-1.403 2.347-3.079 0-1.671-.75-3.091-2.347-3.091-1.608 0-2.358 1.42-2.358 3.091 0 1.676.75 3.079 2.358 3.079z" fill="#8f8f8f"/><rect x="182.652" y="16.975" width="51" height="20" rx="10" fill="#5cd16c" fill-opacity=".2"/><path d="M192.074 29.509V27.2h-2.305v-1.146h2.305v-2.305h1.147v2.305h2.309V27.2h-2.309v2.31h-1.147zm8.103 2.557v-.955c-1.755-.111-2.838-1.061-2.919-2.548h1.321c.068.844.742 1.295 1.598 1.385v-2.898l-.413-.111c-1.402-.379-2.271-1.091-2.271-2.305 0-1.385 1.137-2.344 2.684-2.489v-.989h.699v.98c1.615.107 2.719 1.082 2.757 2.403h-1.27c-.085-.716-.656-1.168-1.487-1.257v2.732l.367.094c1.107.273 2.509.882 2.509 2.455 0 1.393-1.044 2.429-2.876 2.544v.959h-.699zm.699-2.122c.929-.107 1.573-.635 1.573-1.393s-.678-1.065-1.573-1.308v2.702zm-.699-4.116v-2.535c-.852.115-1.372.614-1.372 1.266-.004.75.729 1.087 1.372 1.27zm4.846 3.443v-1.065l3.772-5.957h1.623v5.906h1.155v1.117h-1.155v1.704h-1.257v-1.704h-4.138zm4.147-1.117v-4.338h-.068l-2.698 4.27v.068h2.766zm6.769 2.94c-1.602 0-2.808-1.006-2.859-2.395h1.278c.068.75.737 1.287 1.581 1.287 1.001 0 1.73-.758 1.73-1.807 0-1.065-.75-1.841-1.785-1.849-.529 0-1.117.2-1.445.494l-1.206-.179.49-4.398h4.798v1.129h-3.703l-.277 2.442h.051c.341-.332.942-.58 1.59-.58 1.589 0 2.765 1.227 2.761 2.915.004 1.7-1.248 2.94-3.004 2.94zm7.599.026c-2.02-.004-3.2-1.649-3.2-4.504.004-2.842 1.197-4.487 3.2-4.487s3.196 1.649 3.196 4.487c0 2.859-1.18 4.504-3.196 4.504zm0-1.138c1.176 0 1.888-1.185 1.888-3.366 0-2.173-.716-3.371-1.888-3.371s-1.888 1.197-1.892 3.371c0 2.182.712 3.366 1.892 3.366z" fill="#44f28a"/><defs><clipPath id="A"><path fill="#fff" transform="translate(25.903 19.375)" d="M0 0h21.613v35.2H0z"/></clipPath></defs></svg>