<svg xmlns="http://www.w3.org/2000/svg" width="80" height="80" fill="none" xmlns:v="https://vecta.io/nano"><rect x="1.53" y="1.53" width="76.94" height="76.94" rx="16.797" stroke="#fff" stroke-opacity=".12" stroke-width="1.084"/><g clip-path="url(#A)" fill="#525252"><use href="#B"/><path d="M41.083 24.829c0-3.591 2.911-6.502 6.502-6.502h7.586c3.591 0 6.502 2.911 6.502 6.502v7.586c0 3.591-2.911 6.502-6.502 6.502h-7.586c-3.591 0-6.502-2.911-6.502-6.502v-7.586zM18.326 47.585c0-3.591 2.911-6.502 6.502-6.502h7.586c3.591 0 6.502 2.911 6.502 6.502v7.586c0 3.591-2.911 6.502-6.502 6.502h-7.586c-3.591 0-6.502-2.911-6.502-6.502v-7.586zm22.757 0c0-3.591 2.911-6.502 6.502-6.502h7.586c3.591 0 6.502 2.911 6.502 6.502v7.586c0 3.591-2.911 6.502-6.502 6.502h-7.586c-3.591 0-6.502-2.911-6.502-6.502v-7.586z"/></g><defs><clipPath id="A"><path fill="#fff" transform="translate(16.159 16.159)" d="M0 0h47.681v47.681H0z"/></clipPath><path id="B" d="M18.326 24.829c0-3.591 2.911-6.502 6.502-6.502h7.586c3.591 0 6.502 2.911 6.502 6.502v7.586c0 3.591-2.911 6.502-6.502 6.502h-7.586c-3.591 0-6.502-2.911-6.502-6.502v-7.586z"/></defs></svg>