<svg xmlns="http://www.w3.org/2000/svg" width="225" height="73" fill="none" xmlns:v="https://vecta.io/nano"><rect x=".753" y=".577" width="223" height="71" rx="15.5" stroke="#fff" stroke-opacity=".12"/><g clip-path="url(#I)"><path d="M36.253 14.077c-12.151 0-22 9.849-22 22 0 6.074 2.463 11.574 6.443 15.557l-4.19 4.19c-.831.831-.242 2.253.933 2.253h18.814c12.151 0 22-9.849 22-22s-9.849-22-22-22z" fill="#ff4500"/><path d="M48.723 41.007a5.14 5.14 0 0 0 5.137-5.137 5.14 5.14 0 0 0-5.137-5.137 5.14 5.14 0 0 0-5.137 5.137 5.14 5.14 0 0 0 5.137 5.137z" fill="url(#A)"/><path d="M23.782 41.007a5.14 5.14 0 0 0 5.137-5.137 5.14 5.14 0 0 0-5.137-5.137 5.14 5.14 0 0 0-5.137 5.137 5.14 5.14 0 0 0 5.137 5.137z" fill="url(#B)"/><path d="M36.265 51.282c8.1 0 14.667-4.925 14.667-11s-6.567-11-14.667-11-14.667 4.925-14.667 11 6.566 11 14.667 11z" fill="url(#C)"/><path d="M31.93 39.231c-.085 1.85-1.322 2.522-2.762 2.522s-2.538-1.004-2.453-2.854 1.322-3.06 2.762-3.06 2.538 1.544 2.453 3.394v-.002z" fill="url(#D)"/><path d="M40.602 39.231c.086 1.85 1.322 2.522 2.762 2.522s2.538-1.004 2.453-2.854-1.322-3.06-2.762-3.06-2.538 1.544-2.453 3.394v-.002z" fill="url(#E)"/><g fill="#ffc49c"><use href="#J"/><path d="M44.036 38.404c.315 0 .57-.278.57-.621s-.255-.621-.57-.621-.57.278-.57.621.255.621.57.621z"/></g><path d="M36.265 43.191l-5.076.248c-.271.026-.442.308-.336.558.886 2.116 2.976 3.604 5.412 3.604s4.528-1.487 5.412-3.604c.106-.251-.067-.532-.336-.558a50.47 50.47 0 0 0-5.076-.248z" fill="url(#F)"/><path d="M44.297 27.787a3.64 3.64 0 1 0 0-7.28 3.64 3.64 0 1 0 0 7.28z" fill="url(#G)"/><path d="M36.212 29.746c-.436 0-.788-.181-.788-.462 0-3.261 2.654-5.916 5.916-5.916a.79.79 0 0 1 .788.788.79.79 0 0 1-.788.788c-2.392 0-4.337 1.945-4.337 4.337 0 .281-.352.462-.788.462l-.002.002z" fill="url(#H)"/><g fill="#842123"><path d="M27.05 39.062c.079-1.744 1.238-2.884 2.585-2.884 1.275 0 2.261 1.302 2.298 2.919.035-1.809-1.045-3.257-2.455-3.257s-2.677 1.232-2.762 3.096 1.012 2.817 2.453 2.817h.106c-1.312-.033-2.302-.976-2.222-2.689l-.002-.002zm18.43 0c-.08-1.744-1.239-2.884-2.585-2.884-1.275 0-2.261 1.302-2.298 2.919-.035-1.809 1.045-3.257 2.455-3.257 1.44 0 2.677 1.232 2.762 3.096s-1.012 2.817-2.453 2.817h-.106c1.312-.033 2.302-.976 2.222-2.689l.002-.002z"/></g></g><path d="M69.688 33.077V18.532h5.454c1.118 0 2.055.194 2.813.582s1.338.933 1.726 1.634.59 1.508.59 2.436-.199 1.742-.597 2.429-.973 1.21-1.74 1.584-1.709.554-2.827.554h-3.885v-2.187h3.53c.653 0 1.189-.09 1.605-.27s.725-.452.923-.803.305-.791.305-1.307-.102-.956-.305-1.321-.514-.649-.93-.838-.954-.291-1.612-.291h-2.415v12.344h-2.635zm7.514-6.591l3.601 6.591h-2.94l-3.537-6.591h2.876zm10.053 6.804c-1.094 0-2.038-.227-2.834-.682s-1.399-1.108-1.825-1.946-.639-1.835-.639-2.976c0-1.122.213-2.107.639-2.955s1.032-1.515 1.804-1.989 1.679-.717 2.72-.717c.672 0 1.307.109 1.903.327a4.3 4.3 0 0 1 1.591.994c.464.45.829 1.023 1.094 1.719s.398 1.515.398 2.472v.788h-8.942v-1.733h6.477c-.005-.492-.111-.93-.32-1.314s-.499-.694-.874-.916-.8-.334-1.293-.334c-.526 0-.987.128-1.385.384s-.708.582-.93.994a2.86 2.86 0 0 0-.334 1.342v1.513c0 .634.116 1.179.348 1.634s.556.795.973 1.037.904.355 1.463.355c.374 0 .713-.052 1.016-.156s.566-.267.788-.476a1.98 1.98 0 0 0 .504-.774l2.401.27c-.151.634-.44 1.188-.866 1.662s-.961.833-1.619 1.094-1.411.384-2.258.384zm11.074-.021c-.857 0-1.624-.22-2.301-.661s-1.212-1.08-1.605-1.918-.59-1.856-.59-3.054c0-1.212.199-2.235.597-3.068s.945-1.47 1.627-1.896 1.442-.646 2.28-.646c.639 0 1.165.109 1.577.327s.739.471.98.774a4.67 4.67 0 0 1 .561.845h.107v-5.44h2.578v14.545h-2.528v-1.719h-.157a4.36 4.36 0 0 1-.575.845c-.251.294-.582.544-.994.753s-.93.313-1.555.313zm.717-2.109c.544 0 1.008-.147 1.392-.44s.674-.713.873-1.243.299-1.148.299-1.854-.1-1.319-.299-1.839-.483-.926-.866-1.215-.845-.433-1.399-.433c-.573 0-1.051.149-1.435.448s-.672.71-.866 1.236-.291 1.127-.291 1.804.097 1.29.291 1.825.49.949.874 1.257.864.455 1.427.455zm11.88 2.109c-.857 0-1.624-.22-2.301-.661s-1.212-1.08-1.605-1.918-.59-1.856-.59-3.054c0-1.212.199-2.235.597-3.068s.944-1.47 1.626-1.896a4.18 4.18 0 0 1 2.28-.646c.639 0 1.165.109 1.577.327s.738.471.98.774a4.78 4.78 0 0 1 .561.845h.106v-5.44h2.579v14.545h-2.529v-1.719h-.156c-.133.265-.324.547-.575.845s-.583.544-.995.753-.93.313-1.555.313zm.717-2.109c.545 0 1.009-.147 1.392-.44s.675-.713.874-1.243.298-1.148.298-1.854-.099-1.319-.298-1.839-.483-.926-.867-1.215c-.378-.289-.845-.433-1.399-.433-.573 0-1.051.149-1.434.448s-.673.71-.867 1.236-.291 1.127-.291 1.804.097 1.29.291 1.825.49.949.874 1.257.864.455 1.427.455zm7.832 1.918V22.168h2.571v10.909h-2.571zm1.293-12.457c-.407 0-.758-.135-1.051-.405s-.441-.604-.441-.987a1.29 1.29 0 0 1 .441-.987c.293-.275.644-.412 1.051-.412a1.47 1.47 0 0 1 1.051.412c.294.27.44.599.44.987s-.146.713-.44.987c-.289.27-.639.405-1.051.405zm9.37 1.548v1.989h-6.272v-1.989h6.272zm-4.723-2.614h2.571v10.241c0 .346.052.611.156.796s.251.303.426.369a1.63 1.63 0 0 0 .582.099 2.52 2.52 0 0 0 .441-.036l.312-.064.433 2.01c-.137.047-.333.099-.589.156-.251.057-.559.09-.923.099-.644.019-1.224-.078-1.74-.291s-.926-.554-1.229-1.008c-.298-.454-.445-1.023-.44-1.704V19.555z" fill="#fff"/><path d="M75.878 45.498a1.66 1.66 0 0 0-.75-1.25c-.439-.299-.992-.449-1.659-.449-.477 0-.89.076-1.239.227s-.619.352-.812.614a1.45 1.45 0 0 0-.284.881c0 .276.064.515.193.716s.305.369.517.506a3.91 3.91 0 0 0 .693.335l.71.216 1.136.295a8.67 8.67 0 0 1 1.142.369 4.58 4.58 0 0 1 1.085.614 2.94 2.94 0 0 1 .807.943c.208.375.313.824.313 1.347 0 .659-.17 1.244-.511 1.756s-.828.915-1.472 1.21-1.415.443-2.324.443c-.871 0-1.625-.138-2.261-.415s-1.134-.669-1.494-1.176-.559-1.117-.597-1.818h1.761c.034.42.17.771.409 1.051a2.21 2.21 0 0 0 .926.619c.379.133.794.199 1.244.199.496 0 .938-.078 1.324-.233s.697-.379.92-.659a1.56 1.56 0 0 0 .335-.994c0-.345-.099-.627-.296-.847s-.456-.401-.79-.545-.703-.271-1.119-.381l-1.375-.375c-.932-.254-1.67-.627-2.216-1.119s-.812-1.144-.812-1.955c0-.67.182-1.256.546-1.756s.856-.888 1.477-1.165 1.322-.42 2.102-.42c.788 0 1.483.138 2.085.415s1.083.657 1.432 1.142.53 1.034.545 1.659h-1.693zm7.888-.148v1.364h-4.767V45.35h4.767zm-3.489-2.091h1.699v8.256c0 .33.049.578.148.744a.77.77 0 0 0 .381.335c.159.057.331.085.517.085a1.99 1.99 0 0 0 .358-.028l.239-.045.307 1.403c-.099.038-.239.076-.42.114s-.409.064-.682.068a2.99 2.99 0 0 1-1.25-.239c-.386-.167-.699-.424-.937-.773s-.358-.786-.358-1.312v-8.608zm8.95 10.994c-.818 0-1.532-.187-2.142-.562s-1.083-.9-1.42-1.574-.506-1.462-.506-2.364.168-1.697.506-2.375.811-1.205 1.42-1.58 1.324-.562 2.142-.562 1.532.188 2.142.563 1.083.901 1.421 1.58.506 1.47.506 2.375-.169 1.689-.506 2.364-.811 1.199-1.421 1.574-1.324.563-2.142.563zm.006-1.426c.53 0 .97-.14 1.318-.42s.606-.653.773-1.119.256-.979.256-1.54-.085-1.068-.256-1.534-.424-.847-.773-1.131-.788-.426-1.318-.426-.977.142-1.33.426-.608.661-.778 1.131-.25.977-.25 1.534.083 1.074.25 1.54.43.839.778 1.119.796.42 1.33.42zm9.635 1.426c-.845 0-1.572-.191-2.182-.574a3.8 3.8 0 0 1-1.398-1.597c-.326-.678-.489-1.455-.489-2.33 0-.886.167-1.669.5-2.347a3.83 3.83 0 0 1 1.409-1.597c.606-.383 1.32-.574 2.142-.574.663 0 1.254.123 1.773.369s.937.583 1.255 1.023.514.953.574 1.54H100.8a1.98 1.98 0 0 0-.625-1.057c-.322-.295-.754-.443-1.296-.443a2.11 2.11 0 0 0-1.244.375c-.352.246-.627.599-.824 1.057s-.296.992-.296 1.614c0 .636.097 1.186.29 1.648s.466.82.818 1.074.775.381 1.256.381c.322 0 .614-.059.875-.176a1.78 1.78 0 0 0 .665-.517c.182-.223.309-.492.381-.807h1.653c-.06.564-.244 1.068-.551 1.511s-.718.792-1.233 1.045-1.112.381-1.801.381zm6.964-3.136l-.011-2.074h.296l3.477-3.693h2.034l-3.966 4.205h-.267l-1.563 1.563zm-1.562 2.96V42.441h1.699v11.636h-1.699zm5.511 0l-3.125-4.148 1.171-1.187 4.04 5.335h-2.086zm9.935-6.597l-1.54.273a1.8 1.8 0 0 0-.307-.562 1.52 1.52 0 0 0-.556-.437c-.235-.114-.529-.17-.881-.17-.481 0-.883.108-1.205.324s-.483.487-.483.824c0 .292.108.526.324.704s.565.324 1.046.438l1.386.318c.803.186 1.402.472 1.796.858s.59.888.59 1.506c0 .523-.151.989-.454 1.398s-.718.724-1.256.955-1.153.347-1.858.347c-.977 0-1.774-.208-2.392-.625s-.996-1.017-1.136-1.79l1.642-.25c.102.428.312.752.631.971s.733.324 1.244.324c.557 0 1.002-.115 1.335-.347s.5-.521.5-.858a.89.89 0 0 0-.307-.687c-.2-.186-.509-.326-.926-.42l-1.477-.324c-.814-.186-1.417-.481-1.807-.886s-.579-.919-.579-1.54a2.2 2.2 0 0 1 .431-1.352c.288-.386.686-.687 1.194-.903s1.089-.33 1.744-.33c.943 0 1.685.205 2.227.614s.9.949 1.074 1.631z" fill="#8f8f8f"/><rect x="151.253" y="16.077" width="51" height="20" rx="10" fill="#5cd16c" fill-opacity=".2"/><path d="M160.675 28.612V22.85h1.146v5.761h-1.146zm-2.306-2.31V25.16h5.762v1.142h-5.762zm10.409 4.866V20.259h.699v10.909h-.699zm2.186-7.526c-.046-.403-.233-.716-.563-.937s-.744-.337-1.244-.337c-.358 0-.668.057-.929.17s-.464.264-.609.46-.213.413-.213.66a.97.97 0 0 0 .145.537c.099.151.228.277.387.379a2.96 2.96 0 0 0 .52.251l.533.162.852.222c.279.068.564.161.857.277a3.45 3.45 0 0 1 .814.46c.25.19.451.426.605.707s.234.618.234 1.01c0 .494-.128.933-.383 1.317s-.621.686-1.104.908-1.061.332-1.743.332c-.653 0-1.219-.104-1.696-.311s-.851-.501-1.121-.882-.419-.838-.447-1.364h1.321c.025.315.128.578.307.788s.413.362.694.464.595.149.933.149a2.64 2.64 0 0 0 .993-.175c.293-.119.523-.284.691-.494s.251-.462.251-.746c0-.258-.074-.47-.221-.635s-.343-.301-.593-.409-.527-.203-.839-.285l-1.032-.281c-.698-.19-1.252-.47-1.661-.839s-.61-.858-.61-1.466c0-.503.136-.942.409-1.317s.642-.666 1.108-.874.992-.315 1.577-.315c.591 0 1.112.104 1.564.311s.812.493 1.074.857.397.776.409 1.244h-1.27zm5.745-2.412a3.38 3.38 0 0 1 1.151.213c.378.139.719.366 1.023.682s.551.742.733 1.278.278 1.199.281 1.994c0 .764-.077 1.445-.23 2.041s-.374 1.095-.661 1.504a2.89 2.89 0 0 1-1.035.933c-.407.213-.864.32-1.373.32-.519 0-.981-.102-1.384-.307s-.732-.487-.985-.848a2.81 2.81 0 0 1-.473-1.253h1.3a1.68 1.68 0 0 0 .52.912c.264.23.605.345 1.022.345.64 0 1.138-.278 1.496-.835s.539-1.341.541-2.344h-.068c-.148.244-.332.454-.554.631a2.49 2.49 0 0 1-.737.409 2.6 2.6 0 0 1-.874.145c-.502 0-.96-.124-1.372-.371a2.73 2.73 0 0 1-.984-1.018c-.244-.432-.367-.925-.367-1.479a3.03 3.03 0 0 1 .375-1.5c.253-.449.606-.804 1.057-1.065s.987-.393 1.598-.388zm.005 1.108a1.68 1.68 0 0 0-.9.247c-.264.162-.473.382-.626.661s-.23.582-.23.92.074.645.221.92.356.49.614.652.56.239.895.239c.25 0 .483-.048.699-.145s.405-.23.567-.401a1.95 1.95 0 0 0 .379-.588 1.78 1.78 0 0 0 .136-.69c0-.321-.077-.619-.23-.895a1.79 1.79 0 0 0-.622-.665c-.264-.17-.565-.256-.903-.256zm7.624-1.108a3.38 3.38 0 0 1 1.151.213c.378.139.718.366 1.022.682s.552.742.733 1.278.279 1.199.282 1.994c0 .764-.077 1.445-.23 2.041s-.374 1.095-.661 1.504a2.89 2.89 0 0 1-1.035.933c-.407.213-.864.32-1.373.32-.52 0-.981-.102-1.385-.307a2.64 2.64 0 0 1-.984-.848 2.81 2.81 0 0 1-.473-1.253h1.3a1.68 1.68 0 0 0 .52.912c.264.23.605.345 1.022.345.64 0 1.138-.278 1.496-.835s.538-1.341.541-2.344h-.068c-.148.244-.332.454-.554.631a2.49 2.49 0 0 1-.737.409 2.6 2.6 0 0 1-.874.145c-.503 0-.96-.124-1.372-.371a2.73 2.73 0 0 1-.984-1.018c-.245-.432-.367-.925-.367-1.479a3.03 3.03 0 0 1 .375-1.5c.253-.449.605-.804 1.057-1.065s.987-.393 1.598-.388zm.004 1.108c-.332 0-.632.082-.899.247s-.473.382-.626.661-.23.582-.23.92.074.645.221.92.355.49.614.652.56.239.895.239c.25 0 .483-.048.699-.145s.405-.23.566-.401.289-.369.38-.588a1.78 1.78 0 0 0 .136-.69c0-.321-.077-.619-.23-.895s-.358-.497-.622-.665-.566-.256-.904-.256zm7.761 7.884c-.673-.003-1.248-.18-1.725-.533s-.843-.865-1.096-1.538-.379-1.484-.379-2.433.127-1.754.379-2.425.623-1.182 1.1-1.534 1.054-.528 1.721-.528 1.24.178 1.718.533.842.864 1.095 1.534.383 1.474.383 2.42c0 .952-.126 1.764-.379 2.438s-.618 1.183-1.095 1.538-1.051.528-1.722.528zm0-1.138c.591 0 1.053-.288 1.385-.865s.503-1.41.503-2.501c0-.724-.076-1.337-.23-1.837s-.368-.884-.652-1.142-.616-.392-1.006-.392c-.588 0-1.049.29-1.385.869s-.504 1.413-.507 2.501c0 .727.076 1.342.226 1.845s.371.879.652 1.138.62.383 1.014.383z" fill="#44f28a"/><defs><radialGradient id="A" cx="0" cy="0" r="1" gradientTransform="translate(48.8313 32.7866) scale(10.3848 9.03479)" href="#K"><stop stop-color="#feffff"/><stop offset=".4" stop-color="#feffff"/><stop offset=".51" stop-color="#f9fcfc"/><stop offset=".62" stop-color="#edf3f5"/><stop offset=".7" stop-color="#dee9ec"/><stop offset=".72" stop-color="#d8e4e8"/><stop offset=".76" stop-color="#ccd8df"/><stop offset=".8" stop-color="#c8d5dd"/><stop offset=".83" stop-color="#ccd6de"/><stop offset=".85" stop-color="#d8dbe2"/><stop offset=".88" stop-color="#ede3e9"/><stop offset=".9" stop-color="#ffebef"/></radialGradient><radialGradient id="B" cx="0" cy="0" r="1" gradientTransform="translate(23.8899 16.5371) scale(10.3848 9.03479)" href="#K"><stop stop-color="#feffff"/><stop offset=".4" stop-color="#feffff"/><stop offset=".51" stop-color="#f9fcfc"/><stop offset=".62" stop-color="#edf3f5"/><stop offset=".7" stop-color="#dee9ec"/><stop offset=".72" stop-color="#d8e4e8"/><stop offset=".76" stop-color="#ccd8df"/><stop offset=".8" stop-color="#c8d5dd"/><stop offset=".83" stop-color="#ccd6de"/><stop offset=".85" stop-color="#d8dbe2"/><stop offset=".88" stop-color="#ede3e9"/><stop offset=".9" stop-color="#ffebef"/></radialGradient><radialGradient id="C" cx="0" cy="0" r="1" gradientTransform="translate(36.581 31.4885) scale(31.3256 21.9279)" href="#K"><stop stop-color="#feffff"/><stop offset=".4" stop-color="#feffff"/><stop offset=".51" stop-color="#f9fcfc"/><stop offset=".62" stop-color="#edf3f5"/><stop offset=".7" stop-color="#dee9ec"/><stop offset=".72" stop-color="#d8e4e8"/><stop offset=".76" stop-color="#ccd8df"/><stop offset=".8" stop-color="#c8d5dd"/><stop offset=".83" stop-color="#ccd6de"/><stop offset=".85" stop-color="#d8dbe2"/><stop offset=".88" stop-color="#ede3e9"/><stop offset=".9" stop-color="#ffebef"/></radialGradient><radialGradient id="D" cx="0" cy="0" r="1" gradientTransform="translate(29.4594 40.0525) scale(2.80082 4.05727)" href="#K"><stop stop-color="#f60"/><stop offset=".5" stop-color="#ff4500"/><stop offset=".7" stop-color="#fc4301"/><stop offset=".82" stop-color="#f43f07"/><stop offset=".92" stop-color="#e53812"/><stop offset="1" stop-color="#d4301f"/></radialGradient><radialGradient id="E" cx="0" cy="0" r="1" gradientTransform="translate(43.0913 40.0525) rotate(180) scale(2.80082 4.05727)" href="#K"><stop stop-color="#f60"/><stop offset=".5" stop-color="#ff4500"/><stop offset=".7" stop-color="#fc4301"/><stop offset=".82" stop-color="#f43f07"/><stop offset=".92" stop-color="#e53812"/><stop offset="1" stop-color="#d4301f"/></radialGradient><radialGradient id="F" cx="0" cy="0" r="1" gradientTransform="translate(36.239 48.2168) scale(9.22778 6.09034)" href="#K"><stop stop-color="#172e35"/><stop offset=".29" stop-color="#0e1c21"/><stop offset=".73" stop-color="#030708"/><stop offset="1"/></radialGradient><radialGradient id="G" cx="0" cy="0" r="1" gradientTransform="translate(44.3769 20.7633) scale(8.1013 7.93927)" href="#K"><stop stop-color="#feffff"/><stop offset=".4" stop-color="#feffff"/><stop offset=".51" stop-color="#f9fcfc"/><stop offset=".62" stop-color="#edf3f5"/><stop offset=".7" stop-color="#dee9ec"/><stop offset=".72" stop-color="#d8e4e8"/><stop offset=".76" stop-color="#ccd8df"/><stop offset=".8" stop-color="#c8d5dd"/><stop offset=".83" stop-color="#ccd6de"/><stop offset=".85" stop-color="#d8dbe2"/><stop offset=".88" stop-color="#ede3e9"/><stop offset=".9" stop-color="#ffebef"/></radialGradient><radialGradient id="H" cx="0" cy="0" r="1" gradientTransform="translate(41.0012 28.9641) scale(6.64074)" href="#K"><stop offset=".48" stop-color="#7a9299"/><stop offset=".67" stop-color="#172e35"/><stop offset=".75"/><stop offset=".82" stop-color="#172e35"/></radialGradient><clipPath id="I"><path fill="#fff" transform="translate(14.253 14.077)" d="M0 0h44v44H0z"/></clipPath><path id="J" d="M30.474 38.404c.315 0 .57-.278.57-.621s-.255-.621-.57-.621-.57.278-.57.621.255.621.57.621z"/><linearGradient id="K" gradientUnits="userSpaceOnUse"/></defs></svg>