<svg xmlns="http://www.w3.org/2000/svg" width="134" height="103" fill="none" xmlns:v="https://vecta.io/nano"><rect x="31.79" y=".628" width="102" height="102" rx="51" fill="#fff" fill-opacity=".08"/><g clip-path="url(#B)"><path d="M109.99 40.672a3.78 3.78 0 0 1-3.778 3.778c-.023 0-.043-.012-.066-.012l-4.772 26.246c-.262 1.429-1.509 2.477-2.972 2.477H67.178a3.02 3.02 0 0 1-2.973-2.481l-4.77-26.239c-.024 0-.043.009-.152.009a3.78 3.78 0 0 1-3.778-3.778c0-2.086 1.776-3.778 3.778-3.778s3.778 1.691 3.778 3.778c0 .85-.333 1.595-.806 2.226l8.465 6.772c1.503 1.202 3.731.712 4.591-1.009l5.44-10.88c-1.068-.666-1.823-1.799-1.823-3.154 0-2.086 1.776-3.778 3.863-3.778s3.693 1.692 3.693 3.778c0 1.354-.752 2.488-1.823 3.154l5.44 10.88c.861 1.721 3.089 2.21 4.591 1.009l8.465-6.772c-.391-.631-.722-1.462-.722-2.227a3.78 3.78 0 0 1 3.778-3.778 3.78 3.78 0 0 1 3.778 3.778z" fill="url(#A)"/></g><rect x=".19" y="37.078" width="48.6" height="29.1" rx="14.55" fill="#fff730"/><path d="M10.96 44.641l3.586 11.272h.138l3.593-11.272h3.477L16.64 59.478h-4.042L7.476 44.641h3.485zm15.717 0v14.836H23.54V44.641h3.137zm2.581 14.836V44.641h5.853c3.369 0 5.317 2.079 5.317 5.028 0 2.963-1.985 4.999-5.397 4.999h-2.637v4.81h-3.137zm3.137-7.324h2.13c1.797 0 2.673-1.014 2.673-2.485 0-1.478-.876-2.463-2.688-2.463h-2.115v4.948z" fill="#181816"/><defs><linearGradient id="A" x1="82.747" y1="30.85" x2="82.747" y2="73.161" gradientUnits="userSpaceOnUse"><stop stop-color="#ffb55c"/><stop offset="1" stop-color="#f7931a"/></linearGradient><clipPath id="B"><path fill="#fff" transform="translate(55.59 24.428)" d="M0 0h54.4v54.4H0z"/></clipPath></defs></svg>