<svg xmlns="http://www.w3.org/2000/svg" width="100" height="100" fill="none" xmlns:v="https://vecta.io/nano"><path d="M92.763 30.996a6.21 6.21 0 0 0-6.523-.898l-19.766 8.789-11.484-20.703A6.29 6.29 0 0 0 49.52 15a6.29 6.29 0 0 0-5.469 3.183L32.567 38.887l-19.766-8.789a6.25 6.25 0 0 0-6.538.892 6.25 6.25 0 0 0-2.095 6.257l9.922 42.305c.19.819.544 1.591 1.041 2.269a6.21 6.21 0 0 0 1.85 1.676 6.33 6.33 0 0 0 3.242.898 5.94 5.94 0 0 0 1.641-.234 103.71 103.71 0 0 1 55.273 0c1.651.434 3.407.195 4.883-.664.728-.422 1.361-.991 1.859-1.67s.849-1.454 1.032-2.275l9.961-42.305a6.25 6.25 0 0 0-2.109-6.25z" fill="url(#A)"/><path fill-rule="evenodd" d="M92.127 31.768l-.005-.004a5.21 5.21 0 0 0-5.473-.754l-.003.001-20.602 9.161L54.12 18.677c-.464-.815-1.132-1.49-1.938-1.959a5.29 5.29 0 0 0-5.322 0 5.29 5.29 0 0 0-1.936 1.955L32.998 40.172 12.393 31.01a5.25 5.25 0 0 0-5.492.749 5.25 5.25 0 0 0-1.76 5.256v.003l9.922 42.307a5.21 5.21 0 0 0 2.425 3.31l.005.003a5.33 5.33 0 0 0 2.728.757 4.94 4.94 0 0 0 1.363-.195l.012-.003a104.71 104.71 0 0 1 55.8-.002c1.393.365 2.875.162 4.12-.563l.002-.001c.609-.353 1.138-.828 1.553-1.396s.71-1.215.863-1.902l.003-.012 9.961-42.304M77.138 84.16a103.71 103.71 0 0 0-55.273 0 5.94 5.94 0 0 1-1.641.234 6.33 6.33 0 0 1-3.242-.898 6.21 6.21 0 0 1-1.85-1.676c-.497-.678-.851-1.45-1.041-2.269L4.169 37.246a6.25 6.25 0 0 1 2.095-6.257 6.25 6.25 0 0 1 6.538-.892l19.766 8.789 11.484-20.703A6.29 6.29 0 0 1 49.52 15a6.29 6.29 0 0 1 5.469 3.183l11.484 20.703 19.766-8.789a6.21 6.21 0 0 1 6.523.898 6.25 6.25 0 0 1 2.109 6.25l-9.961 42.305c-.183.822-.535 1.596-1.032 2.275s-1.13 1.248-1.859 1.67c-1.475.859-3.231 1.098-4.883.664zm16.761-47.142c.223-.953.176-1.95-.137-2.878a5.25 5.25 0 0 0-1.635-2.372" fill="url(#B)"/><defs><linearGradient id="A" x1="49.519" y1="15" x2="49.519" y2="84.394" gradientUnits="userSpaceOnUse"><stop stop-color="#44f28a" stop-opacity=".5"/><stop offset="1" stop-color="#161616" stop-opacity="0"/></linearGradient><linearGradient id="B" x1="49.519" y1="15" x2="49.521" y2="76.285" gradientUnits="userSpaceOnUse"><stop stop-color="#44f28a" stop-opacity=".6"/><stop offset="1" stop-color="#44f28a" stop-opacity="0"/></linearGradient></defs></svg>