<svg width="16" height="16" viewBox="0 0 16 16" fill="none" xmlns="http://www.w3.org/2000/svg">
<g clip-path="url(#clip0_351_13274)">
<path d="M8 0C12.4176 0 16 3.5824 16 8C16 12.4176 12.4176 16 8 16C3.5824 16 0 12.4176 0 8C0 3.5824 3.5824 0 8 0Z" fill="#1DA1F2"/>
<path d="M6.14373 12.0639C9.91653 12.0639 11.9821 8.93748 11.9821 6.22548C11.9821 6.13748 11.9821 6.04788 11.9757 5.95988C12.3773 5.66868 12.7245 5.31028 12.9997 4.89748C12.6253 5.06388 12.2285 5.17268 11.8221 5.22068C12.2509 4.96468 12.5709 4.56148 12.7245 4.08628C12.3213 4.32468 11.8813 4.49428 11.4221 4.58388C10.6445 3.75828 9.34533 3.71828 8.51973 4.49428C7.98693 4.99508 7.76133 5.74228 7.92613 6.45428C6.27653 6.37108 4.73893 5.59188 3.69733 4.31028C3.15333 5.24788 3.43013 6.44628 4.33253 7.04948C4.00613 7.03988 3.68613 6.95188 3.40133 6.79348C3.40133 6.80148 3.40133 6.81108 3.40133 6.81908C3.40133 7.79508 4.08933 8.63668 5.04773 8.83028C4.74533 8.91188 4.42853 8.92468 4.12133 8.86548C4.39013 9.70068 5.15973 10.2735 6.03813 10.2911C5.31173 10.8623 4.41413 11.1727 3.49093 11.1711C3.32773 11.1711 3.16453 11.1615 3.00293 11.1407C3.93733 11.7439 5.03013 12.0639 6.14373 12.0623" fill="white"/>
</g>
<defs>
<clipPath id="clip0_351_13274">
<rect width="16" height="16" fill="white"/>
</clipPath>
</defs>
</svg>
