<svg width="148" height="148" viewBox="0 0 148 148" fill="none" xmlns="http://www.w3.org/2000/svg">
<g clip-path="url(#clip0_2008_14345)">
<rect width="148" height="148" rx="54" fill="#152A1E"/>
<g opacity="0.1">
<mask id="mask0_2008_14345" style="mask-type:alpha" maskUnits="userSpaceOnUse" x="-12" y="-12" width="172" height="172">
<circle cx="85.6533" cy="85.6533" r="85.2934" transform="matrix(-0.866025 -0.5 -0.5 0.866025 191.004 42.6489)" fill="url(#paint0_radial_2008_14345)" stroke="#6CF3A2" stroke-width="0.719775"/>
</mask>
<g mask="url(#mask0_2008_14345)">
<rect opacity="0.8" x="-0.587709" y="0.157476" width="14.2449" height="14.2449" rx="7.12246" transform="matrix(-0.866025 -0.5 -0.5 0.866025 78.0852 146.918)" fill="#369A5C" stroke="#6CF3A2" stroke-width="0.860465"/>
<rect opacity="0.2" x="-0.587709" y="0.157476" width="14.2449" height="14.2449" rx="7.12246" transform="matrix(-0.866025 -0.5 -0.5 0.866025 99.17 110.398)" fill="#369A5C" stroke="#6CF3A2" stroke-width="0.860465"/>
<rect opacity="0.3" x="-0.587709" y="0.157476" width="14.2449" height="14.2449" rx="7.12246" transform="matrix(-0.866025 -0.5 -0.5 0.866025 97.7365 134.28)" fill="#369A5C" stroke="#6CF3A2" stroke-width="0.860465"/>
<rect x="-0.587709" y="0.157476" width="14.2449" height="14.2449" rx="7.12246" transform="matrix(-0.866025 -0.5 -0.5 0.866025 118.821 97.7606)" fill="#369A5C" stroke="#6CF3A2" stroke-width="0.860465"/>
<rect x="-0.587709" y="0.157476" width="14.2449" height="14.2449" rx="7.12246" transform="matrix(-0.866025 -0.5 -0.5 0.866025 117.702 121.098)" fill="#369A5C" stroke="#6CF3A2" stroke-width="0.860465"/>
<rect x="-0.587709" y="0.157476" width="14.2449" height="14.2449" rx="7.12246" transform="matrix(-0.866025 -0.5 -0.5 0.866025 136.235 131.797)" fill="#369A5C" stroke="#6CF3A2" stroke-width="0.860465"/>
<rect x="-0.587709" y="0.157476" width="14.2449" height="14.2449" rx="7.12246" transform="matrix(-0.866025 -0.5 -0.5 0.866025 8.97892 58.3262)" fill="#369A5C" stroke="#6CF3A2" stroke-width="0.860465"/>
<rect x="-0.587709" y="0.157476" width="14.2449" height="14.2449" rx="7.12246" transform="matrix(-0.866025 -0.5 -0.5 0.866025 116.269 144.98)" fill="#369A5C" stroke="#6CF3A2" stroke-width="0.860465"/>
<rect opacity="0.3" x="-0.587709" y="0.157476" width="14.2449" height="14.2449" rx="7.12246" transform="matrix(-0.866025 -0.5 -0.5 0.866025 137.353 108.46)" fill="#369A5C" stroke="#6CF3A2" stroke-width="0.860465"/>
<rect opacity="0.3" x="-0.587709" y="0.157476" width="14.2449" height="14.2449" rx="7.12246" transform="matrix(-0.866025 -0.5 -0.5 0.866025 10.098 34.9891)" fill="#369A5C" stroke="#6CF3A2" stroke-width="0.860465"/>
<rect x="-0.587709" y="0.157476" width="14.2449" height="14.2449" rx="7.12246" transform="matrix(-0.866025 -0.5 -0.5 0.866025 7.54535 82.2088)" fill="#369A5C" stroke="#6CF3A2" stroke-width="0.860465"/>
<rect x="-0.587709" y="0.157476" width="14.2449" height="14.2449" rx="7.12246" transform="matrix(-0.866025 -0.5 -0.5 0.866025 155.886 119.16)" fill="#369A5C" stroke="#6CF3A2" stroke-width="0.860465"/>
<rect x="-0.587709" y="0.157476" width="14.2449" height="14.2449" rx="7.12246" transform="matrix(-0.866025 -0.5 -0.5 0.866025 28.6301 45.689)" fill="#369A5C" stroke="#6CF3A2" stroke-width="0.860465"/>
<rect opacity="0.8" x="-0.587709" y="0.157476" width="14.2449" height="14.2449" rx="7.12246" transform="matrix(-0.866025 -0.5 -0.5 0.866025 6.42673 105.546)" fill="#369A5C" stroke="#6CF3A2" stroke-width="0.860465"/>
<rect opacity="0.6" x="-0.587709" y="0.157476" width="14.2449" height="14.2449" rx="7.12246" transform="matrix(-0.866025 -0.5 -0.5 0.866025 154.767 142.497)" fill="#369A5C" stroke="#6CF3A2" stroke-width="0.860465"/>
<rect opacity="0.6" x="-0.587709" y="0.157476" width="14.2449" height="14.2449" rx="7.12246" transform="matrix(-0.866025 -0.5 -0.5 0.866025 27.5113 69.0262)" fill="#369A5C" stroke="#6CF3A2" stroke-width="0.860465"/>
<rect opacity="0.6" x="-0.587709" y="0.157476" width="14.2449" height="14.2449" rx="7.12246" transform="matrix(-0.866025 -0.5 -0.5 0.866025 14.2596 134.777)" fill="#369A5C" stroke="#6CF3A2" stroke-width="0.860465"/>
<rect opacity="0.3" x="-0.587709" y="0.157476" width="14.2449" height="14.2449" rx="7.12246" transform="matrix(-0.866025 -0.5 -0.5 0.866025 24.9592 116.245)" fill="#369A5C" stroke="#6CF3A2" stroke-width="0.860465"/>
<rect opacity="0.2" x="-0.587709" y="0.157476" width="14.2449" height="14.2449" rx="7.12246" transform="matrix(-0.866025 -0.5 -0.5 0.866025 46.0436 79.7257)" fill="#369A5C" stroke="#6CF3A2" stroke-width="0.860465"/>
<rect opacity="0.4" x="-0.587709" y="0.157476" width="14.2449" height="14.2449" rx="7.12246" transform="matrix(-0.866025 -0.5 -0.5 0.866025 26.0779 92.9079)" fill="#369A5C" stroke="#6CF3A2" stroke-width="0.860465"/>
<rect x="-0.587709" y="0.157476" width="14.2449" height="14.2449" rx="7.12246" transform="matrix(-0.866025 -0.5 -0.5 0.866025 44.6103 103.608)" fill="#369A5C" stroke="#6CF3A2" stroke-width="0.860465"/>
<rect opacity="0.8" x="-0.587709" y="0.157476" width="14.2449" height="14.2449" rx="7.12246" transform="matrix(-0.866025 -0.5 -0.5 0.866025 32.7919 145.477)" fill="#369A5C" stroke="#6CF3A2" stroke-width="0.860465"/>
<rect opacity="0.6" x="-0.587709" y="0.157476" width="14.2449" height="14.2449" rx="7.12246" transform="matrix(-0.866025 -0.5 -0.5 0.866025 43.4914 126.945)" fill="#369A5C" stroke="#6CF3A2" stroke-width="0.860465"/>
<rect opacity="0.8" x="-0.587709" y="0.157476" width="14.2449" height="14.2449" rx="7.12246" transform="matrix(-0.866025 -0.5 -0.5 0.866025 62.0238 137.644)" fill="#369A5C" stroke="#6CF3A2" stroke-width="0.860465"/>
<rect opacity="0.4" x="-0.587709" y="0.157476" width="14.2449" height="14.2449" rx="7.12246" transform="matrix(-0.866025 -0.5 -0.5 0.866025 83.1083 101.125)" fill="#369A5C" stroke="#6CF3A2" stroke-width="0.860465"/>
<rect opacity="0.6" x="-0.587709" y="0.157476" width="14.2449" height="14.2449" rx="7.12246" transform="matrix(-0.866025 -0.5 -0.5 0.866025 63.1426 114.307)" fill="#369A5C" stroke="#6CF3A2" stroke-width="0.860465"/>
<rect x="-0.587709" y="0.157476" width="14.2449" height="14.2449" rx="7.12246" transform="matrix(-0.866025 -0.5 -0.5 0.866025 81.675 125.007)" fill="#369A5C" stroke="#6CF3A2" stroke-width="0.860465"/>
<rect x="-0.587709" y="0.157476" width="14.2449" height="14.2449" rx="7.12246" transform="matrix(-0.866025 -0.5 -0.5 0.866025 120.255 73.8781)" fill="#369A5C" stroke="#6CF3A2" stroke-width="0.860465"/>
<rect opacity="0.8" x="-0.587709" y="0.157476" width="14.2449" height="14.2449" rx="7.12246" transform="matrix(-0.866025 -0.5 -0.5 0.866025 138.787 84.578)" fill="#369A5C" stroke="#6CF3A2" stroke-width="0.860465"/>
<rect opacity="0.8" x="-0.587709" y="0.157476" width="14.2449" height="14.2449" rx="7.12246" transform="matrix(-0.866025 -0.5 -0.5 0.866025 11.5315 11.1072)" fill="#369A5C" stroke="#6CF3A2" stroke-width="0.860465"/>
<rect opacity="0.3" x="-0.587709" y="0.157476" width="14.2449" height="14.2449" rx="7.12246" transform="matrix(-0.866025 -0.5 -0.5 0.866025 157.319 95.2775)" fill="#369A5C" stroke="#6CF3A2" stroke-width="0.860465"/>
<rect opacity="0.3" x="-0.587709" y="0.157476" width="14.2449" height="14.2449" rx="7.12246" transform="matrix(-0.866025 -0.5 -0.5 0.866025 30.0637 21.8065)" fill="#369A5C" stroke="#6CF3A2" stroke-width="0.860465"/>
<rect opacity="0.4" x="-0.587709" y="0.157476" width="14.2449" height="14.2449" rx="7.12246" transform="matrix(-0.866025 -0.5 -0.5 0.866025 48.596 32.506)" fill="#369A5C" stroke="#6CF3A2" stroke-width="0.860465"/>
<rect opacity="0.6" x="-0.587709" y="0.157476" width="14.2449" height="14.2449" rx="7.12246" transform="matrix(-0.866025 -0.5 -0.5 0.866025 67.1284 43.2059)" fill="#369A5C" stroke="#6CF3A2" stroke-width="0.860465"/>
<rect opacity="0.4" x="-0.587709" y="0.157476" width="14.2449" height="14.2449" rx="7.12246" transform="matrix(-0.866025 -0.5 -0.5 0.866025 130.954 55.3459)" fill="#369A5C" stroke="#6CF3A2" stroke-width="0.860465"/>
<rect opacity="0.3" x="-0.587709" y="0.157476" width="14.2449" height="14.2449" rx="7.12246" transform="matrix(-0.866025 -0.5 -0.5 0.866025 150.605 42.7085)" fill="#369A5C" stroke="#6CF3A2" stroke-width="0.860465"/>
<rect opacity="0.6" x="-0.587709" y="0.157476" width="14.2449" height="14.2449" rx="7.12246" transform="matrix(-0.866025 -0.5 -0.5 0.866025 149.486 66.0456)" fill="#369A5C" stroke="#6CF3A2" stroke-width="0.860465"/>
<rect opacity="0.6" x="-0.587709" y="0.157476" width="14.2449" height="14.2449" rx="7.12246" transform="matrix(-0.866025 -0.5 -0.5 0.866025 22.2308 -7.42537)" fill="#369A5C" stroke="#6CF3A2" stroke-width="0.860465"/>
<rect opacity="0.6" x="-0.587709" y="0.157476" width="14.2449" height="14.2449" rx="7.12246" transform="matrix(-0.866025 -0.5 -0.5 0.866025 40.7632 3.27455)" fill="#369A5C" stroke="#6CF3A2" stroke-width="0.860465"/>
<rect x="-0.587709" y="0.157476" width="14.2449" height="14.2449" rx="7.12246" transform="matrix(-0.866025 -0.5 -0.5 0.866025 60.4144 -9.36312)" fill="#369A5C" stroke="#6CF3A2" stroke-width="0.860465"/>
<rect opacity="0.8" x="-0.587709" y="0.157476" width="14.2449" height="14.2449" rx="7.12246" transform="matrix(-0.866025 -0.5 -0.5 0.866025 59.2955 13.9741)" fill="#369A5C" stroke="#6CF3A2" stroke-width="0.860465"/>
<rect opacity="0.6" x="-0.587709" y="0.157476" width="14.2449" height="14.2449" rx="7.12246" transform="matrix(-0.866025 -0.5 -0.5 0.866025 77.8279 24.674)" fill="#369A5C" stroke="#6CF3A2" stroke-width="0.860465"/>
<rect opacity="0.1" x="-0.587709" y="0.157476" width="14.2449" height="14.2449" rx="7.12246" transform="matrix(-0.866025 -0.5 -0.5 0.866025 78.9465 1.33616)" fill="#369A5C" stroke="#6CF3A2" stroke-width="0.860465"/>
<rect x="-0.587709" y="0.157476" width="14.2449" height="14.2449" rx="7.12246" transform="matrix(-0.866025 -0.5 -0.5 0.866025 97.4793 12.0363)" fill="#369A5C" stroke="#6CF3A2" stroke-width="0.860465"/>
<rect opacity="0.4" x="-0.587709" y="0.157476" width="14.2449" height="14.2449" rx="7.12246" transform="matrix(-0.866025 -0.5 -0.5 0.866025 96.3602 35.3735)" fill="#369A5C" stroke="#6CF3A2" stroke-width="0.860465"/>
<rect opacity="0.1" x="-0.587709" y="0.157476" width="14.2449" height="14.2449" rx="7.12246" transform="matrix(-0.866025 -0.5 -0.5 0.866025 114.893 46.073)" fill="#369A5C" stroke="#6CF3A2" stroke-width="0.860465"/>
<rect opacity="0.4" x="-0.587709" y="0.157476" width="14.2449" height="14.2449" rx="7.12246" transform="matrix(-0.866025 -0.5 -0.5 0.866025 116.011 22.7358)" fill="#369A5C" stroke="#6CF3A2" stroke-width="0.860465"/>
<rect x="-0.587709" y="0.157476" width="14.2449" height="14.2449" rx="7.12246" transform="matrix(-0.866025 -0.5 -0.5 0.866025 134.544 33.4353)" fill="#369A5C" stroke="#6CF3A2" stroke-width="0.860465"/>
<rect x="-0.587709" y="0.157476" width="14.2449" height="14.2449" rx="7.12246" transform="matrix(-0.866025 -0.5 -0.5 0.866025 152.039 18.8264)" fill="#369A5C" stroke="#6CF3A2" stroke-width="0.860465"/>
<rect opacity="0.1" x="-0.587709" y="0.157476" width="14.2449" height="14.2449" rx="7.12246" transform="matrix(-0.866025 -0.5 -0.5 0.866025 98.9128 -11.846)" fill="#369A5C" stroke="#6CF3A2" stroke-width="0.860465"/>
<rect x="-0.587709" y="0.157476" width="14.2449" height="14.2449" rx="7.12246" transform="matrix(-0.866025 -0.5 -0.5 0.866025 117.445 -1.14669)" fill="#369A5C" stroke="#6CF3A2" stroke-width="0.860465"/>
<rect opacity="0.3" x="-0.587709" y="0.157476" width="14.2449" height="14.2449" rx="7.12246" transform="matrix(-0.866025 -0.5 -0.5 0.866025 135.977 9.55323)" fill="#369A5C" stroke="#6CF3A2" stroke-width="0.860465"/>
<rect x="-0.587709" y="0.157476" width="14.2449" height="14.2449" rx="7.12246" transform="matrix(-0.866025 -0.5 -0.5 0.866025 155.628 -3.08376)" fill="#369A5C" stroke="#6CF3A2" stroke-width="0.860465"/>
</g>
</g>
<g opacity="0.4" filter="url(#filter0_f_2008_14345)">
<circle cx="74" cy="74.0003" r="52.4884" fill="url(#paint1_radial_2008_14345)"/>
</g>
</g>
<rect x="0.430233" y="0.430233" width="147.14" height="147.14" rx="53.5698" stroke="#3E7B56" stroke-opacity="0.34" stroke-width="0.860465"/>
<defs>
<filter id="filter0_f_2008_14345" x="-16.3489" y="-16.3485" width="180.698" height="180.698" filterUnits="userSpaceOnUse" color-interpolation-filters="sRGB">
<feFlood flood-opacity="0" result="BackgroundImageFix"/>
<feBlend mode="normal" in="SourceGraphic" in2="BackgroundImageFix" result="shape"/>
<feGaussianBlur stdDeviation="18.9302" result="effect1_foregroundBlur_2008_14345"/>
</filter>
<radialGradient id="paint0_radial_2008_14345" cx="0" cy="0" r="1" gradientUnits="userSpaceOnUse" gradientTransform="translate(85.6533 85.6533) rotate(90) scale(85.6533)">
<stop stop-color="#D9D9D9"/>
<stop offset="1" stop-color="#737373" stop-opacity="0"/>
</radialGradient>
<radialGradient id="paint1_radial_2008_14345" cx="0" cy="0" r="1" gradientUnits="userSpaceOnUse" gradientTransform="translate(74 74.0003) rotate(90) scale(52.4884)">
<stop stop-color="#44F28A"/>
<stop offset="1" stop-color="#161917" stop-opacity="0"/>
</radialGradient>
<clipPath id="clip0_2008_14345">
<rect width="148" height="148" rx="54" fill="white"/>
</clipPath>
</defs>
</svg>
