<svg width="80" height="54" viewBox="0 0 80 54" fill="none" xmlns="http://www.w3.org/2000/svg">
<path fill-rule="evenodd" clip-rule="evenodd" d="M72.3725 38.6165V39.3938H72.2302V38.8069L72.0105 39.3134H71.861L71.6414 38.8082V39.3938H71.4971V38.6165H71.7008L71.9345 39.1499L72.1694 38.6165H72.3725ZM71.0841 38.7496V39.3938H71.0828H70.9398V38.7496H70.6798V38.6184H71.344V38.7496H71.0841Z" fill="#F79410"/>
<path d="M49.2883 42.7233H31.7126V11.2756H49.2887L49.2883 42.7233Z" fill="#FF5F00"/>
<path d="M32.8269 27C32.8269 20.6209 35.8269 14.9383 40.4985 11.2762C36.9624 8.50008 32.5887 6.9934 28.0854 7.00002C16.9923 7.00002 8 15.9542 8 27C8 38.0458 16.9923 47 28.0854 47C32.5888 47.0067 36.9626 45.5 40.4989 42.7238C35.8276 39.0624 32.8269 33.3795 32.8269 27Z" fill="#EB001B"/>
<path d="M73 27C73 38.0458 64.0077 47 52.9146 47C48.4108 47.0066 44.0364 45.4999 40.4995 42.7238C45.1724 39.0617 48.1725 33.3795 48.1725 27C48.1725 20.6205 45.1724 14.9383 40.4995 11.2762C44.0364 8.50017 48.4105 6.99351 52.9143 7.00002C64.0074 7.00002 72.9997 15.9542 72.9997 27" fill="#F79E1B"/>
</svg>
