<svg width="84" height="54" viewBox="0 0 84 54" fill="none" xmlns="http://www.w3.org/2000/svg">
<rect x="1" y="6" width="42" height="42" rx="21" fill="#28302B"/>
<rect x="1" y="6" width="42" height="42" rx="21" stroke="#222824" stroke-width="2"/>
<path fill-rule="evenodd" clip-rule="evenodd" d="M28.6428 22.4212L28.2776 24.4958C27.1824 23.9027 24.69 23.7624 24.6897 24.8547C24.6897 25.2887 25.2537 25.5871 25.9334 25.9468C26.9642 26.4924 28.2613 27.1788 28.2613 28.6925C28.2613 31.1113 25.6266 32 23.8802 32C22.1342 32 20.9915 31.4545 20.9915 31.4545L21.372 29.2853C22.4198 30.112 25.5948 30.3469 25.5948 29.0359C25.5948 28.4851 24.9698 28.1602 24.245 27.7835C23.245 27.2637 22.0551 26.6452 22.0551 25.1982C22.0551 22.5455 25.071 22 26.341 22C27.5158 22 28.6428 22.4212 28.6428 22.4212ZM37.1821 31.8333H34.8322L34.5325 30.3983H31.2791L30.7456 31.8333H28.0778L31.8946 22.8923C31.8946 22.8923 32.126 22.1724 33.076 22.1724H35.1333L37.1821 31.8333ZM19.4149 31.8333H16.8557L18.4552 22.1726H21.0147L19.4149 31.8333ZM14.7026 22.1726L12.2628 28.8173L11.9741 27.3865L11.9743 27.387L11.1132 23.0425C11.1132 23.0425 11.0091 22.1726 9.89921 22.1726H5.86569L5.81836 22.3362C5.81836 22.3362 7.05182 22.5884 8.49536 23.4404L10.7188 31.8336H13.3853L17.4569 22.1726H14.7026ZM32.016 28.416L33.3607 24.8007L34.1172 28.416H32.016Z" fill="white"/>
<path d="M11.9742 27.3867L11.1131 23.0422C11.1131 23.0422 11.009 22.1724 9.89909 22.1724H5.86557L5.81824 22.3359C5.81824 22.3359 7.7569 22.7308 9.61642 24.2102C11.3944 25.6243 11.9742 27.3867 11.9742 27.3867Z" fill="#E6A540"/>
<rect x="21" y="6" width="42" height="42" rx="21" fill="#28302B"/>
<rect x="21" y="6" width="42" height="42" rx="21" stroke="#222824" stroke-width="2"/>
<path fill-rule="evenodd" clip-rule="evenodd" d="M41.9578 15.7502C43.6601 15.7488 45.34 16.1393 46.8684 16.8917C47.1014 17.0025 47.3344 17.1247 47.5674 17.26L46.5354 18.1867L44.9852 16.5775L42.3682 18.9198L40.8145 17.2181L35.9414 21.6277L39.0652 25.0834L37.8376 26.1673L40.9154 29.6292L39.6947 30.7113L44.0923 35.6244L46.7032 33.2115L48.9594 35.7963C48.5107 36.1471 48.0221 36.477 47.4831 36.7815C45.8002 37.7459 43.8956 38.2522 41.9578 38.2502C35.7849 38.2502 30.75 33.1957 30.75 27.0007C30.7491 20.8039 35.7831 15.7502 41.9561 15.7502" fill="#0072B7"/>
<path fill-rule="evenodd" clip-rule="evenodd" d="M39.9144 26.2907L42.5801 23.8821L44.9797 26.5568L42.3149 28.9654L39.9153 26.2907M41.8097 30.9126L44.4753 28.504L46.875 31.1787L44.2102 33.5873L41.8097 30.9126M38.0077 21.7224L40.6725 19.3138L43.0721 21.9885L40.4065 24.3971L38.0068 21.7224M42.8987 20.4261L44.8984 18.6197L46.6972 20.6259L44.6975 22.4324L42.8987 20.4252M46.4501 28.6993L48.4498 26.8929L50.2495 28.9001L48.2498 30.7065L46.4501 28.6993M48.209 32.7518L50.207 30.9454L52.0067 32.9508L50.0079 34.7572L48.2082 32.7518M49.0142 23.4638L50.3462 22.2595L51.546 23.5973L50.214 24.8016L49.0142 23.4638M47.3118 19.4899L48.6438 18.2856L49.8436 19.6234L48.5108 20.8277L47.311 19.4899M50.7172 27.4381L52.05 26.2339L53.2498 27.5717L51.917 28.7759L50.7172 27.4381M44.7406 24.4606L46.7403 22.6541L48.54 24.6595L46.5403 26.4659L44.7406 24.4606" fill="#0072B7"/>
<rect x="41" y="6" width="42" height="42" rx="21" fill="#28302B"/>
<rect x="41" y="6" width="42" height="42" rx="21" stroke="#222824" stroke-width="2"/>
<path fill-rule="evenodd" clip-rule="evenodd" d="M68.9009 24.4027C69.5531 24.4027 70.0811 23.8652 70.0811 23.2019C70.0811 22.5386 69.5531 22.0002 68.9009 22.0002C68.2504 22.0002 67.7224 22.5386 67.7224 23.2019C67.7224 23.8652 68.2504 24.4027 68.9009 24.4027ZM59.8637 25.0513C59.8603 25.06 59.8555 25.0727 59.8493 25.0891C59.7586 25.3288 59.3675 26.3632 58.5001 27.4325V22.5471L56.0304 23.0442V31.9H58.5001V29.1625C59.2156 30.255 59.5685 31.9 59.5685 31.9H62.5267C62.234 30.6613 60.954 28.3767 60.954 28.3767C62.1027 26.8934 62.6075 25.3134 62.6874 25.0513H59.8637ZM63.0214 28.0514C63.0214 26.0426 64.1444 25.0318 66.3561 24.9593C66.3561 24.9593 66.7548 24.9435 66.9909 24.9947V26.9939C65.5892 27.043 65.4347 27.5589 65.4347 28.7618V31.9005H63.0214V28.0514ZM51.8882 26.0267L51.8871 26.0266C51.584 26.0061 50.8857 25.959 50.8857 25.3184C50.8857 24.5434 51.894 24.5434 52.2721 24.5434C52.9371 24.5434 53.7984 24.7434 54.4129 24.9309C54.4129 24.9309 54.7566 25.0538 55.0482 25.18L55.0755 25.1875V23.0655L55.0382 23.0546C54.3123 22.7963 53.4684 22.5471 51.9035 22.5471C49.2057 22.5471 48.25 24.1475 48.25 25.5188C48.25 26.3092 48.5825 28.1696 51.6725 28.3842L51.6752 28.3844C51.939 28.4007 52.629 28.4436 52.629 29.1046C52.629 29.6525 52.0601 29.9755 51.1031 29.9755C50.0542 29.9755 49.0368 29.703 48.4185 29.4446V31.63C49.344 31.8771 50.3867 32.0005 51.6091 32.0005C54.2469 32.0005 55.4287 30.4863 55.4287 28.9855C55.4287 27.2838 54.1065 26.178 51.8882 26.0267ZM70.0983 31.9014H67.7049V31.901V25.0601H70.0983V31.9014ZM74.6054 22.9834V31.9H76.9997V22.5471L74.6054 22.983V22.9834ZM73.504 22.5471L71.1122 22.9834L71.1118 22.9838V31.9005H73.504V22.5471Z" fill="#FF6CCF"/>
</svg>
