<svg xmlns="http://www.w3.org/2000/svg" width="48" height="48" viewBox="0 0 48 48" fill="none">
  <rect width="48" height="48" rx="24" fill="#008CFF"/>
  <path d="M31.0778 26.7506C30.3394 26.3295 29.5063 26.2041 28.6804 26.1728C27.9936 26.1525 26.9627 25.7001 26.9627 24.4459C26.9627 23.5109 27.7174 22.7562 28.6909 22.719C29.5168 22.6876 30.3499 22.5623 31.0876 22.1372C33.1723 20.9333 33.8899 18.2669 32.6859 16.1796C31.4722 14.091 28.7999 13.3807 26.708 14.5885C25.3553 15.3635 24.5222 16.809 24.528 18.3668C24.528 19.2129 24.831 19.9886 25.2149 20.7165C25.5387 21.3218 25.6948 22.4539 24.5959 23.0898C23.77 23.5625 22.7398 23.2674 22.2299 22.4441C21.7983 21.7468 21.2773 21.0972 20.5395 20.6761C18.4522 19.4689 15.7793 20.1857 14.5825 22.2672C13.3819 24.3558 14.0961 27.0209 16.1834 28.2248C17.5336 28.9998 19.1926 28.9998 20.5428 28.2248C21.2773 27.8024 21.7983 27.1534 22.2299 26.4568C22.5831 25.8881 23.4775 25.1608 24.5959 25.8098C25.4232 26.2792 25.6778 27.3238 25.2149 28.1869C24.8342 28.9005 24.528 29.6866 24.528 30.5328C24.528 32.9406 26.4808 34.8889 28.8874 34.8921C31.2953 34.8921 33.2435 32.9406 33.2468 30.5328C33.2539 28.9756 32.4274 27.5301 31.0772 26.7512L31.0778 26.7506Z" fill="white"/>
</svg>