<svg width="200" height="56" viewBox="0 0 200 56" fill="none" xmlns="http://www.w3.org/2000/svg">
<g clip-path="url(#clip0_2011_15982)">
<path fill-rule="evenodd" clip-rule="evenodd" d="M100.303 13.8418L93.3007 42.2601H99.6299L106.631 13.8418H100.303ZM143.682 34.0799L148.059 34.9215L149.212 35.1511C149.06 36.4443 148.669 37.6951 148.059 38.8351C147.672 39.5339 147.184 40.1676 146.612 40.714C145.189 42.0699 143.154 42.7473 140.782 42.7473C138.001 42.7444 135.909 41.9931 134.504 40.4928C133.098 38.9929 132.396 37.0002 132.396 34.5149V17.0496H138.349V22.1237H146.55V27.7064H138.349V34.6155C138.348 35.5525 138.59 36.2544 139.076 36.7211C139.563 37.1939 140.211 37.4486 140.879 37.4295C141.659 37.4295 142.451 37.149 142.887 36.6063C143.323 36.0636 143.589 35.144 143.682 34.0799ZM86.2663 20.3677C87.9907 21.3745 89.417 22.848 90.3914 24.6299C91.3915 26.4417 91.8916 28.4939 91.8916 30.7865C91.8916 33.0791 91.3915 35.1294 90.3914 36.9375C89.4151 38.7191 87.9869 40.1916 86.2607 41.1968C84.5456 42.2302 82.5451 42.7469 80.2593 42.7469C78.0095 42.7469 76.0094 42.2273 74.2594 41.1884C72.5363 40.1846 71.1103 38.7152 70.1343 36.9375C69.1368 35.1257 68.6384 33.0734 68.6393 30.7808C68.6403 28.4882 69.1404 26.4379 70.1398 24.6299C71.1142 22.848 72.5404 21.3745 74.2649 20.3677C76.0157 19.3343 78.0157 18.8175 80.2649 18.8175C82.5477 18.8119 84.5483 19.3286 86.2663 20.3677ZM83.2188 36.6172C84.0954 36.0283 84.8053 35.2099 85.276 34.2453C85.7753 33.2156 86.0254 32.0126 86.0261 30.6363C86.0271 29.26 85.777 28.057 85.276 27.0274C84.8238 26.0498 84.1099 25.2266 83.2188 24.6554C82.3225 24.1153 81.3033 23.8307 80.2656 23.8307C79.2279 23.8307 78.2087 24.1153 77.3121 24.6554C76.4211 25.2266 75.7073 26.0498 75.2552 27.0274C74.7559 28.0589 74.5058 29.2619 74.5049 30.6363C74.5041 32.0107 74.7542 33.2137 75.2552 34.2453C75.7259 35.2099 76.4355 36.0283 77.3121 36.6172C78.2087 37.1573 79.2279 37.4419 80.2656 37.4419C81.3033 37.4419 82.3225 37.1573 83.2188 36.6172ZM123.777 33.5367C123.462 34.7345 122.884 35.6886 122.043 36.399C121.202 37.1093 120.045 37.4645 118.574 37.4645C117.609 37.465 116.653 37.2676 115.762 36.8836C114.899 36.4745 114.156 35.8395 113.604 35.0415C113.073 34.2008 112.776 33.1674 112.714 31.9413H127.856C127.919 31.4897 127.965 31.0377 127.993 30.5853C128.055 30.1038 128.086 29.6186 128.087 29.1329C128.087 27.0018 127.649 25.1772 126.774 23.6592C125.95 22.1296 124.711 20.8832 123.208 20.0743C121.681 19.2364 119.884 18.8175 117.819 18.8175C115.6 18.8175 113.662 19.3503 112.005 20.4158C110.369 21.4592 109.027 22.9292 108.115 24.678C107.208 26.4539 106.756 28.4376 106.756 30.6292C106.756 33.0852 107.256 35.2328 108.256 37.072C109.232 38.8564 110.679 40.3176 112.428 41.2859C114.213 42.2601 116.247 42.7469 118.528 42.7469C121.215 42.7469 123.418 42.1013 125.136 40.8099C126.887 39.5176 128.122 37.7738 128.839 35.5786L123.777 33.5367ZM114.58 24.8225C115.512 24.1442 116.628 23.7871 117.768 23.8023C118.572 23.7817 119.372 23.9397 120.112 24.2657C120.753 24.5082 121.309 24.9453 121.705 25.5197C122.127 26.0765 122.358 26.7622 122.362 27.4694C122.359 27.5491 122.343 27.6276 122.314 27.7018H112.794C113.106 26.4364 113.643 25.4772 114.58 24.8268V24.8225ZM49.4075 19.301L55.454 36.3922L61.8229 19.301H68.152L59.1116 42.2555H51.8431L43.0784 19.301H49.4075ZM153.186 42.3874C153.584 42.6295 154.039 42.754 154.5 42.7473C154.966 42.7567 155.424 42.6322 155.825 42.3874C156.206 42.1535 156.521 41.8213 156.741 41.4239C156.962 41.0161 157.078 40.5565 157.078 40.0891C157.078 39.6216 156.962 39.1622 156.741 38.7544C156.52 38.3565 156.202 38.025 155.819 37.7923C155.418 37.5563 154.965 37.4323 154.503 37.4323C154.041 37.4323 153.588 37.5563 153.186 37.7923C152.801 38.0291 152.482 38.3656 152.26 38.7684C152.039 39.1711 151.922 39.6264 151.922 40.0899C151.922 40.5531 152.039 41.0086 152.26 41.4114C152.482 41.8141 152.801 42.1504 153.186 42.3874ZM155.5 41.8476C155.198 42.0328 154.852 42.1275 154.5 42.121V42.1181C154.15 42.1222 153.806 42.0266 153.506 41.8418C153.059 41.567 152.734 41.1206 152.604 40.5998C152.474 40.0793 152.547 39.5264 152.809 39.0618C152.978 38.7611 153.218 38.5097 153.506 38.3307C153.811 38.1512 154.156 38.0573 154.507 38.0585C154.857 38.0597 155.202 38.156 155.505 38.3377C155.797 38.515 156.038 38.7667 156.208 39.069C156.378 39.3795 156.466 39.7319 156.46 40.0891C156.462 40.4432 156.374 40.7918 156.206 41.1001C156.038 41.4085 155.794 41.6662 155.5 41.8476ZM153.891 41.1934C154.081 41.3109 154.298 41.3752 154.519 41.38V41.3771C154.799 41.3882 155.073 41.2979 155.296 41.1221C155.518 40.931 155.673 40.6697 155.737 40.3782L155.238 40.1884C155.217 40.3635 155.145 40.528 155.031 40.66C154.965 40.7282 154.886 40.7807 154.799 40.8142C154.712 40.8477 154.619 40.8614 154.526 40.8542C154.375 40.8513 154.228 40.8014 154.105 40.7113C153.982 40.621 153.888 40.4945 153.835 40.3483C153.782 40.2021 153.773 40.0429 153.809 39.8911C153.845 39.7396 153.924 39.6026 154.037 39.4983C154.161 39.3766 154.326 39.308 154.498 39.3055C154.648 39.3024 154.795 39.3569 154.909 39.4585C155.022 39.563 155.095 39.7057 155.116 39.861L155.634 39.7023C155.593 39.4291 155.449 39.1837 155.235 39.0179C155.015 38.8662 154.755 38.7893 154.491 38.7982C154.279 38.7968 154.071 38.852 153.886 38.9584C153.7 39.0623 153.546 39.2167 153.439 39.4048C153.328 39.6033 153.27 39.828 153.269 40.0569C153.269 40.2859 153.326 40.5109 153.435 40.7101C153.544 40.9096 153.701 41.076 153.891 41.1934Z" fill="white"/>
</g>
<defs>
<clipPath id="clip0_2011_15982">
<rect width="115" height="30" fill="white" transform="translate(43 13.5)"/>
</clipPath>
</defs>
</svg>
