<svg width="200" height="56" viewBox="0 0 200 56" fill="none" xmlns="http://www.w3.org/2000/svg">
<path fill-rule="evenodd" clip-rule="evenodd" d="M97.904 15.2514C98.968 15.7739 100.336 14.8036 100.108 18.1625L99.804 22.9396C99.804 23.9846 99.652 24.3578 99.652 25.2536C99.652 25.9253 99.576 27.045 99.424 27.7168C99.196 29.7321 99.424 30.3293 97.144 30.5532V31.1503C97.676 31.4489 101.704 31.2996 102.616 31.2996C103.148 31.2996 102.692 31.2996 103.072 31.1503C102.996 30.3293 102.692 30.5532 101.856 30.4039C101.096 30.2546 100.944 30.18 100.868 29.5082C100.564 28.0153 101.096 20.3271 101.096 18.3118C101.552 18.7596 101.704 19.2821 101.932 19.8793C102.236 20.4764 102.388 20.8496 102.692 21.4468C102.996 22.0439 103.148 22.4918 103.376 23.0889C103.756 23.6861 103.908 24.0593 104.212 24.7311C105.048 26.6718 106.796 29.5082 107.252 31.4489C108.164 31.3743 107.784 31.4489 108.392 30.1053C109.38 28.0153 109.988 27.045 110.9 25.1789L114.168 18.685C114.32 18.3864 114.244 18.6103 114.32 18.4611C114.32 19.9539 114.472 20.8496 114.472 22.3425C114.472 23.91 114.776 29.0603 114.168 30.2546C113.712 30.3293 112.952 30.5532 112.42 30.5532V31.2996H118.5C119.032 31.2996 118.956 31.0011 118.956 30.5532C118.5 30.5532 118.044 30.4786 117.664 30.3293C116.524 30.0307 116.752 28.3139 116.752 26.4478C116.752 25.2536 116.6 24.5818 116.6 23.5368V16.6696C116.6 15.9232 116.98 15.55 117.664 15.4753C118.804 15.2514 119.108 15.6993 118.804 14.505C117.968 14.6543 115.232 14.8782 114.472 14.505C114.396 15.55 113.712 17.0428 113.256 17.9386C112.724 19.0582 112.192 20.0286 111.66 21.1482L108.088 27.6421C107.632 25.7014 102.312 17.5653 102.312 14.505C101.552 14.8782 98.816 14.6543 97.98 14.505C97.904 14.8036 97.904 14.8036 97.904 15.2514V15.2514ZM165.088 16.8189C165.088 24.2832 175.5 23.4621 175.5 17.5653C175.5 15.7739 175.5 14.7289 173.828 13.2361C172.156 11.7432 169.268 11.4446 167.368 12.7882C166.076 13.7586 165.088 15.1021 165.088 16.8189ZM130.204 21.82V22.3425C130.888 22.5664 131.268 23.0889 131.268 23.9846C131.268 24.8803 131.42 29.3589 131.04 30.0307C130.812 30.4786 130.128 30.4786 129.672 30.5532V31.2996H134.384C134.916 31.2996 134.46 31.2996 134.84 31.1503C134.764 30.3293 134.232 30.4039 133.472 30.2546C133.168 28.9111 133.32 25.5521 133.32 23.9846C133.32 22.2678 136.36 21.5214 137.652 23.1636C138.336 24.0593 138.184 28.8364 137.956 29.8068C137.804 30.2546 137.652 30.4786 136.436 30.5532V31.1503C137.044 31.4489 140.768 31.2996 141.68 31.2996V30.5532C139.552 30.3293 140.008 29.5828 140.008 25.2536C140.008 23.0889 140.16 20.9243 136.892 20.9243C135.904 20.9243 134.916 21.2975 134.156 21.7453C133.776 21.9693 133.776 21.9693 133.32 22.0439V20.6257C132.332 20.6257 131.268 21.5214 130.204 21.82V21.82ZM26.464 15.4007C27.528 15.8486 28.668 15.2514 28.668 16.8189L28.82 23.2382H30.948V16.3711C30.948 15.3261 31.48 15.55 32.544 15.55C36.648 15.55 37.484 20.9989 34.52 22.865C32.088 24.3578 26.16 23.3875 23.5 23.3875L24.108 23.6114C28.592 24.6564 38.776 25.7014 38.776 19.2821C38.776 16.7443 36.952 15.1768 34.368 14.7289C32.012 14.2811 30.264 14.6543 28.06 14.6543C27.148 14.6543 26.54 14.505 26.464 15.4007V15.4007ZM57.168 21.2228C56.864 21.2975 56.408 21.5214 56.104 21.6707C55.648 21.9693 55.724 21.9693 55.876 22.4918C57.852 22.4918 57.168 22.3425 57.168 23.3875C57.168 24.1339 57.396 29.8814 57.016 30.2546C56.256 30.6278 55.648 30.18 55.572 31.1503C56.18 31.3743 58.992 31.225 60.208 31.2996C61.196 31.2996 61.044 31.4489 61.348 30.8518C60.588 29.8068 59.296 31.3743 59.296 28.7618C59.296 19.8793 58.612 23.3128 62.716 22.3425C62.944 21.4468 62.868 22.1186 62.716 21.2228C59.524 21.2228 59.296 21.5961 59.296 20.3271C59.296 18.3118 59.524 13.46 62.336 14.5796C63.096 14.8782 63.476 15.8486 64.16 15.8486C65.072 15.8486 65.528 15.1021 65.224 14.3557C64.464 12.7136 58.612 12.2657 57.548 18.1625C57.396 18.9836 57.168 20.4018 57.168 21.2228V21.2228ZM123.972 21.82C128 21.82 128.152 30.7025 124.428 30.7025C121.084 30.7025 120.4 25.5521 121.692 23.3128C122.072 22.5664 122.908 21.82 123.972 21.82ZM118.804 25.8507V26.8957C118.804 32.9418 129.52 33.5389 129.52 26.1493C129.52 18.9089 118.804 19.5807 118.804 25.8507V25.8507ZM151.332 21.9693C152.548 22.0439 152.852 22.3425 153.308 23.3128L155.132 28.2393C156.196 31.0011 156.272 31.3743 154.6 34.2107C154.22 34.8078 154.144 35.1811 153.232 35.1811C152.168 35.2557 151.94 35.3303 151.94 36.3753C151.94 37.3457 152.548 37.4203 153.232 37.4203C154.6 37.4203 155.208 35.405 155.968 33.7628L160.072 25.2536C160.908 23.6114 161.288 22.0439 163.036 21.9693V21.2228H158.4V21.9693C158.932 21.9693 159.464 22.1186 159.92 22.1932C159.92 22.9396 159.084 24.8057 158.78 25.4775C158.476 26.0746 157.64 28.2393 157.26 28.4632L156.12 25.4775C155.892 24.7311 155.208 22.9396 155.132 22.1932C156.652 21.8946 156.348 21.9693 156.348 21.2228H151.788C151.256 21.2228 151.332 21.4468 151.332 21.9693V21.9693ZM65.68 23.9846C63.096 23.9846 66.288 21.82 67.428 21.82C68.644 21.82 69.252 22.4171 69.252 23.3875C69.252 24.0593 68.34 23.7607 67.656 23.8353C67.048 23.91 66.44 23.9846 65.68 23.9846ZM62.564 26.2986C62.564 32.1207 67.884 32.27 70.012 30.7771C70.696 30.3293 71.456 29.5828 71.304 28.7618C69.632 28.8364 71.076 29.9561 68.036 29.9561C65.528 29.9561 64.008 26.8211 64.464 24.8803C66.516 24.8803 69.556 25.1043 71.304 24.7311C71.304 23.2382 71.304 22.7903 70.544 21.9693C68.872 20.2525 65.452 20.775 63.932 22.5664C63.172 23.4621 62.564 24.7311 62.564 26.2986ZM145.1 23.9846H144.188C144.188 23.1636 144.568 22.865 145.024 22.4918C146.316 21.4468 148.672 21.4468 148.672 23.3875C148.672 24.0593 147.76 23.7607 147.076 23.8353C146.468 23.91 145.86 23.9846 145.1 23.9846ZM141.984 26.2986C141.984 28.09 142.288 29.4336 143.58 30.5532C145.252 31.8968 147.988 31.8221 149.584 30.7025C149.736 30.5532 151.712 28.7618 150.42 28.7618C149.432 28.7618 150.268 29.9561 147.456 29.9561C145.252 29.9561 144.036 27.7168 143.732 25.7014C143.58 24.5071 144.112 24.8803 146.848 24.8803C148.14 24.8803 149.66 24.955 150.724 24.7311C150.724 24.0593 151.104 23.2382 150.04 22.0439C148.368 20.1778 144.872 20.775 143.352 22.5664C142.592 23.3875 141.984 24.8057 141.984 26.2986V26.2986ZM40.296 23.9846C40.448 21.5961 44.856 20.9243 44.856 23.2382C44.856 24.2086 41.284 23.9846 40.296 23.9846ZM38.168 25.8507C38.168 27.4928 38.092 29.0603 39.612 30.4039C41.512 32.1207 45.084 31.9714 46.604 29.8814C47.136 29.0603 46.984 28.3139 46.072 29.135C43.412 31.4489 39.992 28.9111 39.992 25.2536C39.992 24.5818 42.12 24.8803 43.564 24.8803C46.604 24.8803 46.984 25.1789 46.984 23.8353C46.984 22.0439 45.236 20.9243 43.108 20.9243C40.448 20.9243 38.168 23.3128 38.168 25.8507V25.8507ZM72.064 26V27.045C72.064 31.225 76.928 32.5686 79.74 30.7771C80.196 30.4786 81.26 29.5828 81.26 28.9111C81.26 28.3886 81.26 28.9111 81.108 28.4632C80.272 28.5378 80.652 28.7618 79.968 29.2843C77.992 30.8518 73.964 29.8068 73.964 25.5521C73.964 23.6114 75.332 21.9693 77.384 21.9693C79.132 21.9693 79.588 23.3875 80.196 23.3875C80.728 23.3875 81.184 22.5664 80.728 21.6707C80.348 20.8496 78.752 20.9243 77.84 20.9243C76.092 20.9243 74.724 21.5214 73.812 22.3425C72.9 23.0889 72.064 24.5071 72.064 26V26ZM81.868 22.3425C82.248 22.5664 82.476 22.4918 83.16 22.4918V28.4632C83.16 33.3896 88.632 31.2996 88.632 30.2546C88.632 29.5082 88.1 29.9561 87.796 30.1053C87.34 30.3293 87.112 30.4039 86.428 30.2546C85.592 29.9561 85.212 29.0603 85.212 27.9407V22.4918C88.784 22.4918 89.012 22.865 88.632 21.2228C85.06 21.2228 85.288 21.5214 85.212 20.3271C85.212 19.8046 85.212 19.3568 84.756 19.5061C84.224 19.73 84.3 20.9243 82.476 21.5961C81.792 21.82 81.868 21.5961 81.868 22.3425V22.3425ZM47.972 22.0439C47.972 22.7903 48.884 22.4918 48.884 23.2382C48.884 24.955 49.036 28.8364 48.732 30.2546C48.276 30.3293 47.896 30.4786 47.364 30.5532V31.2996H52.608C53.064 31.2996 52.988 31.0011 53.064 30.5532C52.76 30.5532 51.848 30.4039 51.62 30.3293C51.164 30.2546 50.936 29.9561 50.936 29.3589V24.4325C50.936 23.6861 51.316 22.6411 52.152 22.6411C52.76 22.6411 53.444 23.2382 53.596 23.2382C55.952 23.2382 55.192 19.5061 52.076 21.4468C51.696 21.7453 51.468 22.1186 50.936 22.1932V20.6257C50.176 20.6257 49.492 21.1482 48.58 21.5214C48.2 21.6707 47.972 21.5961 47.972 22.0439V22.0439ZM26.616 30.5532V31.2996H33.456V30.5532C30.492 30.4786 30.948 29.4336 30.948 25.0296C29.732 25.0296 29.884 25.1043 28.82 24.8803C28.82 26.2986 28.668 27.4182 28.668 28.6125C28.668 30.3293 28.136 30.4039 26.616 30.5532V30.5532Z" fill="#F00F0F"/>
<path fill-rule="evenodd" clip-rule="evenodd" d="M119.412 38.8386C119.412 37.1965 121.312 37.1965 121.312 38.8386C121.312 40.3315 119.412 40.5554 119.412 38.8386ZM118.196 42.6454H119.412V40.6301C122.756 42.7947 123.668 36.674 120.856 36.674C119.412 36.674 120.096 36.8979 119.26 37.1218V36.674H118.196V42.6454V42.6454ZM125.644 37.5697H125.796C126.252 37.5697 126.328 37.9429 126.48 38.2415H124.884C124.96 37.8683 125.188 37.5697 125.644 37.5697ZM123.668 38.3908C123.668 39.585 123.668 41.0033 125.948 41.0033C126.48 41.0033 127.012 40.9286 127.392 40.7793L127.24 39.8836C126.328 40.1076 124.96 40.4061 124.884 39.1372H127.544C127.544 37.4951 127.468 36.674 125.492 36.674C124.58 36.674 123.668 37.5697 123.668 38.3908V38.3908ZM102.312 39.2865C102.312 42.0483 104.896 40.7047 105.048 40.7047L106.188 40.854V36.674H104.972C104.972 38.0922 105.352 40.0329 104.288 40.0329C103.224 40.0329 103.528 37.8683 103.528 36.674H102.312V39.2865V39.2865ZM137.956 37.5697H138.108C138.564 37.5697 138.716 37.8683 138.868 38.2415H137.196C137.272 37.8683 137.5 37.5697 137.956 37.5697V37.5697ZM136.056 38.6893C136.056 42.0483 139.704 41.0033 139.704 40.6301C139.704 39.5851 139.324 40.0329 138.488 40.1076C137.804 40.1076 137.272 39.8836 137.196 39.1372H140.008C140.008 35.4797 136.056 36.2261 136.056 38.6893ZM133.016 36.674H132.484V37.719H133.016V40.854H134.232V37.719H135.144V36.674H134.232L134.384 35.9276C134.764 35.7036 134.764 35.7783 135.448 35.7783V34.7333C134.384 34.7333 133.092 34.6586 133.016 36.674ZM112.268 35.9276V36.674H111.66V37.719H112.268C112.268 40.3315 112.04 41.0033 114.016 41.0033C114.624 41.0033 114.472 40.7047 114.472 40.0329C113.256 40.0329 113.484 39.8836 113.484 37.719H114.472V36.674H113.484V35.629C112.952 35.7783 112.8 35.8529 112.268 35.9276V35.9276ZM146.088 35.9276V36.674H145.556V37.719H146.088C146.088 40.0329 145.86 41.0033 147.912 41.0033C148.444 41.0033 148.368 40.7047 148.368 40.0329C147.152 40.0329 147.836 40.1076 147.456 39.8836C147.228 38.8386 147.304 38.9133 147.304 37.719H148.368V36.674H147.304V35.629C146.848 35.7783 146.62 35.8529 146.088 35.9276ZM107.784 37.7936C107.784 39.5104 108.924 38.8386 109.608 39.7343C109.076 40.4808 109.076 40.1822 107.784 39.8836C107.708 40.3315 107.176 41.0033 109 41.0033C110.9 41.0033 111.28 39.2865 110.064 38.5401C109.76 38.3908 109.228 38.3161 109.076 38.0922C108.696 37.719 109.076 37.5697 109.532 37.5697C109.988 37.5697 109.76 37.6443 110.368 37.719C110.52 37.3458 110.444 37.1218 110.596 36.8233C109.988 36.7486 107.784 36.1515 107.784 37.7936ZM141.072 38.8386C141.072 40.2568 141.984 41.0033 143.428 41.0033C143.96 41.0033 144.036 40.9286 144.492 40.854V39.8836C141.3 40.6301 142.136 37.5697 143.58 37.5697C143.96 37.5697 143.732 37.6443 144.34 37.719C144.872 36.5247 144.416 36.674 142.972 36.674C141.908 36.674 141.072 37.719 141.072 38.8386V38.8386ZM99.5 38.9879C99.5 40.4061 98.36 39.9583 97.904 39.8836C97.904 40.4808 97.828 40.4808 97.752 40.854C101.4 41.7497 100.716 38.9879 100.716 35.1811H99.5V38.9879V38.9879ZM129.064 40.854H130.204C130.204 38.6893 129.9 38.0922 131.04 37.7936C131.42 37.6443 131.42 38.2415 131.42 36.674C130.584 36.674 130.584 36.7486 130.052 37.1218V36.674H129.064V40.854Z" fill="white"/>
<path fill-rule="evenodd" clip-rule="evenodd" d="M169.572 15.4754C169.952 15.4754 169.952 15.2515 169.952 16.4458C169.952 16.819 169.952 18.3118 169.8 18.5358C169.724 18.685 169.496 18.685 169.268 18.685V18.8343H170.636V18.685C170.104 18.685 170.104 18.7597 170.104 17.64V15.9979C170.256 16.2218 170.408 16.4458 170.484 16.7443C170.56 16.819 170.636 16.9682 170.712 17.0429L171.624 18.8343C171.7 18.909 171.7 18.7597 171.776 18.685L172.764 16.7443C172.84 16.6697 173.144 16.0725 173.144 15.9979V18.2372C173.144 18.685 173.068 18.6104 172.688 18.685V18.8343H174.056V18.685C173.6 18.685 173.6 18.6104 173.6 18.1625V15.6993C173.6 15.4007 173.752 15.4754 173.98 15.4754V15.2515H173.144C173.144 15.2515 173.144 15.3261 173.068 15.3261L172.992 15.6247C172.916 15.6993 172.84 15.8486 172.764 15.9979C172.764 16.0725 172.688 16.2218 172.612 16.2965C172.536 16.4457 172.536 16.595 172.46 16.6697C172.308 16.8936 172.232 17.1922 172.08 17.4161C172.08 17.5654 172.004 17.64 171.928 17.7893C171.928 17.864 171.776 18.0879 171.776 18.1625L170.332 15.2515H169.572V15.4754V15.4754Z" fill="#FEFDFD"/>
<path fill-rule="evenodd" clip-rule="evenodd" d="M167.064 15.4754H167.444C167.52 15.4754 167.52 15.6247 167.52 15.6993V17.0429C167.596 17.1175 167.9 17.0429 167.976 17.0429V15.4008C168.432 15.4008 168.66 15.4008 168.888 15.6247C169.116 15.774 169.192 16.0725 169.192 16.4458C169.116 16.7443 168.964 16.9682 168.66 17.0429C168.28 17.2668 167.292 17.2668 166.836 17.1922C166.76 17.1175 166.608 17.1175 166.532 17.1175C166.684 17.1922 166.988 17.2668 167.14 17.2668C167.444 17.3415 167.748 17.3415 167.976 17.3415C168.66 17.3415 169.42 17.2668 169.648 16.595C169.724 16.3773 169.724 16.141 169.648 15.9233C169.496 15.55 169.116 15.3261 168.66 15.2515H167.064V15.4754V15.4754ZM167.064 18.685V18.8343H168.432V18.685C167.9 18.685 167.976 18.685 167.976 17.864V17.4908H167.52V18.2372C167.52 18.685 167.444 18.6104 167.064 18.685V18.685Z" fill="#FEFDFD"/>
</svg>
