<svg width="200" height="56" viewBox="0 0 200 56" fill="none" xmlns="http://www.w3.org/2000/svg">
<path d="M115.044 15.5803C115.422 15.585 115.797 15.5153 116.147 15.3754C116.498 15.2355 116.817 15.028 117.086 14.7651C117.355 14.5023 117.569 14.1891 117.714 13.8439C117.86 13.4986 117.936 13.1282 117.936 12.754C117.936 12.3797 117.861 12.0092 117.716 11.6638C117.57 11.3184 117.357 11.0051 117.088 10.7419C116.819 10.4788 116.5 10.271 116.15 10.1307C115.8 9.99046 115.424 9.92043 115.046 9.92471C114.295 9.93328 113.577 10.2348 113.048 10.7639C112.52 11.2931 112.223 12.0071 112.223 12.7513C112.222 13.4955 112.518 14.2098 113.047 14.7394C113.575 15.269 114.292 15.5711 115.044 15.5803M93.1574 17.107C93.0281 17.4277 92.1004 20.0231 89.8554 22.713V11.2115L83.8746 12.3816V33.2302H89.8554V26.7858C91.588 29.3573 92.4431 33.2302 92.4431 33.2302H99.607C98.8984 30.3141 95.7986 24.936 95.7986 24.936C98.5805 21.4448 99.8024 17.7242 99.9966 17.107H93.1574V17.107ZM108.88 16.8893C103.524 17.0598 100.804 19.4391 100.804 24.169V33.2306H106.649V25.8407C106.649 23.0094 107.023 21.7945 110.418 21.679V16.9733C109.847 16.8526 108.88 16.8897 108.88 16.8897M73.8443 19.4031C73.1116 19.3559 71.4157 19.2472 71.4157 17.7355C71.4157 15.9115 73.8574 15.9115 74.7732 15.9115C76.3835 15.9115 78.469 16.3821 79.9585 16.8235C79.9585 16.8235 80.7895 17.1135 81.4965 17.4104L81.5618 17.4281V12.4324L81.4721 12.4062C79.7137 11.7975 77.6698 11.2119 73.881 11.2119C67.3474 11.2119 65.0322 14.9802 65.0322 18.2076C65.0322 20.0683 65.838 24.4481 73.3209 24.9533C73.9549 24.9917 75.6381 25.0878 75.6381 26.6497C75.6381 27.9397 74.26 28.6998 71.942 28.6998C69.4024 28.6998 66.9374 28.0588 65.441 27.4506V32.5949C67.682 33.1765 70.2073 33.4673 73.1679 33.4673C79.5562 33.4673 82.4173 29.9018 82.4173 26.3686C82.4173 22.3624 79.2156 19.759 73.8443 19.4027M112.147 33.2302H117.944V17.1252H112.147V33.2302H112.147ZM128.859 12.2378V33.2302H134.657V11.2115L128.859 12.2378ZM120.4 12.2378L126.192 11.2119V33.2298H120.4V12.2374V12.2378Z" fill="#862165"/>
<path d="M71.6653 44.0608V40.6605C71.6653 40.2727 71.5201 40.0078 71.1284 40.0078C70.8261 40.0078 70.5352 40.1948 70.2334 40.4831V44.0608H68.5436V40.6605C68.5436 40.2727 68.3983 40.0078 68.0063 40.0078C67.6933 40.0078 67.4139 40.1948 67.1116 40.4831V44.0608H65.4226V38.6337H66.9109L67.0333 39.3757C67.5261 38.8777 68.0295 38.5235 68.7345 38.5235C69.4835 38.5235 69.8972 38.8886 70.0987 39.3757C70.5915 38.8886 71.1284 38.5235 71.8105 38.5235C72.8284 38.5235 73.3657 39.1552 73.3657 40.2065V44.0612H71.6653V44.0608ZM76.8538 39.8963C76.2052 39.8963 75.8588 40.4605 75.8588 41.3471C75.8588 42.2223 76.2162 42.82 76.8538 42.82C77.5029 42.82 77.8611 42.2328 77.8611 41.358C77.8611 40.4831 77.5029 39.8959 76.8538 39.8959M76.8428 44.171C75.3325 44.171 74.2253 43.0967 74.2253 41.3584C74.2253 39.6196 75.3439 38.5231 76.8538 38.5231C78.3751 38.5231 79.4946 39.6083 79.4946 41.3471C79.4946 43.0854 78.3641 44.171 76.8428 44.171ZM83.5649 44.0608V40.6605C83.5649 40.2727 83.4082 40.0078 83.006 40.0078C82.6812 40.0078 82.3793 40.1948 82.0774 40.4936V44.0608H80.3876V38.6337H81.8759L81.9991 39.3757C82.4915 38.9003 83.0174 38.5235 83.7109 38.5235C84.7288 38.5235 85.2653 39.1552 85.2653 40.2065V44.0612H83.5653L83.5649 44.0608ZM88.6653 39.6083C88.1953 39.6083 87.8596 40.0183 87.8037 40.8483H89.5265C89.4702 40.0292 89.1797 39.6083 88.6657 39.6083M91.1041 41.7675H87.8151C87.9048 42.6205 88.4189 42.9525 89.1577 42.9525C89.7615 42.9525 90.3547 42.7312 90.9585 42.3887L91.1261 43.5624C90.5338 43.938 89.8064 44.171 88.9447 44.171C87.3006 44.171 86.1257 43.3075 86.1257 41.3693C86.1257 39.5978 87.2223 38.5227 88.7093 38.5227C90.3881 38.5227 91.1372 39.7638 91.1372 41.3358C91.1372 41.5013 91.1261 41.6791 91.1045 41.7675M94.9937 44.171C94.5012 45.5887 93.8297 46.0762 92.6336 46.0762C92.2974 46.0762 92.1522 46.0431 91.9955 46.0103L91.783 44.6694C91.9621 44.7248 92.1297 44.7583 92.4545 44.7583C92.8347 44.7583 93.1709 44.6149 93.3492 44.2373L93.4165 44.0717L91.4248 38.7666L93.237 38.5554L94.3005 41.9783L95.307 38.6337H96.9401L94.9937 44.171ZM100.228 40.0179C99.8705 40.0179 99.5792 40.2279 99.2989 40.5389V42.6868C99.5225 42.7538 99.6571 42.7869 99.9137 42.7869C100.575 42.7869 101.044 42.3883 101.044 41.3135C101.044 40.4048 100.71 40.0179 100.228 40.0179M99.9598 44.1262C99.0758 44.1262 98.2476 43.9828 97.61 43.7393V36.3292L99.2989 36.0638V39.2315C99.6457 38.8777 100.116 38.5231 100.765 38.5231C101.883 38.5231 102.734 39.3648 102.734 41.2029C102.734 43.2195 101.648 44.127 99.9598 44.127M106.022 39.8963C105.373 39.8963 105.026 40.4605 105.026 41.3471C105.026 42.2223 105.384 42.82 106.022 42.82C106.67 42.82 107.029 42.2328 107.029 41.358C107.029 40.4831 106.67 39.8959 106.021 39.8959M106.01 44.171C104.501 44.171 103.393 43.0967 103.393 41.3584C103.393 39.6196 104.512 38.5231 106.022 38.5231C107.543 38.5231 108.662 39.6083 108.662 41.3471C108.662 43.0854 107.532 44.171 106.01 44.171M111.917 39.8963C111.267 39.8963 110.921 40.4605 110.921 41.3471C110.921 42.2223 111.279 42.82 111.917 42.82C112.565 42.82 112.923 42.2328 112.923 41.358C112.923 40.4831 112.565 39.8959 111.917 39.8959M111.905 44.171C110.395 44.171 109.287 43.0967 109.287 41.3584C109.287 39.6196 110.406 38.5231 111.917 38.5231C113.437 38.5231 114.556 39.6083 114.556 41.3471C114.556 43.0854 113.426 44.171 111.905 44.171M118.728 44.1383L117.139 41.5361V44.0612H115.45V36.3296L117.139 36.0642V40.86L118.604 38.6337H120.417L118.694 41.1035L120.485 43.8944L118.728 44.1383V44.1383ZM123.146 39.6083C122.675 39.6083 122.34 40.0183 122.284 40.8483H124.006C123.95 40.0292 123.66 39.6083 123.145 39.6083M125.585 41.7675H122.295C122.385 42.6205 122.899 42.9525 123.637 42.9525C124.242 42.9525 124.834 42.7312 125.439 42.3887L125.605 43.5624C125.014 43.938 124.286 44.171 123.426 44.171C121.78 44.171 120.606 43.3075 120.606 41.3693C120.606 39.5978 121.702 38.5227 123.189 38.5227C124.869 38.5227 125.618 39.7638 125.618 41.3358C125.618 41.5013 125.606 41.6791 125.585 41.7675M128.212 41.049V44.0608H126.523V38.6337H127.999L128.179 39.7073C128.513 39.0881 128.972 38.5784 129.778 38.5227L130.058 40.2275C129.241 40.284 128.626 40.6051 128.212 41.0486M132.718 44.1492C131.845 44.1492 131.029 43.9057 130.458 43.606L130.659 42.3325C131.309 42.7312 132.103 42.9747 132.73 42.9747C133.2 42.9747 133.423 42.82 133.423 42.5648C133.423 42.2885 133.267 42.1674 132.494 41.9783C131.119 41.6241 130.536 41.2586 130.536 40.2392C130.536 39.2311 131.298 38.555 132.639 38.555C133.378 38.555 134.094 38.7004 134.664 38.9548L134.453 40.2271C133.859 39.9068 133.176 39.719 132.651 39.719C132.248 39.719 132.069 39.8632 132.069 40.0736C132.069 40.2957 132.225 40.4165 132.998 40.6269C134.453 41.0147 134.967 41.3806 134.967 42.3887C134.967 43.5276 134.172 44.1492 132.718 44.1492" fill="white"/>
</svg>
