<svg xmlns="http://www.w3.org/2000/svg" width="40" height="40" fill="none" xmlns:v="https://vecta.io/nano"><g clip-path="url(#J)"><rect width="40" height="40" rx="20" fill="#ff4500"/><mask id="A" maskUnits="userSpaceOnUse" x="0" y="0" width="40" height="40"><path d="M0 0H40V40H0V0Z" fill="#fff"/></mask><g mask="url(#A)"><path d="M31.337 24.482a4.67 4.67 0 0 0 3.301-1.369c.876-.876 1.368-2.063 1.369-3.301s-.493-2.426-1.369-3.301-2.063-1.368-3.301-1.369-2.426.493-3.301 1.369-1.368 2.063-1.369 3.301.493 2.426 1.369 3.301 2.063 1.368 3.301 1.369z" fill="url(#B)"/><path d="M8.663 24.482c1.238-.001 2.426-.493 3.301-1.369s1.368-2.063 1.369-3.301-.493-2.426-1.369-3.301-2.063-1.368-3.301-1.369-2.426.493-3.301 1.369-1.368 2.063-1.369 3.301.493 2.426 1.369 3.301a4.67 4.67 0 0 0 3.301 1.369z" fill="url(#C)"/><path d="M20.011 33.823c7.364 0 13.334-4.477 13.334-10s-5.97-10-13.334-10-13.334 4.477-13.334 10 5.969 10 13.334 10z" fill="url(#D)"/><path d="M16.07 22.867c-.077 1.682-1.202 2.293-2.511 2.293s-2.307-.913-2.23-2.594 1.202-2.782 2.511-2.782 2.307 1.404 2.23 3.085v-.002z" fill="url(#E)"/><path d="M23.953 22.867c.078 1.682 1.202 2.293 2.511 2.293s2.307-.913 2.23-2.594-1.202-2.782-2.511-2.782-2.307 1.404-2.23 3.085v-.002z" fill="url(#F)"/><use href="#K" fill="#ffc49c"/><path d="M27.075 22.115c.286 0 .518-.253.518-.565s-.232-.565-.518-.565-.518.253-.518.565.232.565.518.565z" fill="#ffc49c"/><path d="M20.011 26.468l-4.614.226c-.246.024-.402.28-.306.507.806 1.924 2.705 3.276 4.92 3.276s4.116-1.352 4.92-3.276a.37.37 0 0 0-.305-.507 45.88 45.88 0 0 0-4.615-.226z" fill="url(#G)"/><path d="M27.313 12.463a3.31 3.31 0 0 0 3.309-3.309 3.31 3.31 0 0 0-3.309-3.309 3.31 3.31 0 0 0-3.309 3.309 3.31 3.31 0 0 0 3.309 3.309z" fill="url(#H)"/><path d="M19.963 14.245c-.396 0-.716-.165-.716-.42 0-2.965 2.413-5.378 5.378-5.378a.72.72 0 0 1 .716.716.72.72 0 0 1-.716.716 3.95 3.95 0 0 0-3.943 3.943c0 .255-.32.42-.716.42l-.002.002v.001z" fill="url(#I)"/><path d="M11.634 22.713c.072-1.585 1.126-2.622 2.35-2.622 1.159 0 2.056 1.184 2.089 2.654.032-1.645-.95-2.961-2.232-2.961s-2.434 1.12-2.511 2.815.92 2.561 2.23 2.561h.096c-1.193-.03-2.093-.887-2.02-2.445l-.002-.002h-.001zm16.755 0c-.073-1.585-1.126-2.622-2.35-2.622-1.159 0-2.055 1.184-2.089 2.654-.032-1.645.95-2.961 2.232-2.961 1.309 0 2.434 1.12 2.511 2.815s-.92 2.561-2.23 2.561h-.096c1.193-.03 2.093-.887 2.02-2.445l.003-.002z" fill="#842123"/></g></g><defs><radialGradient id="B" cx="0" cy="0" r="1" gradientTransform="translate(442.919 269.433) scale(96.9941 84.3849)" href="#L"><stop stop-color="#feffff"/><stop offset=".4" stop-color="#feffff"/><stop offset=".51" stop-color="#f9fcfc"/><stop offset=".62" stop-color="#edf3f5"/><stop offset=".7" stop-color="#dee9ec"/><stop offset=".72" stop-color="#d8e4e8"/><stop offset=".76" stop-color="#ccd8df"/><stop offset=".8" stop-color="#c8d5dd"/><stop offset=".83" stop-color="#ccd6de"/><stop offset=".85" stop-color="#d8dbe2"/><stop offset=".88" stop-color="#ede3e9"/><stop offset=".9" stop-color="#ffebef"/></radialGradient><radialGradient id="C" cx="0" cy="0" r="1" gradientTransform="translate(184.783 254.66) scale(96.994 84.3849)" href="#L"><stop stop-color="#feffff"/><stop offset=".4" stop-color="#feffff"/><stop offset=".51" stop-color="#f9fcfc"/><stop offset=".62" stop-color="#edf3f5"/><stop offset=".7" stop-color="#dee9ec"/><stop offset=".72" stop-color="#d8e4e8"/><stop offset=".76" stop-color="#ccd8df"/><stop offset=".8" stop-color="#c8d5dd"/><stop offset=".83" stop-color="#ccd6de"/><stop offset=".85" stop-color="#d8dbe2"/><stop offset=".88" stop-color="#ede3e9"/><stop offset=".9" stop-color="#ffebef"/></radialGradient><radialGradient id="D" cx="0" cy="0" r="1" gradientTransform="translate(635.362 599.549) scale(835.368 438.558)" href="#L"><stop stop-color="#feffff"/><stop offset=".4" stop-color="#feffff"/><stop offset=".51" stop-color="#f9fcfc"/><stop offset=".62" stop-color="#edf3f5"/><stop offset=".7" stop-color="#dee9ec"/><stop offset=".72" stop-color="#d8e4e8"/><stop offset=".76" stop-color="#ccd8df"/><stop offset=".8" stop-color="#c8d5dd"/><stop offset=".83" stop-color="#ccd6de"/><stop offset=".85" stop-color="#d8dbe2"/><stop offset=".88" stop-color="#ede3e9"/><stop offset=".9" stop-color="#ffebef"/></radialGradient><radialGradient id="E" cx="0" cy="0" r="1" gradientTransform="translate(81.8338 155.803) scale(13.302 21.8133)" href="#L"><stop stop-color="#f60"/><stop offset=".5" stop-color="#ff4500"/><stop offset=".7" stop-color="#fc4301"/><stop offset=".82" stop-color="#f43f07"/><stop offset=".92" stop-color="#e53812"/><stop offset="1" stop-color="#d4301f"/></radialGradient><radialGradient id="F" cx="0" cy="0" r="1" gradientTransform="translate(-77.1526 -108.576) rotate(180) scale(13.302 21.8133)" href="#L"><stop stop-color="#f60"/><stop offset=".5" stop-color="#ff4500"/><stop offset=".7" stop-color="#fc4301"/><stop offset=".82" stop-color="#f43f07"/><stop offset=".92" stop-color="#e53812"/><stop offset="1" stop-color="#d4301f"/></radialGradient><radialGradient id="G" cx="0" cy="0" r="1" gradientTransform="translate(278.543 270.171) scale(91.3331 24.4171)" href="#L"><stop stop-color="#172e35"/><stop offset=".29" stop-color="#0e1c21"/><stop offset=".73" stop-color="#030708"/><stop offset="1"/></radialGradient><radialGradient id="H" cx="0" cy="0" r="1" gradientTransform="translate(326.817 154.088) scale(53.6159 52.5435)" href="#L"><stop stop-color="#feffff"/><stop offset=".4" stop-color="#feffff"/><stop offset=".51" stop-color="#f9fcfc"/><stop offset=".62" stop-color="#edf3f5"/><stop offset=".7" stop-color="#dee9ec"/><stop offset=".72" stop-color="#d8e4e8"/><stop offset=".76" stop-color="#ccd8df"/><stop offset=".8" stop-color="#c8d5dd"/><stop offset=".83" stop-color="#ccd6de"/><stop offset=".85" stop-color="#d8dbe2"/><stop offset=".88" stop-color="#ede3e9"/><stop offset=".9" stop-color="#ffebef"/></radialGradient><radialGradient id="I" cx="0" cy="0" r="1" gradientTransform="translate(238.172 154.607) scale(40.4723 38.5042)" href="#L"><stop offset=".48" stop-color="#7a9299"/><stop offset=".67" stop-color="#172e35"/><stop offset=".75"/><stop offset=".82" stop-color="#172e35"/></radialGradient><clipPath id="J"><rect width="40" height="40" rx="20" fill="#fff"/></clipPath><path id="K" d="M14.746 22.115c.286 0 .518-.253.518-.565s-.232-.565-.518-.565-.518.253-.518.565.232.565.518.565z"/><linearGradient id="L" gradientUnits="userSpaceOnUse"/></defs></svg>