<svg xmlns="http://www.w3.org/2000/svg" width="40" height="40" viewBox="0 0 48 48" fill="none" xmlns:v="https://vecta.io/nano"><rect width="48" height="48" rx="24" fill="#008cff"/><path d="M31.078 26.751c-.738-.421-1.572-.546-2.397-.578-.687-.02-1.718-.473-1.718-1.727 0-.935.755-1.69 1.728-1.727.826-.031 1.659-.157 2.397-.582 2.085-1.204 2.802-3.87 1.598-5.958a4.38 4.38 0 0 0-5.978-1.591 4.34 4.34 0 0 0-2.18 3.778c0 .846.303 1.622.687 2.35.324.605.48 1.737-.619 2.373-.826.473-1.856.178-2.366-.646-.432-.697-.953-1.347-1.69-1.768a4.36 4.36 0 0 0-5.957 1.591c-1.201 2.089-.486 4.754 1.601 5.958a4.38 4.38 0 0 0 4.359 0c.735-.422 1.256-1.071 1.687-1.768.353-.569 1.248-1.296 2.366-.647.827.469 1.082 1.514.619 2.377-.381.714-.687 1.5-.687 2.346 0 2.408 1.953 4.356 4.359 4.359s4.356-1.951 4.359-4.359c.007-1.557-.819-3.003-2.17-3.782h.001z" fill="#fff"/></svg>