<svg xmlns="http://www.w3.org/2000/svg" width="40" height="40" viewBox="0 0 48 48" fill="none" xmlns:v="https://vecta.io/nano"><path d="M47.281 29.81c-3.206 12.859-16.23 20.684-29.09 17.478A24 24 0 0 1 .718 18.2C3.923 5.339 16.946-2.487 29.803.719S50.487 16.951 47.281 29.81h0 0z" fill="#f7931a"/><path d="M34.584 20.584c.478-3.194-1.954-4.911-5.28-6.057l1.079-4.327-2.634-.656-1.05 4.213-2.11-.497 1.058-4.241-2.632-.656-1.079 4.325-1.682-.395.003-.014-3.632-.907-.701 2.813 1.913.476c1.067.266 1.26.972 1.228 1.532l-1.229 4.929a2.14 2.14 0 0 1 .274.088l-.278-.069-1.722 6.905c-.13.324-.461.81-1.207.626.026.038-1.914-.478-1.914-.478l-1.308 3.015 3.428.854 1.878.484-1.09 4.377 2.631.656 1.079-4.33 2.099.545-1.076 4.31 2.634.656 1.09-4.368c4.491.85 7.868.507 9.29-3.555 1.145-3.271-.057-5.157-2.42-6.387 1.721-.397 3.017-1.529 3.363-3.867h-.001 0zm-6.018 8.439c-.814 3.271-6.321 1.503-8.106 1.059l1.446-5.798c1.785.446 7.511 1.328 6.66 4.739h0zm.815-8.486c-.742 2.975-5.326 1.464-6.813 1.093l1.311-5.259c1.487.371 6.275 1.062 5.502 4.166h0z" fill="#fff"/></svg>