<svg width="101" height="100" viewBox="0 0 101 100" fill="none" xmlns="http://www.w3.org/2000/svg">
<g clip-path="url(#clip0_2001_1567)">
<path d="M93.2575 29.0967L93.2551 29.0947C92.4332 28.4086 91.435 27.9674 90.3744 27.8213C89.3138 27.6752 88.2335 27.8302 87.2568 28.2686L87.2552 28.2693L67.4896 37.0584L67.0713 37.2444L66.8492 36.844L55.3673 16.1453C55.3669 16.1446 55.3665 16.144 55.3661 16.1433C54.8609 15.2545 54.1293 14.5153 53.2457 14.0009C52.3614 13.4861 51.3565 13.215 50.3333 13.215C49.3101 13.215 48.3052 13.4861 47.4209 14.0009C46.5373 14.5153 45.8057 15.2545 45.3004 16.1433C45.3001 16.144 45.2997 16.1446 45.2993 16.1453L33.8174 36.844L33.5953 37.2444L33.177 37.0584L13.4114 28.2693L13.4104 28.2689C12.4311 27.8309 11.3489 27.6756 10.286 27.8205C9.22305 27.9655 8.22187 28.4049 7.39562 29.0891C6.56937 29.7733 5.95099 30.6749 5.61039 31.6922C5.26979 32.7094 5.22054 33.8017 5.46823 34.8454L5.46853 34.8467L15.3904 77.1514L15.3907 77.1527C15.5652 77.9058 15.8907 78.6156 16.3476 79.2392C16.8044 79.8628 17.3831 80.3871 18.0486 80.7804L18.051 80.7819C18.9532 81.3219 19.9847 81.6078 21.0361 81.6093C21.5443 81.6083 22.0498 81.536 22.538 81.3947L22.5438 81.393C40.7152 76.3691 59.9091 76.3688 78.0806 81.3922M93.2575 29.0967L95.1981 34.8467M93.2575 29.0967C94.0849 29.7788 94.7052 30.6787 95.0481 31.6948C95.391 32.7108 95.443 33.8024 95.1982 34.8463L95.1981 34.8467M93.2575 29.0967L95.1981 34.8467M78.0806 81.3922C78.0817 81.3924 78.0827 81.3927 78.0837 81.393L77.9505 81.8749L78.0776 81.3914C78.0786 81.3916 78.0796 81.3919 78.0806 81.3922ZM78.0806 81.3922C79.603 81.7915 81.2216 81.571 82.5816 80.7788L82.5825 80.7783C83.2509 80.3907 83.8318 79.8687 84.2885 79.2454C84.7452 78.6221 85.0678 77.9109 85.2359 77.1567L85.2372 77.151L95.1981 34.8467" fill="url(#paint0_linear_2001_1567)" stroke="url(#paint1_linear_2001_1567)"/>
</g>
<defs>
<linearGradient id="paint0_linear_2001_1567" x1="50.3314" y1="12.715" x2="50.3314" y2="82.1093" gradientUnits="userSpaceOnUse">
<stop stop-color="#44F28A" stop-opacity="0.5"/>
<stop offset="1" stop-color="#161616" stop-opacity="0"/>
</linearGradient>
<linearGradient id="paint1_linear_2001_1567" x1="50.3314" y1="12.715" x2="50.3334" y2="74" gradientUnits="userSpaceOnUse">
<stop stop-color="#44F28A" stop-opacity="0.6"/>
<stop offset="1" stop-color="#44F28A" stop-opacity="0"/>
</linearGradient>
<clipPath id="clip0_2001_1567">
<rect width="100" height="100" fill="white" transform="translate(0.333313)"/>
</clipPath>
</defs>
</svg>
