<svg xmlns="http://www.w3.org/2000/svg" width="20" height="20" fill="none" xmlns:v="https://vecta.io/nano"><g clip-path="url(#A)"><path d="M10 0h10v2.5l-1.25 1.25L20 5v2.5l-1.25 1.25L20 10v2.5l-1.25 1.25L20 15v2.5l-10 1.25L0 17.5V15l1.25-1.25L0 12.5V10L10 0z" fill="#eee"/><path d="M8.75 2.5H20V5H8.75V2.5zm0 5H20V10H10L8.75 7.5zM0 12.5h20V15H0v-2.5zm0 5h20V20H0v-2.5z" fill="#d80027"/><path d="M0 0H10V10H0V0Z" fill="#0052b4"/><path d="M7.305 9.492l2.227-1.602H6.797l2.227 1.602-.859-2.617-.859 2.617zm-3.164 0l2.227-1.602H3.633l2.227 1.602L5 6.875l-.859 2.617zm-3.164 0l2.227-1.602H.469l2.227 1.602-.859-2.617-.859 2.617zm6.328-3.164l2.227-1.602H6.797l2.227 1.602-.859-2.617-.859 2.617zm-3.164 0l2.227-1.602H3.633l2.227 1.602L5 3.711l-.859 2.617zm-3.164 0l2.227-1.602H.469l2.227 1.602-.859-2.617-.859 2.617zm6.328-3.203l2.227-1.602H6.797l2.227 1.602L8.164.508l-.859 2.617zm-3.164 0l2.227-1.602H3.633l2.227 1.602L5 .508l-.859 2.617zm-3.164 0l2.227-1.602H.469l2.227 1.602L1.836.508.977 3.125z" fill="#eee"/></g><defs><clipPath id="A"><rect width="20" height="20" rx="10" fill="#fff"/></clipPath></defs></svg>