<svg xmlns="http://www.w3.org/2000/svg" width="20" height="20" fill="none" xmlns:v="https://vecta.io/nano"><g clip-path="url(#A)"><path d="M0 20h6.523l1.48-10.168L6.523 0H0v20z" fill="#6da544"/><path d="M20 0H6.523v20H20V0z" fill="#d80027"/><path d="M6.523 13.477C8.443 13.477 10 11.92 10 10S8.443 6.523 6.523 6.523 3.047 8.08 3.047 10s1.556 3.477 3.477 3.477z" fill="#ffda44"/><path d="M4.566 8.262v2.168c0 .518.206 1.016.573 1.382s.864.573 1.382.573 1.016-.206 1.382-.573.573-.864.573-1.382V8.258H4.57l-.004.004z" fill="#d80027"/><path d="M6.523 11.086c-.359 0-.652-.293-.652-.652V9.57h1.305v.859c0 .359-.293.652-.652.652v.004z" fill="#eee"/></g><defs><clipPath id="A"><rect width="20" height="20" rx="10" fill="#fff"/></clipPath></defs></svg>